G04*
G04 #@! TF.GenerationSoftware,Altium Limited,Altium Designer,23.9.2 (47)*
G04*
G04 Layer_Physical_Order=1*
G04 Layer_Color=255*
%FSLAX25Y25*%
%MOIN*%
G70*
G04*
G04 #@! TF.SameCoordinates,F867936C-D2EA-4238-9ECD-A963B99A8E52*
G04*
G04*
G04 #@! TF.FilePolarity,Positive*
G04*
G01*
G75*
%ADD10C,0.47244*%
%ADD11C,0.37402*%
%ADD12C,0.21654*%
%ADD13C,0.31496*%
%ADD24C,0.35433*%
%ADD25C,0.25591*%
%ADD26C,0.33465*%
%ADD27C,0.29528*%
%ADD28C,0.27559*%
%ADD29C,0.23622*%
D10*
X354331Y153543D02*
D03*
Y55118D02*
D03*
X275590Y153543D02*
D03*
Y55118D02*
D03*
X196850Y240158D02*
D03*
Y153543D02*
D03*
Y55118D02*
D03*
X118110Y153543D02*
D03*
Y55118D02*
D03*
X354331Y240158D02*
D03*
Y338583D02*
D03*
X39370D02*
D03*
X196850D02*
D03*
X275590D02*
D03*
Y240158D02*
D03*
X39370Y55118D02*
D03*
Y153543D02*
D03*
X118110Y240158D02*
D03*
Y338583D02*
D03*
X39370Y240158D02*
D03*
D11*
X354331Y55118D02*
Y84646D01*
Y124016D02*
Y153543D01*
X275590Y55118D02*
Y84646D01*
Y124016D02*
Y153543D01*
X39370Y309055D02*
Y338583D01*
Y240158D02*
Y269685D01*
X196850Y124016D02*
Y153543D01*
Y55118D02*
Y84646D01*
X118110Y124016D02*
Y153543D01*
Y55118D02*
Y84646D01*
X39370Y124016D02*
Y153543D01*
Y55118D02*
Y84646D01*
X354331Y309055D02*
Y338583D01*
Y240158D02*
Y269685D01*
X275590Y309055D02*
Y338583D01*
Y240158D02*
Y269685D01*
X196850Y309055D02*
Y338583D01*
Y240158D02*
Y269685D01*
X118110Y240158D02*
Y269685D01*
Y309055D02*
Y338583D01*
D12*
X354331Y84646D02*
Y124016D01*
X39370Y269685D02*
Y309055D01*
D13*
Y84646D02*
Y124016D01*
D24*
X275590Y84646D02*
Y124016D01*
X196850Y84646D02*
Y124016D01*
D25*
Y269685D02*
Y309055D01*
D26*
X118110Y84646D02*
Y124016D01*
D27*
X354331Y269685D02*
Y309055D01*
D28*
X275590Y269685D02*
Y309055D01*
D29*
X118110Y269685D02*
Y309055D01*
M02*
