G04*
G04 #@! TF.GenerationSoftware,Altium Limited,Altium Designer,23.9.2 (47)*
G04*
G04 Layer_Color=8388736*
%FSLAX25Y25*%
%MOIN*%
G70*
G04*
G04 #@! TF.SameCoordinates,F867936C-D2EA-4238-9ECD-A963B99A8E52*
G04*
G04*
G04 #@! TF.FilePolarity,Negative*
G04*
G01*
G75*
%ADD14C,0.48044*%
%ADD15C,0.38202*%
%ADD16C,0.22453*%
%ADD17C,0.36233*%
%ADD18C,0.26391*%
%ADD19C,0.34265*%
%ADD20C,0.32296*%
%ADD21C,0.30328*%
%ADD22C,0.28359*%
%ADD23C,0.24422*%
D14*
X354331Y153543D02*
D03*
Y55118D02*
D03*
X275590Y153543D02*
D03*
Y55118D02*
D03*
X196850Y240158D02*
D03*
Y153543D02*
D03*
Y55118D02*
D03*
X118110Y153543D02*
D03*
Y55118D02*
D03*
X354331Y240158D02*
D03*
Y338583D02*
D03*
X39370D02*
D03*
X196850D02*
D03*
X275590D02*
D03*
Y240158D02*
D03*
X39370Y55118D02*
D03*
Y153543D02*
D03*
X118110Y240158D02*
D03*
Y338583D02*
D03*
X39370Y240158D02*
D03*
D15*
X354331Y55118D02*
Y84646D01*
Y124016D02*
Y153543D01*
X275590Y55118D02*
Y84646D01*
Y124016D02*
Y153543D01*
X39370Y309055D02*
Y338583D01*
Y240158D02*
Y269685D01*
X196850Y124016D02*
Y153543D01*
Y55118D02*
Y84646D01*
X118110Y124016D02*
Y153543D01*
Y55118D02*
Y84646D01*
X39370Y124016D02*
Y153543D01*
Y55118D02*
Y84646D01*
X354331Y309055D02*
Y338583D01*
Y240158D02*
Y269685D01*
X275590Y309055D02*
Y338583D01*
Y240158D02*
Y269685D01*
X196850Y309055D02*
Y338583D01*
Y240158D02*
Y269685D01*
X118110Y240158D02*
Y269685D01*
Y309055D02*
Y338583D01*
D16*
X354331Y84646D02*
Y124016D01*
X39370Y269685D02*
Y309055D01*
D17*
X275590Y84646D02*
Y124016D01*
X196850Y84646D02*
Y124016D01*
D18*
Y269685D02*
Y309055D01*
D19*
X118110Y84646D02*
Y124016D01*
D20*
X39370Y84646D02*
Y124016D01*
D21*
X354331Y269685D02*
Y309055D01*
D22*
X275590Y269685D02*
Y309055D01*
D23*
X118110Y269685D02*
Y309055D01*
M02*
