G04*
G04 #@! TF.GenerationSoftware,Altium Limited,Altium Designer,23.9.2 (47)*
G04*
G04 Layer_Color=65535*
%FSLAX25Y25*%
%MOIN*%
G70*
G04*
G04 #@! TF.SameCoordinates,F644929B-0515-4FFE-9EA4-74E11A0DFDDC*
G04*
G04*
G04 #@! TF.FilePolarity,Positive*
G04*
G01*
G75*
%ADD10C,0.00787*%
%ADD11C,0.00984*%
%ADD12C,0.02362*%
%ADD13C,0.00500*%
%ADD14C,0.00591*%
%ADD15C,0.01500*%
%ADD16C,0.01000*%
G36*
X46287Y14330D02*
X46323Y14293D01*
Y14257D01*
Y14184D01*
X46287Y14002D01*
Y13965D01*
Y13819D01*
X46250Y13564D01*
X46214Y13236D01*
Y13200D01*
Y13163D01*
X46177Y12908D01*
X46141Y12580D01*
X46068Y12216D01*
X45813Y10174D01*
X43918D01*
X43334Y11887D01*
Y11924D01*
X43298Y11960D01*
X43225Y12143D01*
X43116Y12434D01*
X43006Y12726D01*
Y12762D01*
X42970Y12799D01*
X42933Y12945D01*
X42860Y13163D01*
X42788Y13345D01*
Y13382D01*
X42751Y13491D01*
X42715Y13564D01*
Y13491D01*
X42678Y13345D01*
Y13163D01*
X42642Y12835D01*
X42605Y12434D01*
X42569Y12179D01*
X42532Y11887D01*
Y11814D01*
X42496Y11632D01*
X42459Y11377D01*
X42423Y11049D01*
X42387Y10757D01*
X42350Y10466D01*
X42314Y10284D01*
X42277Y10211D01*
Y10174D01*
Y10101D01*
X41658D01*
Y10174D01*
Y10211D01*
Y10284D01*
X41694Y10429D01*
Y10685D01*
X41767Y11049D01*
Y11268D01*
X41803Y11559D01*
X41840Y11851D01*
X41876Y12216D01*
Y12252D01*
Y12288D01*
X41913Y12398D01*
Y12543D01*
X41949Y12872D01*
X42022Y13273D01*
X42059Y13637D01*
X42095Y13965D01*
Y14111D01*
X42131Y14220D01*
Y14257D01*
Y14293D01*
X42168Y14366D01*
X44100D01*
X44209Y14038D01*
Y14002D01*
X44245Y13892D01*
X44282Y13746D01*
Y13710D01*
X44355Y13601D01*
X44391Y13382D01*
X44501Y13127D01*
X44537Y13054D01*
X44574Y12872D01*
X44683Y12653D01*
X44756Y12398D01*
X44792Y12325D01*
X44829Y12143D01*
X44938Y11924D01*
X45011Y11669D01*
X45047Y11632D01*
X45084Y11486D01*
X45120Y11304D01*
X45157Y11122D01*
Y11085D01*
X45193Y11049D01*
X45230Y10976D01*
X45266Y10940D01*
Y10976D01*
X45303Y11013D01*
Y11158D01*
X45339Y11341D01*
X45375Y11632D01*
X45412Y12070D01*
X45448Y12325D01*
X45485Y12616D01*
Y12653D01*
Y12689D01*
X45521Y12872D01*
X45558Y13163D01*
X45594Y13455D01*
Y13783D01*
X45631Y14038D01*
X45667Y14257D01*
Y14293D01*
Y14330D01*
X45704Y14366D01*
X46177D01*
X46287Y14330D01*
D02*
G37*
G36*
X51208Y14293D02*
Y14257D01*
X51171Y14147D01*
X51135Y13965D01*
X51098Y13674D01*
X48911D01*
X48875Y13601D01*
X48802Y13564D01*
X48729Y13455D01*
Y13418D01*
Y13382D01*
Y13273D01*
X48692Y13127D01*
X48656Y12908D01*
X48619Y12616D01*
X48583Y12216D01*
Y12179D01*
X48547Y12033D01*
Y11851D01*
X48510Y11632D01*
X48474Y11414D01*
Y11231D01*
X48437Y11085D01*
Y11013D01*
Y10976D01*
X48474Y10940D01*
X48547Y10867D01*
X48583Y10794D01*
X49093D01*
X49239Y10830D01*
X49312Y10867D01*
X49349D01*
X49385Y10903D01*
X49458Y11013D01*
X49494Y11049D01*
X49531Y11195D01*
X49567Y11341D01*
Y11486D01*
X49604Y11705D01*
Y11924D01*
X48838D01*
Y11997D01*
Y12033D01*
Y12143D01*
X48875Y12325D01*
X48911Y12616D01*
X51025D01*
X51171Y12580D01*
X51208D01*
Y12507D01*
X51171Y12434D01*
Y12288D01*
X51135Y12070D01*
X51098Y11778D01*
X51025Y11377D01*
Y11341D01*
X50989Y11195D01*
Y11013D01*
X50952Y10757D01*
X50916Y10539D01*
Y10356D01*
X50879Y10211D01*
Y10138D01*
X50661D01*
X50479Y10101D01*
X48401D01*
X48109Y10138D01*
X47599D01*
X47490Y10174D01*
X47417Y10211D01*
X47271Y10284D01*
X47125Y10466D01*
X47052Y10575D01*
X47016Y10757D01*
Y10794D01*
Y10867D01*
Y11013D01*
Y11195D01*
Y11450D01*
X47052Y11778D01*
X47089Y12216D01*
Y12252D01*
X47125Y12398D01*
X47161Y12580D01*
X47198Y12799D01*
Y13017D01*
X47234Y13236D01*
X47271Y13382D01*
Y13455D01*
Y13491D01*
X47307Y13528D01*
X47380Y13746D01*
X47526Y13965D01*
X47745Y14184D01*
X47781Y14220D01*
X47854Y14257D01*
X47927Y14293D01*
X48073D01*
X48146Y14330D01*
X48437D01*
X48729Y14366D01*
X51208D01*
Y14293D01*
D02*
G37*
G36*
X41038D02*
Y14257D01*
Y14184D01*
X41001Y14038D01*
X40965Y13783D01*
Y13637D01*
X40929Y13418D01*
X40892Y13163D01*
X40856Y12908D01*
X40819Y12580D01*
X40783Y12216D01*
Y12179D01*
Y12143D01*
X40746Y11887D01*
X40710Y11559D01*
X40673Y11195D01*
X40637Y10830D01*
X40600Y10466D01*
X40564Y10247D01*
Y10174D01*
Y10138D01*
X40491D01*
X40382Y10101D01*
X39033D01*
Y10174D01*
Y10211D01*
X39070Y10320D01*
Y10466D01*
X39106Y10721D01*
X39179Y11085D01*
X39215Y11341D01*
X39252Y11596D01*
X39288Y11924D01*
X39325Y12288D01*
X39580Y14366D01*
X41038D01*
Y14293D01*
D02*
G37*
G36*
X38486D02*
Y14257D01*
Y14111D01*
Y13929D01*
X38450Y13674D01*
X37028D01*
X36883Y13637D01*
X36773D01*
X36737Y13601D01*
X36700Y13564D01*
X36664Y13528D01*
X36628Y13455D01*
Y13382D01*
X36591Y13309D01*
X36555Y13163D01*
Y12945D01*
X36482Y12616D01*
X36445Y12216D01*
X36263Y11013D01*
X36336Y10940D01*
Y10903D01*
X36372Y10867D01*
X38158D01*
Y10794D01*
Y10757D01*
X38122Y10648D01*
X38085Y10466D01*
X38049Y10101D01*
X36044D01*
X35789Y10138D01*
X35534D01*
X35315Y10174D01*
X35206Y10211D01*
X35170Y10247D01*
X35060Y10320D01*
X35024Y10356D01*
X34951Y10466D01*
X34878Y10648D01*
X34805Y10903D01*
Y10940D01*
Y11013D01*
X34841Y11122D01*
Y11268D01*
X34878Y11486D01*
X34914Y11814D01*
X34951Y12179D01*
Y12252D01*
X34987Y12398D01*
Y12580D01*
X35024Y12835D01*
X35060Y13090D01*
X35097Y13309D01*
X35133Y13491D01*
Y13601D01*
Y13637D01*
X35170Y13710D01*
X35315Y13929D01*
X35534Y14184D01*
X35716Y14293D01*
X35899Y14366D01*
X38486D01*
Y14293D01*
D02*
G37*
G36*
X33675Y12543D02*
X33711Y12471D01*
X33748Y12288D01*
X33857Y11960D01*
X33930Y11596D01*
Y11559D01*
X33967Y11523D01*
X34003Y11304D01*
X34076Y11049D01*
X34149Y10794D01*
Y10757D01*
X34185Y10648D01*
X34222Y10539D01*
Y10466D01*
X34295Y10101D01*
X32727D01*
X32581Y10648D01*
Y10685D01*
X32545Y10721D01*
X32509Y10940D01*
X32472Y11122D01*
X32436Y11158D01*
Y11195D01*
Y11231D01*
X30723D01*
X30431Y10648D01*
X30066Y10101D01*
X29374D01*
X29410Y10174D01*
X29483Y10356D01*
X29556Y10502D01*
X29665Y10648D01*
X29775Y10903D01*
X29957Y11158D01*
X30139Y11486D01*
X30358Y11887D01*
X30613Y12361D01*
X30941Y12908D01*
X31306Y13528D01*
X31707Y14257D01*
X31743Y14366D01*
X33238D01*
X33675Y12543D01*
D02*
G37*
G36*
X26932Y14293D02*
X28754D01*
X28791Y14257D01*
X28900Y14220D01*
X29009Y14111D01*
X29082Y14002D01*
Y13965D01*
X29119Y13892D01*
Y13819D01*
Y13673D01*
Y13528D01*
Y13309D01*
X29082Y13017D01*
Y12981D01*
Y12908D01*
X29046Y12653D01*
Y12398D01*
X29009Y12288D01*
Y12215D01*
X28973Y12179D01*
X28900Y12106D01*
X28718Y11997D01*
X28499Y11924D01*
X28390D01*
Y11887D01*
X28426Y11814D01*
X28463Y11705D01*
X28499Y11523D01*
X28572Y11304D01*
X28681Y11013D01*
Y10976D01*
X28718Y10867D01*
X28791Y10721D01*
X28864Y10575D01*
X28900Y10393D01*
X28973Y10247D01*
X29009Y10138D01*
Y10101D01*
X27369D01*
X27333Y10211D01*
Y10247D01*
X27296Y10320D01*
Y10356D01*
X27260Y10429D01*
X27223Y10539D01*
X27187Y10685D01*
Y10721D01*
X27150Y10830D01*
X27114Y10976D01*
Y11085D01*
X26895Y11924D01*
X26458D01*
X26421Y11887D01*
Y11851D01*
Y11778D01*
Y11669D01*
X26385Y11523D01*
Y11304D01*
X26349Y11013D01*
Y10976D01*
X26312Y10867D01*
X26276Y10721D01*
X26239Y10575D01*
Y10539D01*
Y10466D01*
X26203Y10211D01*
Y10174D01*
Y10138D01*
Y10101D01*
X24708D01*
Y10174D01*
Y10211D01*
Y10284D01*
X24745Y10429D01*
X24781Y10685D01*
X24818Y11049D01*
X24854Y11268D01*
X24891Y11559D01*
X24927Y11851D01*
X24963Y12215D01*
Y12252D01*
Y12288D01*
X25000Y12543D01*
X25036Y12871D01*
X25109Y13236D01*
X25146Y13637D01*
X25182Y13965D01*
X25219Y14184D01*
X25255Y14257D01*
Y14293D01*
Y14366D01*
X26932Y14293D01*
D02*
G37*
G36*
X24672D02*
Y14257D01*
Y14184D01*
X24635Y14002D01*
X24599Y13746D01*
X24563Y13382D01*
X24526Y13163D01*
X24490Y12871D01*
X24453Y12543D01*
X24417Y12179D01*
X24162Y10101D01*
X2474D01*
Y10174D01*
Y10211D01*
Y10320D01*
X2510Y10466D01*
X2547Y10721D01*
X2583Y11085D01*
X2620Y11304D01*
X2656Y11559D01*
X2692Y11887D01*
X2729Y12215D01*
Y12252D01*
Y12288D01*
X2765Y12398D01*
Y12543D01*
X2802Y12871D01*
X2875Y13273D01*
X2911Y13637D01*
X2948Y13965D01*
Y14111D01*
X2984Y14220D01*
Y14257D01*
Y14293D01*
Y14366D01*
X24708D01*
X24672Y14293D01*
D02*
G37*
G36*
X21683Y9591D02*
X21646Y9518D01*
Y9409D01*
X21610Y9263D01*
X21574Y9081D01*
Y9044D01*
Y9008D01*
X21537Y8789D01*
X21501Y8570D01*
Y8497D01*
Y8461D01*
X20334D01*
X20225Y7841D01*
Y7805D01*
Y7769D01*
Y7550D01*
X20188Y7331D01*
Y7258D01*
Y7222D01*
X18949D01*
Y7258D01*
Y7331D01*
X18986Y7404D01*
Y7513D01*
Y7659D01*
X19022Y7841D01*
Y7878D01*
Y7914D01*
X19059Y8133D01*
X19095Y8352D01*
Y8425D01*
Y8461D01*
X17929D01*
X17819Y7841D01*
Y7805D01*
Y7769D01*
Y7550D01*
X17783Y7368D01*
Y7295D01*
Y7258D01*
Y7222D01*
X16544D01*
Y7258D01*
Y7331D01*
Y7404D01*
X16580Y7513D01*
Y7659D01*
X16616Y7841D01*
X16653Y8097D01*
X16689Y8388D01*
Y8461D01*
X17929D01*
X17965Y9044D01*
Y9081D01*
Y9154D01*
X18001Y9336D01*
X18038Y9555D01*
X18074Y9591D01*
Y9628D01*
Y9664D01*
X19241D01*
Y9591D01*
Y9518D01*
Y9409D01*
X19204Y9227D01*
X19168Y9044D01*
X19131Y8789D01*
X19095Y8497D01*
Y8461D01*
X20298D01*
X20334Y8497D01*
Y8534D01*
Y8607D01*
Y8789D01*
X20371Y9081D01*
Y9117D01*
Y9154D01*
X20407Y9372D01*
X20444Y9555D01*
Y9628D01*
Y9664D01*
X21683D01*
Y9591D01*
D02*
G37*
G36*
X16835Y9628D02*
Y9555D01*
Y9482D01*
Y9409D01*
X16799Y9263D01*
Y9081D01*
Y9044D01*
Y9008D01*
X16762Y8789D01*
X16726Y8607D01*
Y8534D01*
X16689Y8497D01*
Y8461D01*
X15523D01*
Y8570D01*
X15559Y8643D01*
Y8753D01*
Y8899D01*
X15596Y9081D01*
Y9117D01*
Y9190D01*
X15632Y9372D01*
X15669Y9591D01*
Y9628D01*
Y9664D01*
X16835D01*
Y9628D01*
D02*
G37*
G36*
X12024D02*
Y9591D01*
X11987Y9482D01*
Y9300D01*
X11951Y9117D01*
X11914Y8899D01*
Y8716D01*
X11878Y8570D01*
Y8497D01*
X11951D01*
X12024Y8461D01*
X13117D01*
Y8425D01*
Y8352D01*
X13081Y8279D01*
Y8169D01*
X13044Y7987D01*
X13008Y7805D01*
X12971Y7222D01*
X11732D01*
Y7295D01*
X11769Y7368D01*
Y7477D01*
Y7623D01*
X11805Y7805D01*
Y7841D01*
Y7914D01*
X11841Y8097D01*
X11878Y8315D01*
Y8388D01*
Y8425D01*
X11805Y8461D01*
X10675D01*
Y8388D01*
Y8315D01*
Y8242D01*
X10639Y8133D01*
Y7987D01*
X10602Y7805D01*
X10529Y7222D01*
X9326D01*
Y7258D01*
Y7295D01*
X9363Y7404D01*
Y7550D01*
X9399Y7732D01*
X9436Y8133D01*
X9472Y8315D01*
Y8461D01*
X8379D01*
X8306Y8425D01*
X8269D01*
Y8352D01*
Y8242D01*
X8233Y8133D01*
Y7987D01*
X8196Y7805D01*
Y7769D01*
Y7732D01*
X8160Y7513D01*
X8124Y7331D01*
Y7258D01*
Y7222D01*
X6921D01*
Y7331D01*
X6957Y7404D01*
Y7513D01*
Y7659D01*
X6994Y7841D01*
Y7878D01*
Y7951D01*
X7030Y8169D01*
X7067Y8352D01*
Y8425D01*
Y8461D01*
X5864D01*
Y8388D01*
X5827Y8315D01*
Y8206D01*
X5791Y8060D01*
X5754Y7841D01*
X5718Y7222D01*
X4479D01*
Y7295D01*
X4515Y7368D01*
Y7477D01*
Y7623D01*
X4552Y7805D01*
Y7841D01*
Y7914D01*
X4588Y8097D01*
X4624Y8315D01*
Y8388D01*
Y8425D01*
X4552Y8461D01*
X3458D01*
Y8497D01*
Y8570D01*
Y8643D01*
Y8753D01*
X3494Y8899D01*
Y9081D01*
X3604Y9664D01*
X4843D01*
X4770Y9628D01*
Y9591D01*
Y9482D01*
X4734Y9336D01*
Y9190D01*
X4697Y8789D01*
Y8643D01*
Y8497D01*
X4770D01*
X4843Y8461D01*
X5864D01*
Y8570D01*
X5900Y8643D01*
Y8753D01*
Y8899D01*
X5937Y9081D01*
Y9117D01*
Y9190D01*
X5973Y9372D01*
X6010Y9591D01*
Y9628D01*
Y9664D01*
X7249D01*
X7212Y9628D01*
Y9555D01*
Y9482D01*
X7176Y9372D01*
Y9227D01*
X7139Y9044D01*
X7103Y8461D01*
X7686Y8497D01*
X8269D01*
X8342Y9081D01*
Y9117D01*
Y9190D01*
X8379Y9372D01*
X8415Y9591D01*
Y9628D01*
Y9664D01*
X9509D01*
X9582Y9628D01*
X9618D01*
Y9555D01*
Y9482D01*
X9582Y9372D01*
Y9227D01*
X9545Y9044D01*
Y9008D01*
Y8971D01*
X9509Y8753D01*
X9472Y8570D01*
Y8497D01*
Y8461D01*
X10675D01*
Y8497D01*
Y8570D01*
X10712Y8643D01*
Y8753D01*
Y8899D01*
X10748Y9081D01*
X10857Y9664D01*
X12024D01*
Y9628D01*
D02*
G37*
G36*
X49604Y9628D02*
X50806D01*
Y9591D01*
Y9518D01*
Y9336D01*
X50770Y9117D01*
X50734Y8789D01*
X50697Y8388D01*
X50624Y7878D01*
X50515Y7258D01*
Y7222D01*
X24380Y7222D01*
Y7258D01*
Y7295D01*
Y7368D01*
Y7513D01*
X24417Y7732D01*
X24453Y8060D01*
X24490Y8461D01*
X24563Y9008D01*
X24672Y9628D01*
Y9664D01*
X49203Y9664D01*
X49604Y9628D01*
D02*
G37*
G36*
X24089Y9628D02*
Y9555D01*
Y9518D01*
X24052Y9336D01*
Y9300D01*
Y9263D01*
X24016Y9044D01*
X23943Y8461D01*
X22740D01*
Y8388D01*
Y8315D01*
X22704Y8206D01*
Y8060D01*
X22667Y7841D01*
Y7805D01*
Y7769D01*
X22631Y7550D01*
X22594Y7331D01*
Y7258D01*
Y7222D01*
X21355D01*
Y7258D01*
Y7331D01*
X21391Y7404D01*
Y7513D01*
Y7659D01*
X21428Y7841D01*
Y7878D01*
Y7914D01*
X21464Y8133D01*
X21501Y8352D01*
Y8425D01*
Y8461D01*
X22704D01*
X22740Y8497D01*
Y8570D01*
X22776Y8643D01*
Y8753D01*
Y8899D01*
X22813Y9081D01*
X22886Y9664D01*
X24089D01*
Y9628D01*
D02*
G37*
G36*
X14429D02*
Y9591D01*
X14393Y9482D01*
Y9372D01*
X14356Y9190D01*
X14320Y8826D01*
X14284Y8643D01*
Y8497D01*
X14356D01*
X14429Y8461D01*
X15523D01*
Y8425D01*
Y8352D01*
X15486Y8169D01*
X15450Y8024D01*
X15414Y7841D01*
Y7805D01*
Y7769D01*
Y7586D01*
X15377Y7404D01*
Y7258D01*
Y7222D01*
X14138D01*
Y7331D01*
X14174Y7404D01*
Y7513D01*
Y7659D01*
X14211Y7841D01*
Y7878D01*
Y7951D01*
X14247Y8169D01*
X14284Y8352D01*
Y8425D01*
Y8461D01*
X13117D01*
Y8497D01*
Y8534D01*
X13154Y8643D01*
Y8789D01*
X13190Y8971D01*
X13227Y9372D01*
X13263Y9518D01*
Y9664D01*
X14429D01*
Y9628D01*
D02*
G37*
G36*
X3458Y8388D02*
X3421Y8242D01*
X3385Y8024D01*
X3349Y7805D01*
X3312Y7222D01*
X2073D01*
Y7295D01*
X2109Y7368D01*
Y7404D01*
X2146Y7440D01*
Y7623D01*
Y7659D01*
X2182Y7732D01*
Y7914D01*
X2219Y8461D01*
X3458D01*
Y8388D01*
D02*
G37*
G36*
X43662Y6384D02*
X45667D01*
X45631Y6347D01*
X45558Y6311D01*
X45412Y6274D01*
X45230Y6165D01*
X44974Y6055D01*
X44646Y5873D01*
X43626Y5399D01*
X22813Y5873D01*
X22303D01*
X21902Y5910D01*
X20881D01*
X20261Y5946D01*
X19569D01*
X18803Y5982D01*
X18001D01*
X17127Y6019D01*
X16216D01*
X14356Y6092D01*
X12425Y6128D01*
X10456Y6165D01*
X8597Y6238D01*
X7686D01*
X6811Y6274D01*
X6010D01*
X5244Y6311D01*
X4552D01*
X3932Y6347D01*
X2911D01*
X2510Y6383D01*
X4260D01*
X4734Y6420D01*
X43006Y6420D01*
X43662Y6384D01*
D02*
G37*
G36*
X48000D02*
X48036D01*
X47963Y6347D01*
X47890Y6311D01*
X47781Y6274D01*
X47563Y6165D01*
X47307Y6055D01*
X46943Y5873D01*
X45886Y5326D01*
X45230D01*
X45047Y5363D01*
X44829Y5399D01*
X44756D01*
X44792Y5436D01*
X44865Y5472D01*
X45047Y5545D01*
X45084Y5582D01*
X45266Y5655D01*
X45485Y5764D01*
X45776Y5873D01*
X46870Y6420D01*
X47963D01*
X48000Y6384D01*
D02*
G37*
G36*
X50369D02*
X50406D01*
X50333Y6347D01*
X50260Y6311D01*
X50114Y6238D01*
X49932Y6165D01*
X49640Y6019D01*
X49276Y5837D01*
X48073Y5290D01*
X47563D01*
X47380Y5326D01*
X47016D01*
X47089Y5363D01*
X47161Y5399D01*
X47271Y5472D01*
X47453Y5545D01*
X47708Y5691D01*
X48073Y5873D01*
X49239Y6420D01*
X50333D01*
X50369Y6384D01*
D02*
G37*
%LPC*%
G36*
X31889Y13382D02*
X31852Y13345D01*
X31816Y13236D01*
X31707Y13017D01*
X31670Y12945D01*
X31597Y12799D01*
X31488Y12580D01*
X31342Y12288D01*
X31306Y12216D01*
X31269Y12106D01*
X31196Y11997D01*
X31160Y11924D01*
X31707D01*
X32254Y11997D01*
X32217Y12070D01*
Y12106D01*
X32181Y12143D01*
X32144Y12361D01*
Y12398D01*
Y12471D01*
X32108Y12689D01*
Y12726D01*
X32071Y12799D01*
X31998Y13054D01*
X31925Y13273D01*
X31889Y13345D01*
Y13382D01*
D02*
G37*
G36*
X27624Y13601D02*
X26640D01*
X26604Y13163D01*
Y13127D01*
Y13090D01*
X26567Y12908D01*
X26531Y12762D01*
Y12689D01*
Y12653D01*
X26604D01*
X26750Y12616D01*
X27260D01*
X27406Y12653D01*
X27479D01*
X27515Y12689D01*
X27551Y12762D01*
X27624Y12908D01*
Y13017D01*
X27661Y13163D01*
Y13200D01*
Y13236D01*
X27697Y13382D01*
X27661Y13528D01*
X27624Y13601D01*
D02*
G37*
G36*
X23943Y13528D02*
X23433D01*
X23032Y12908D01*
Y12871D01*
X22959Y12835D01*
X22849Y12653D01*
X22740Y12471D01*
X22667Y12434D01*
Y12398D01*
X22631Y12471D01*
X22558Y12616D01*
X22485Y12726D01*
X22412Y12908D01*
X22120Y13528D01*
X21027D01*
Y13455D01*
X21063Y13418D01*
Y13345D01*
X21136Y13236D01*
X21209Y13090D01*
X21282Y12871D01*
X21428Y12616D01*
X21829Y11851D01*
X21719Y11304D01*
Y11268D01*
Y11231D01*
Y11049D01*
X21683Y10867D01*
Y10830D01*
Y10794D01*
X22594D01*
X22667Y11304D01*
X22740Y11778D01*
X23287Y12580D01*
X23323Y12616D01*
X23360Y12689D01*
X23542Y12945D01*
X23578Y12981D01*
X23615Y13054D01*
X23688Y13163D01*
X23761Y13273D01*
Y13309D01*
X23797Y13345D01*
X23833Y13382D01*
X23870Y13418D01*
X23943Y13528D01*
D02*
G37*
G36*
X23323Y11304D02*
X23141D01*
X23104Y11268D01*
X23068Y11231D01*
X22995Y11122D01*
X22959Y11013D01*
Y10976D01*
X22995Y10940D01*
X23032Y10867D01*
X23104Y10794D01*
X23214D01*
X23323Y10867D01*
X23433Y11013D01*
Y11049D01*
X23469Y11122D01*
X23433Y11231D01*
X23323Y11304D01*
D02*
G37*
G36*
X20079Y13528D02*
X19168D01*
X19131Y13491D01*
X19095D01*
Y13455D01*
Y13418D01*
Y13309D01*
X19059Y13127D01*
X19022Y12908D01*
X18986Y12543D01*
X18949Y12106D01*
Y12033D01*
X18913Y11887D01*
Y11705D01*
X18876Y11450D01*
X18840Y11195D01*
Y11013D01*
X18803Y10867D01*
Y10794D01*
X20881D01*
Y10940D01*
Y10976D01*
X20918Y11049D01*
Y11158D01*
Y11195D01*
Y11231D01*
X19788D01*
Y11268D01*
Y11341D01*
Y11486D01*
X19824Y11705D01*
X19861Y11997D01*
X19897Y12398D01*
X19970Y12871D01*
X20079Y13455D01*
Y13528D01*
D02*
G37*
G36*
X18220D02*
X16762D01*
X16580Y13491D01*
X16398D01*
X16288Y13455D01*
X16216Y13418D01*
X16179Y13382D01*
X16070Y13345D01*
X15997Y13200D01*
X15924Y13017D01*
Y12981D01*
X15887Y12908D01*
X15851Y12726D01*
X15814Y12543D01*
X15778Y12288D01*
X15742Y11997D01*
X15705Y11341D01*
Y11304D01*
Y11195D01*
Y11158D01*
X15778Y11049D01*
X15851Y10940D01*
X15960Y10867D01*
X15997D01*
X16070Y10830D01*
X16252D01*
X16434Y10794D01*
X17418D01*
X17746Y10830D01*
X17892D01*
X17965Y10867D01*
X18001Y10903D01*
X18111Y10976D01*
X18257Y11158D01*
X18366Y11413D01*
Y11450D01*
Y11523D01*
X18403Y11632D01*
Y11742D01*
X18439Y11924D01*
X18475Y12143D01*
Y12179D01*
Y12288D01*
X18512Y12434D01*
Y12616D01*
Y13017D01*
Y13163D01*
X18475Y13273D01*
Y13309D01*
X18439Y13345D01*
X18366Y13418D01*
X18257Y13455D01*
X18220Y13528D01*
D02*
G37*
G36*
X14648D02*
X13154D01*
X13008Y13491D01*
X12971D01*
Y13455D01*
Y13418D01*
X12935Y13309D01*
Y13127D01*
X12899Y12908D01*
X12862Y12543D01*
X12789Y12106D01*
Y12033D01*
X12753Y11887D01*
X12716Y11705D01*
Y11450D01*
X12680Y11195D01*
X12643Y11013D01*
X12607Y10867D01*
Y10794D01*
X13555D01*
Y10867D01*
Y10940D01*
Y11085D01*
X13591Y11304D01*
Y11341D01*
Y11377D01*
X13627Y11523D01*
Y11705D01*
Y11742D01*
Y11778D01*
X14940D01*
X14976Y11814D01*
X15086Y11887D01*
X15231Y11997D01*
X15304Y12179D01*
X15341Y12288D01*
X15377Y12361D01*
Y12471D01*
X15414Y12653D01*
Y12871D01*
Y12908D01*
Y13017D01*
Y13163D01*
Y13273D01*
X15377Y13309D01*
X15341Y13345D01*
X15231Y13418D01*
X15122Y13455D01*
X15086D01*
X15049Y13491D01*
X14830D01*
X14648Y13528D01*
D02*
G37*
G36*
X10311D02*
X9363D01*
X9181Y12179D01*
Y12106D01*
X9144Y11960D01*
Y11778D01*
X9108Y11523D01*
X9071Y11268D01*
Y11049D01*
X9035Y10867D01*
Y10794D01*
X11076D01*
X11149Y10940D01*
Y10976D01*
Y11085D01*
Y11122D01*
Y11158D01*
Y11195D01*
Y11231D01*
X10019D01*
Y11268D01*
Y11341D01*
Y11486D01*
X10055Y11705D01*
X10092Y12033D01*
X10128Y12398D01*
X10201Y12871D01*
X10311Y13455D01*
Y13528D01*
D02*
G37*
G36*
X8051D02*
X7103D01*
Y13455D01*
Y13418D01*
X7067Y13382D01*
X6994Y13273D01*
X6884Y13127D01*
X6739Y12871D01*
X6556Y12580D01*
X6301Y12143D01*
X6265Y12070D01*
X6192Y11924D01*
X6082Y11705D01*
X5937Y11486D01*
X5791Y11231D01*
X5681Y11013D01*
X5609Y10867D01*
X5572Y10794D01*
X6010D01*
X6228Y11158D01*
X6410Y11559D01*
X7540D01*
X7650Y11158D01*
X7723Y10794D01*
X8780D01*
Y10830D01*
Y10867D01*
X8743Y10976D01*
X8707Y11122D01*
X8634Y11377D01*
X8524Y11705D01*
X8415Y12143D01*
Y12215D01*
X8342Y12361D01*
X8306Y12580D01*
X8233Y12835D01*
X8160Y13090D01*
X8124Y13309D01*
X8051Y13455D01*
Y13528D01*
D02*
G37*
G36*
X5463D02*
X4260D01*
X3968Y13491D01*
X3859D01*
X3786Y13455D01*
X3750D01*
X3677Y13418D01*
X3604Y13309D01*
X3494Y13163D01*
Y13127D01*
X3458Y13090D01*
Y12981D01*
X3421Y12871D01*
X3385Y12689D01*
X3349Y12471D01*
X3312Y12179D01*
Y12143D01*
X3276Y12033D01*
Y11887D01*
X3239Y11705D01*
Y11304D01*
Y11158D01*
X3276Y11085D01*
Y11049D01*
X3312Y10976D01*
X3421Y10903D01*
X3567Y10794D01*
X5280D01*
Y10830D01*
Y10867D01*
Y10976D01*
Y11013D01*
X5317Y11085D01*
Y11195D01*
Y11231D01*
X4260D01*
X4187Y11304D01*
Y11341D01*
X4151D01*
Y11377D01*
Y11486D01*
X4187Y11596D01*
Y11742D01*
Y11924D01*
X4223Y12179D01*
Y12215D01*
X4260Y12288D01*
Y12434D01*
X4296Y12580D01*
Y12726D01*
X4333Y12871D01*
Y12945D01*
Y12981D01*
Y13017D01*
X4406Y13054D01*
X5463D01*
X5499Y13090D01*
X5536D01*
Y13127D01*
Y13200D01*
Y13273D01*
Y13309D01*
X5572Y13382D01*
Y13455D01*
Y13491D01*
X5536D01*
X5463Y13528D01*
D02*
G37*
%LPD*%
G36*
X23323Y11231D02*
X23360Y11195D01*
X23396Y11158D01*
Y11085D01*
Y11049D01*
X23323Y10940D01*
X23287Y10903D01*
X23104Y10867D01*
X23068Y10903D01*
X23032Y10976D01*
X22995Y11049D01*
Y11085D01*
X23032Y11122D01*
X23068Y11195D01*
X23177Y11231D01*
X23214Y11268D01*
X23287D01*
X23323Y11231D01*
D02*
G37*
%LPC*%
G36*
X23287Y11195D02*
X23177D01*
X23141Y11122D01*
X23104Y11049D01*
Y11013D01*
Y10976D01*
Y10940D01*
X23141D01*
Y10976D01*
Y11049D01*
Y11085D01*
X23177D01*
X23214Y11013D01*
X23250Y10976D01*
Y10940D01*
X23287D01*
Y11013D01*
Y11049D01*
X23323Y11085D01*
Y11122D01*
X23287Y11158D01*
Y11195D01*
D02*
G37*
%LPD*%
G36*
X23250Y11122D02*
X23214Y11085D01*
X23177D01*
Y11158D01*
X23250D01*
Y11122D01*
D02*
G37*
G36*
X17601Y13017D02*
X17637Y12945D01*
Y12908D01*
Y12835D01*
X17601Y12726D01*
Y12580D01*
X17564Y12361D01*
X17528Y12106D01*
Y12070D01*
Y11997D01*
X17491Y11851D01*
X17455Y11705D01*
X17418Y11450D01*
X17382Y11341D01*
Y11304D01*
X17345Y11268D01*
X17309D01*
X17200Y11231D01*
X16689D01*
Y11268D01*
X16653Y11304D01*
Y11377D01*
Y11486D01*
Y11632D01*
Y11851D01*
X16689Y12143D01*
Y12179D01*
X16726Y12252D01*
Y12398D01*
X16762Y12543D01*
X16799Y12835D01*
Y12908D01*
Y12981D01*
X16835Y13017D01*
X16944Y13054D01*
X17564D01*
X17601Y13017D01*
D02*
G37*
G36*
X14466D02*
Y12981D01*
Y12945D01*
Y12835D01*
X14429Y12653D01*
Y12616D01*
Y12471D01*
Y12361D01*
X14393Y12288D01*
Y12215D01*
X14320Y12179D01*
X13737D01*
Y12215D01*
Y12252D01*
Y12288D01*
Y12434D01*
X13773Y12653D01*
Y12726D01*
X13810Y12835D01*
Y12981D01*
X13846Y13054D01*
X14466D01*
Y13017D01*
D02*
G37*
G36*
X7212Y12835D02*
X7249Y12689D01*
X7285Y12580D01*
X7322Y12434D01*
X7358Y12361D01*
X7395Y12215D01*
X7431Y12033D01*
Y11997D01*
Y11960D01*
X7285D01*
X7067Y11997D01*
X6702D01*
X6957Y12434D01*
Y12471D01*
X6994Y12507D01*
X7103Y12653D01*
X7176Y12799D01*
X7212Y12871D01*
Y12835D01*
D02*
G37*
%LPC*%
G36*
X45631Y9227D02*
X45448D01*
X45375Y9190D01*
X45303Y9117D01*
X45266Y9081D01*
X45193Y8971D01*
X45157Y8826D01*
Y8716D01*
X45193Y8607D01*
X45230Y8570D01*
X45303Y8498D01*
X45375Y8388D01*
X45412Y8352D01*
X45448Y8315D01*
X45485Y8206D01*
X45521Y8133D01*
Y8097D01*
Y8060D01*
X45448Y7987D01*
X45375Y7951D01*
X45266D01*
Y7987D01*
X45230Y8097D01*
Y8133D01*
X45047D01*
Y8097D01*
Y8024D01*
X45084Y7987D01*
Y7914D01*
X45120Y7841D01*
X45230Y7769D01*
X45303Y7732D01*
X45412D01*
X45521Y7769D01*
X45631Y7841D01*
X45667Y7878D01*
X45704Y7951D01*
X45740Y8060D01*
Y8206D01*
Y8242D01*
X45704Y8315D01*
X45667Y8425D01*
X45558Y8534D01*
X45521Y8570D01*
X45485Y8643D01*
X45412Y8753D01*
X45375Y8826D01*
Y8862D01*
Y8935D01*
X45412Y9008D01*
X45485Y9044D01*
X45558D01*
X45594Y9008D01*
X45631Y8899D01*
X45813D01*
Y8935D01*
Y8971D01*
Y9008D01*
X45776Y9117D01*
X45740Y9154D01*
X45667Y9190D01*
X45631Y9227D01*
D02*
G37*
G36*
X37648D02*
X37502D01*
X37393Y9190D01*
X37320Y9117D01*
X37284Y9081D01*
X37211Y8971D01*
X37174Y8826D01*
X37211Y8716D01*
X37247Y8607D01*
X37284Y8570D01*
X37429Y8388D01*
X37466Y8352D01*
X37502Y8315D01*
X37539Y8206D01*
X37575Y8133D01*
Y8097D01*
Y8060D01*
X37539Y7987D01*
X37466Y7951D01*
X37320D01*
Y7987D01*
X37247Y8097D01*
Y8133D01*
X37065D01*
Y8097D01*
Y8024D01*
X37101Y7987D01*
Y7914D01*
X37138Y7841D01*
X37284Y7769D01*
X37356Y7732D01*
X37429D01*
X37539Y7769D01*
X37648Y7841D01*
X37685Y7878D01*
X37721Y7951D01*
X37757Y8060D01*
X37794Y8206D01*
Y8242D01*
X37757Y8315D01*
X37685Y8425D01*
X37575Y8534D01*
X37539Y8570D01*
X37502Y8643D01*
X37466Y8753D01*
X37429Y8826D01*
Y8862D01*
Y8935D01*
X37466Y9008D01*
X37502Y9044D01*
X37575D01*
X37612Y9008D01*
X37648Y8899D01*
X37867D01*
X37903Y8935D01*
Y8971D01*
Y9008D01*
X37867Y9044D01*
X37794Y9117D01*
X37757Y9154D01*
X37685Y9190D01*
X37648Y9227D01*
D02*
G37*
G36*
X26166Y9227D02*
X25984D01*
X25911Y9190D01*
X25875Y9154D01*
X25802Y9117D01*
X25692Y8971D01*
X25656Y8789D01*
Y8753D01*
X25692Y8680D01*
X25765Y8570D01*
X25911Y8388D01*
X25948Y8315D01*
X26057Y8242D01*
Y8169D01*
Y8060D01*
X26021Y8024D01*
X25984Y7987D01*
X25911Y7951D01*
X25875D01*
X25838Y7987D01*
X25802Y8024D01*
X25765Y8097D01*
Y8133D01*
X25547D01*
Y8060D01*
Y8024D01*
X25583Y7951D01*
X25656Y7841D01*
X25765Y7769D01*
X25948D01*
X26057Y7805D01*
X26166Y7878D01*
X26239Y8060D01*
Y8097D01*
Y8206D01*
X26166Y8352D01*
X26057Y8534D01*
X26021Y8570D01*
X25984Y8607D01*
X25948Y8716D01*
X25911Y8789D01*
Y8826D01*
Y8935D01*
X25948Y9008D01*
X26057Y9044D01*
X26093D01*
X26130Y9008D01*
Y8935D01*
Y8899D01*
X26349D01*
Y8935D01*
Y8971D01*
Y9044D01*
X26312Y9117D01*
X26239Y9190D01*
X26166Y9227D01*
D02*
G37*
G36*
X30139D02*
X29921D01*
Y9190D01*
Y9117D01*
X29884Y9008D01*
Y8899D01*
X29848Y8570D01*
Y8242D01*
X29811Y8315D01*
X29775Y8461D01*
X29738Y8570D01*
Y8753D01*
X29629Y9227D01*
X29410D01*
X29374Y9190D01*
Y9117D01*
Y9044D01*
X29337Y8899D01*
Y8753D01*
X29301Y8534D01*
Y8497D01*
Y8425D01*
X29265Y8206D01*
X29228Y7951D01*
Y7878D01*
Y7805D01*
Y7769D01*
X29447D01*
Y7805D01*
Y7878D01*
Y8024D01*
X29483Y8242D01*
Y8279D01*
Y8315D01*
X29520Y8461D01*
X29556Y8607D01*
Y8643D01*
X29593Y8497D01*
Y8388D01*
X29629Y8242D01*
X29738Y7769D01*
X29994D01*
Y7878D01*
X30030Y7951D01*
Y8097D01*
Y8279D01*
X30066Y8497D01*
Y8534D01*
Y8607D01*
X30103Y8826D01*
X30139Y9044D01*
Y9154D01*
Y9190D01*
Y9227D01*
D02*
G37*
G36*
X34696Y9227D02*
X34550D01*
X34513Y9190D01*
Y9117D01*
Y9044D01*
X34477Y8935D01*
Y8789D01*
X34440Y8607D01*
Y8570D01*
Y8534D01*
X34404Y8352D01*
X34368Y8133D01*
Y8097D01*
Y8060D01*
X34331Y8024D01*
X34295Y7987D01*
X34222Y7951D01*
X34185D01*
X34112Y7987D01*
Y8024D01*
Y8060D01*
Y8133D01*
Y8206D01*
Y8315D01*
X34149Y8461D01*
Y8643D01*
Y8680D01*
Y8716D01*
X34185Y8935D01*
X34222Y9117D01*
Y9154D01*
Y9190D01*
Y9227D01*
X34003D01*
Y9190D01*
Y9154D01*
X33967Y9044D01*
Y8935D01*
X33930Y8534D01*
Y8060D01*
Y8024D01*
X33967Y7914D01*
X34003Y7841D01*
X34112Y7769D01*
X34149D01*
X34185Y7732D01*
X34258Y7769D01*
X34368Y7805D01*
X34404D01*
X34440Y7841D01*
X34513Y7914D01*
X34550Y7987D01*
Y8024D01*
Y8097D01*
X34586Y8279D01*
X34623Y8425D01*
X34659Y8607D01*
Y8643D01*
Y8716D01*
X34696Y8899D01*
Y9117D01*
Y9154D01*
Y9190D01*
Y9227D01*
D02*
G37*
G36*
X49203Y9190D02*
X48984D01*
X48911Y9117D01*
X48838Y9044D01*
X48765Y8935D01*
Y8862D01*
Y8716D01*
X48729Y8570D01*
Y8425D01*
Y8352D01*
Y8206D01*
X48692Y8024D01*
Y7987D01*
Y7951D01*
Y7914D01*
X48765Y7841D01*
X48838Y7769D01*
X49093D01*
X49203Y7841D01*
X49239Y7878D01*
X49276Y7951D01*
X49312Y8133D01*
X49385Y8388D01*
Y8425D01*
Y8461D01*
X49421Y8680D01*
Y8899D01*
Y8971D01*
Y9044D01*
Y9081D01*
X49349Y9117D01*
X49276Y9154D01*
X49203Y9190D01*
D02*
G37*
G36*
X47453Y9227D02*
X47016D01*
X46943Y8534D01*
Y8498D01*
Y8425D01*
X46906Y8169D01*
X46870Y7951D01*
Y7841D01*
Y7805D01*
Y7769D01*
X47052D01*
Y7805D01*
Y7878D01*
X47089Y8060D01*
Y8279D01*
X47307D01*
X47417Y8315D01*
X47490Y8388D01*
X47526Y8425D01*
X47563Y8498D01*
X47599Y8607D01*
X47635Y8753D01*
Y8789D01*
Y8826D01*
Y8971D01*
Y9008D01*
X47599Y9044D01*
X47563Y9154D01*
X47453Y9227D01*
D02*
G37*
G36*
X44063D02*
X43808D01*
Y9117D01*
Y9044D01*
Y8899D01*
X43772Y8716D01*
Y8498D01*
Y8461D01*
Y8388D01*
X43735Y8133D01*
X43699Y7914D01*
X43662Y7805D01*
Y7769D01*
X43845D01*
Y7805D01*
Y7841D01*
X43881Y7914D01*
Y7951D01*
X43918Y8024D01*
Y8133D01*
Y8279D01*
Y8315D01*
X43954Y8425D01*
Y8680D01*
Y8716D01*
X43990Y8826D01*
Y9044D01*
Y9081D01*
Y9117D01*
Y9154D01*
Y9190D01*
X44063Y9227D01*
D02*
G37*
G36*
X42387D02*
X41986D01*
X41949Y9190D01*
Y9117D01*
X41913Y9008D01*
Y8899D01*
X41876Y8716D01*
X41840Y8498D01*
Y8461D01*
Y8388D01*
Y8133D01*
X41803Y7914D01*
Y7805D01*
Y7769D01*
X42241D01*
X42277Y7805D01*
X42350D01*
X42387Y7841D01*
X42459Y7914D01*
Y7951D01*
X42496Y8024D01*
X42569Y8242D01*
Y8279D01*
Y8315D01*
X42532Y8388D01*
Y8425D01*
X42496Y8461D01*
X42459Y8498D01*
X42423D01*
Y8534D01*
X42459D01*
X42532Y8607D01*
X42569Y8643D01*
X42605Y8753D01*
Y8899D01*
X42532Y9117D01*
X42496Y9154D01*
X42423Y9190D01*
X42387Y9227D01*
D02*
G37*
G36*
X36081D02*
X35899D01*
Y9117D01*
X35862Y9044D01*
Y8899D01*
X35826Y8716D01*
X35789Y8498D01*
Y8461D01*
Y8388D01*
X35753Y8133D01*
X35716Y7914D01*
X35680Y7805D01*
Y7769D01*
X35899D01*
Y7805D01*
Y7841D01*
Y7914D01*
Y7951D01*
X35935Y8024D01*
Y8133D01*
Y8279D01*
Y8315D01*
X35971Y8425D01*
X36008Y8680D01*
Y8716D01*
X36044Y8826D01*
Y9044D01*
Y9081D01*
X36081Y9117D01*
Y9154D01*
Y9190D01*
Y9227D01*
D02*
G37*
G36*
X32545D02*
X32326D01*
Y9190D01*
Y9117D01*
X32290Y8899D01*
Y8716D01*
X32254Y8534D01*
Y8498D01*
Y8425D01*
X32217Y8206D01*
X32181Y7951D01*
Y7878D01*
Y7805D01*
X32144Y7769D01*
X32727D01*
Y7841D01*
X32764D01*
X32800Y7878D01*
Y7914D01*
Y7951D01*
Y7987D01*
X32399D01*
Y8024D01*
Y8097D01*
X32436Y8279D01*
X32472Y8425D01*
X32509Y8607D01*
Y8643D01*
Y8680D01*
X32545Y8862D01*
Y9044D01*
Y9190D01*
Y9227D01*
D02*
G37*
G36*
X28025Y9227D02*
X27734D01*
Y9154D01*
X27697Y9081D01*
Y8971D01*
X27624Y8753D01*
X27551Y8534D01*
X27479Y8206D01*
X27333Y7805D01*
X27406Y7769D01*
X27515D01*
Y7805D01*
Y7841D01*
X27551Y7914D01*
X27588Y7987D01*
X27624Y8097D01*
X27880D01*
Y8060D01*
Y7987D01*
Y7841D01*
Y7769D01*
X28062D01*
Y7805D01*
Y7878D01*
Y7951D01*
Y8060D01*
X28025Y8206D01*
Y8425D01*
Y8461D01*
Y8534D01*
Y8753D01*
Y9008D01*
Y9117D01*
Y9190D01*
Y9227D01*
D02*
G37*
G36*
X40564Y9227D02*
X40418D01*
X40309Y9190D01*
X40200Y9117D01*
X40127Y8971D01*
X40090Y8899D01*
X40054Y8753D01*
X40017Y8643D01*
Y8498D01*
Y8425D01*
Y8279D01*
X39981Y8097D01*
Y7987D01*
Y7951D01*
X40017Y7914D01*
X40090Y7841D01*
X40163Y7769D01*
X40236D01*
X40382Y7732D01*
X40528Y7805D01*
X40600Y7878D01*
X40673Y7987D01*
Y8024D01*
Y8097D01*
Y8242D01*
X40710Y8498D01*
Y8534D01*
Y8570D01*
X40746Y8716D01*
Y8899D01*
Y8935D01*
Y8971D01*
Y9008D01*
X40710Y9044D01*
X40673Y9154D01*
X40564Y9227D01*
D02*
G37*
%LPD*%
G36*
X49239Y8971D02*
Y8899D01*
Y8826D01*
X49203Y8680D01*
X49166Y8461D01*
Y8425D01*
Y8388D01*
X49130Y8206D01*
X49093Y8060D01*
Y7987D01*
X49057Y7951D01*
X49020D01*
X48875Y7987D01*
Y8060D01*
Y8097D01*
Y8169D01*
Y8279D01*
Y8425D01*
X48911Y8716D01*
X48948Y8862D01*
X48984Y8935D01*
X49020Y8971D01*
Y9008D01*
X49057Y9044D01*
X49203D01*
X49239Y8971D01*
D02*
G37*
G36*
X47453Y8935D02*
Y8862D01*
Y8753D01*
Y8716D01*
X47417Y8643D01*
X47380Y8570D01*
X47271Y8534D01*
X47161D01*
Y8570D01*
Y8680D01*
X47198Y8971D01*
X47417D01*
X47453Y8935D01*
D02*
G37*
G36*
X42314D02*
X42350D01*
X42387Y8899D01*
Y8826D01*
Y8789D01*
Y8753D01*
X42350Y8680D01*
X42277Y8643D01*
X42241D01*
X42168Y8607D01*
X42095D01*
Y8680D01*
Y8789D01*
X42131Y8971D01*
X42277D01*
X42314Y8935D01*
D02*
G37*
G36*
X42277Y8425D02*
X42350Y8352D01*
Y8315D01*
Y8242D01*
Y8133D01*
X42277Y8060D01*
X42204Y8024D01*
X42095Y7987D01*
X42022D01*
Y8024D01*
Y8060D01*
Y8206D01*
Y8242D01*
X42059Y8279D01*
X42095Y8352D01*
Y8388D01*
Y8425D01*
X42131Y8461D01*
X42204D01*
X42277Y8425D01*
D02*
G37*
G36*
X27880Y8826D02*
Y8716D01*
Y8534D01*
Y8279D01*
X27661D01*
Y8315D01*
X27697Y8388D01*
X27734Y8570D01*
Y8607D01*
X27770Y8716D01*
X27807Y8826D01*
X27843Y8862D01*
X27880Y8826D01*
D02*
G37*
G36*
X40528Y8971D02*
Y8935D01*
Y8899D01*
Y8753D01*
Y8643D01*
X40491Y8498D01*
Y8425D01*
X40455Y8279D01*
Y8133D01*
X40418Y8097D01*
Y8060D01*
Y8024D01*
X40382Y7987D01*
X40309Y7951D01*
X40236D01*
X40200Y7987D01*
Y8024D01*
Y8060D01*
Y8206D01*
Y8461D01*
Y8498D01*
Y8534D01*
X40236Y8680D01*
X40273Y8826D01*
Y8899D01*
X40309Y8935D01*
X40382Y9008D01*
X40491D01*
X40528Y8971D01*
D02*
G37*
D10*
X751243Y24409D02*
G03*
X751243Y24409I-394J0D01*
G01*
X671457D02*
G03*
X671457Y24409I-394J0D01*
G01*
X591918D02*
G03*
X591918Y24409I-394J0D01*
G01*
X432677Y24902D02*
G03*
X432677Y24902I-394J0D01*
G01*
X352953Y24544D02*
G03*
X352953Y24544I-394J0D01*
G01*
X272835D02*
G03*
X272835Y24544I-394J0D01*
G01*
X152819Y59005D02*
X156756D01*
Y56250D02*
Y59005D01*
X152819Y47194D02*
X156756D01*
Y49950D01*
X35901Y27957D02*
X48499D01*
X35901Y47642D02*
X48499D01*
Y27957D02*
Y47642D01*
X35901Y27957D02*
Y47642D01*
X161656Y22794D02*
Y25550D01*
X157719Y22794D02*
X161656D01*
Y31850D02*
Y34606D01*
X157719D02*
X161656D01*
X87150Y59256D02*
X89906D01*
Y55319D02*
Y59256D01*
X78095D02*
X80850D01*
X78095Y55319D02*
Y59256D01*
X407744Y38780D02*
Y41929D01*
X409318D01*
X409843Y41404D01*
Y40354D01*
X409318Y39830D01*
X407744D01*
X408793D02*
X409843Y38780D01*
X412992D02*
X410893D01*
X412992Y40879D01*
Y41404D01*
X412467Y41929D01*
X411417D01*
X410893Y41404D01*
X414041Y38780D02*
X415091D01*
X414566D01*
Y41929D01*
X414041Y41404D01*
X407219Y44686D02*
Y47834D01*
X408793D01*
X409318Y47309D01*
Y46260D01*
X408793Y45735D01*
X407219D01*
X408269D02*
X409318Y44686D01*
X412467D02*
X410368D01*
X412467Y46785D01*
Y47309D01*
X411942Y47834D01*
X410893D01*
X410368Y47309D01*
X413516D02*
X414041Y47834D01*
X415091D01*
X415615Y47309D01*
Y45210D01*
X415091Y44686D01*
X414041D01*
X413516Y45210D01*
Y47309D01*
X327757Y37796D02*
Y40944D01*
X329331D01*
X329856Y40420D01*
Y39370D01*
X329331Y38845D01*
X327757D01*
X328807D02*
X329856Y37796D01*
X330906D02*
X331955D01*
X331431D01*
Y40944D01*
X330906Y40420D01*
X333530Y38321D02*
X334054Y37796D01*
X335104D01*
X335629Y38321D01*
Y40420D01*
X335104Y40944D01*
X334054D01*
X333530Y40420D01*
Y39895D01*
X334054Y39370D01*
X335629D01*
X327757Y44686D02*
Y47834D01*
X329331D01*
X329856Y47309D01*
Y46260D01*
X329331Y45735D01*
X327757D01*
X328807D02*
X329856Y44686D01*
X330906D02*
X331955D01*
X331431D01*
Y47834D01*
X330906Y47309D01*
X333530D02*
X334054Y47834D01*
X335104D01*
X335629Y47309D01*
Y46785D01*
X335104Y46260D01*
X335629Y45735D01*
Y45210D01*
X335104Y44686D01*
X334054D01*
X333530Y45210D01*
Y45735D01*
X334054Y46260D01*
X333530Y46785D01*
Y47309D01*
X334054Y46260D02*
X335104D01*
X247048Y38780D02*
Y41929D01*
X248623D01*
X249148Y41404D01*
Y40354D01*
X248623Y39830D01*
X247048D01*
X248098D02*
X249148Y38780D01*
X250197D02*
X251247D01*
X250722D01*
Y41929D01*
X250197Y41404D01*
X252821Y41929D02*
X254920D01*
Y41404D01*
X252821Y39305D01*
Y38780D01*
X247048Y44686D02*
Y47834D01*
X248623D01*
X249148Y47309D01*
Y46260D01*
X248623Y45735D01*
X247048D01*
X248098D02*
X249148Y44686D01*
X250197D02*
X251247D01*
X250722D01*
Y47834D01*
X250197Y47309D01*
X254920Y47834D02*
X253871Y47309D01*
X252821Y46260D01*
Y45210D01*
X253346Y44686D01*
X254395D01*
X254920Y45210D01*
Y45735D01*
X254395Y46260D01*
X252821D01*
X725395Y37796D02*
Y40944D01*
X726969D01*
X727494Y40420D01*
Y39370D01*
X726969Y38845D01*
X725395D01*
X726444D02*
X727494Y37796D01*
X728544D02*
X729593D01*
X729068D01*
Y40944D01*
X728544Y40420D01*
X733266Y40944D02*
X731167D01*
Y39370D01*
X732217Y39895D01*
X732742D01*
X733266Y39370D01*
Y38321D01*
X732742Y37796D01*
X731692D01*
X731167Y38321D01*
X725395Y44686D02*
Y47834D01*
X726969D01*
X727494Y47309D01*
Y46260D01*
X726969Y45735D01*
X725395D01*
X726444D02*
X727494Y44686D01*
X728544D02*
X729593D01*
X729068D01*
Y47834D01*
X728544Y47309D01*
X732742Y44686D02*
Y47834D01*
X731167Y46260D01*
X733266D01*
X646655Y38780D02*
Y41929D01*
X648229D01*
X648754Y41404D01*
Y40354D01*
X648229Y39830D01*
X646655D01*
X647704D02*
X648754Y38780D01*
X649803D02*
X650853D01*
X650328D01*
Y41929D01*
X649803Y41404D01*
X652427D02*
X652952Y41929D01*
X654002D01*
X654526Y41404D01*
Y40879D01*
X654002Y40354D01*
X653477D01*
X654002D01*
X654526Y39830D01*
Y39305D01*
X654002Y38780D01*
X652952D01*
X652427Y39305D01*
X566930Y37796D02*
Y40944D01*
X568505D01*
X569030Y40420D01*
Y39370D01*
X568505Y38845D01*
X566930D01*
X567980D02*
X569030Y37796D01*
X570079D02*
X571129D01*
X570604D01*
Y40944D01*
X570079Y40420D01*
X574802Y37796D02*
X572703D01*
X574802Y39895D01*
Y40420D01*
X574277Y40944D01*
X573228D01*
X572703Y40420D01*
X567455Y44686D02*
Y47834D01*
X569030D01*
X569554Y47309D01*
Y46260D01*
X569030Y45735D01*
X567455D01*
X568505D02*
X569554Y44686D01*
X570604D02*
X571653D01*
X571129D01*
Y47834D01*
X570604Y47309D01*
X573228Y44686D02*
X574277D01*
X573752D01*
Y47834D01*
X573228Y47309D01*
X646655Y44686D02*
Y47834D01*
X648229D01*
X648754Y47309D01*
Y46260D01*
X648229Y45735D01*
X646655D01*
X647704D02*
X648754Y44686D01*
X649803D02*
X650853D01*
X650328D01*
Y47834D01*
X649803Y47309D01*
X652427D02*
X652952Y47834D01*
X654002D01*
X654526Y47309D01*
Y45210D01*
X654002Y44686D01*
X652952D01*
X652427Y45210D01*
Y47309D01*
X421917Y31495D02*
Y27560D01*
X423885D01*
X424541Y28216D01*
Y30839D01*
X423885Y31495D01*
X421917D01*
X428477D02*
X427165Y30839D01*
X425853Y29528D01*
Y28216D01*
X426509Y27560D01*
X427821D01*
X428477Y28216D01*
Y28872D01*
X427821Y29528D01*
X425853D01*
X341208Y31495D02*
Y27560D01*
X343176D01*
X343832Y28216D01*
Y30839D01*
X343176Y31495D01*
X341208D01*
X347768D02*
X345144D01*
Y29528D01*
X346456Y30184D01*
X347112D01*
X347768Y29528D01*
Y28216D01*
X347112Y27560D01*
X345800D01*
X345144Y28216D01*
X261484Y31495D02*
Y27560D01*
X263452D01*
X264108Y28216D01*
Y30839D01*
X263452Y31495D01*
X261484D01*
X267388Y27560D02*
Y31495D01*
X265420Y29528D01*
X268044D01*
X740815Y28543D02*
Y24607D01*
X742783D01*
X743438Y25263D01*
Y27887D01*
X742783Y28543D01*
X740815D01*
X744750Y27887D02*
X745406Y28543D01*
X746718D01*
X747374Y27887D01*
Y27231D01*
X746718Y26575D01*
X746062D01*
X746718D01*
X747374Y25919D01*
Y25263D01*
X746718Y24607D01*
X745406D01*
X744750Y25263D01*
X660106Y28543D02*
Y24607D01*
X662074D01*
X662730Y25263D01*
Y27887D01*
X662074Y28543D01*
X660106D01*
X666666Y24607D02*
X664042D01*
X666666Y27231D01*
Y27887D01*
X666010Y28543D01*
X664698D01*
X664042Y27887D01*
X582022Y28543D02*
Y24607D01*
X583990D01*
X584646Y25263D01*
Y27887D01*
X583990Y28543D01*
X582022D01*
X585958Y24607D02*
X587269D01*
X586614D01*
Y28543D01*
X585958Y27887D01*
D11*
X150555Y60580D02*
G03*
X150555Y60580I-492J0D01*
G01*
X31964Y48647D02*
G03*
X31964Y48647I-492J0D01*
G01*
X155455Y36180D02*
G03*
X155455Y36180I-492J0D01*
G01*
X77012Y52563D02*
G03*
X77012Y52563I-492J0D01*
G01*
D12*
X41019Y43705D02*
G03*
X41019Y43705I-1181J0D01*
G01*
D13*
X769038Y28543D02*
Y48228D01*
X748802Y28543D02*
Y48228D01*
X689252Y28543D02*
Y48228D01*
X669016Y28543D02*
Y48228D01*
X609714Y28543D02*
Y48228D01*
X589477Y28543D02*
Y48228D01*
X430236Y29036D02*
Y48721D01*
X450472Y29036D02*
Y48721D01*
X350512Y28678D02*
Y48363D01*
X370748Y28678D02*
Y48363D01*
X290630Y28678D02*
Y48363D01*
X270394Y28678D02*
Y48363D01*
D14*
X417323Y43110D02*
X428740D01*
Y42354D02*
Y43110D01*
X417323Y42354D02*
Y43110D01*
Y37598D02*
X428740D01*
X417323D02*
Y38354D01*
X423032Y37598D02*
Y43110D01*
X428740Y37598D02*
Y38354D01*
X417323Y49214D02*
X428740D01*
Y48458D02*
Y49214D01*
X417323Y48458D02*
Y49214D01*
Y43702D02*
X428740D01*
X417323D02*
Y44458D01*
X423032Y43702D02*
Y49214D01*
X428740Y43702D02*
Y44458D01*
X268504Y37598D02*
Y38354D01*
X262795Y37598D02*
Y43110D01*
X257087Y37598D02*
Y38354D01*
Y37598D02*
X268504D01*
X257087Y42354D02*
Y43110D01*
X268504Y42354D02*
Y43110D01*
X257087D02*
X268504D01*
X268504Y43702D02*
Y44458D01*
X262795Y43702D02*
Y49214D01*
X257087Y43702D02*
Y44458D01*
Y43702D02*
X268504D01*
X257087Y48458D02*
Y49214D01*
X268504Y48458D02*
Y49214D01*
X257087D02*
X268504D01*
X337402Y43110D02*
X348819D01*
Y42354D02*
Y43110D01*
X337402Y42354D02*
Y43110D01*
Y37598D02*
X348819D01*
X337402D02*
Y38354D01*
X343110Y37598D02*
Y43110D01*
X348819Y37598D02*
Y38354D01*
Y43702D02*
Y44458D01*
X343110Y43702D02*
Y49214D01*
X337402Y43702D02*
Y44458D01*
Y43702D02*
X348819D01*
X337402Y48458D02*
Y49214D01*
X348819Y48458D02*
Y49214D01*
X337402D02*
X348819D01*
X656496Y49079D02*
X667913D01*
Y48323D02*
Y49079D01*
X656496Y48323D02*
Y49079D01*
Y43567D02*
X667913D01*
X656496D02*
Y44323D01*
X662205Y43567D02*
Y49079D01*
X667913Y43567D02*
Y44323D01*
X656496Y42976D02*
X667913D01*
Y42220D02*
Y42976D01*
X656496Y42220D02*
Y42976D01*
Y37464D02*
X667913D01*
X656496D02*
Y38220D01*
X662205Y37464D02*
Y42976D01*
X667913Y37464D02*
Y38220D01*
X746912Y37464D02*
Y38220D01*
X741204Y37464D02*
Y42976D01*
X735495Y37464D02*
Y38220D01*
Y37464D02*
X746912D01*
X735495Y42220D02*
Y42976D01*
X746912Y42220D02*
Y42976D01*
X735495D02*
X746912D01*
Y43567D02*
Y44323D01*
X741204Y43567D02*
Y49079D01*
X735495Y43567D02*
Y44323D01*
Y43567D02*
X746912D01*
X735495Y48323D02*
Y49079D01*
X746912Y48323D02*
Y49079D01*
X735495D02*
X746912D01*
X588178Y37400D02*
Y38156D01*
X582470Y37400D02*
Y42912D01*
X576761Y37400D02*
Y38156D01*
Y37400D02*
X588178D01*
X576761Y42156D02*
Y42912D01*
X588178Y42156D02*
Y42912D01*
X576761D02*
X588178D01*
Y43504D02*
Y44260D01*
X582470Y43504D02*
Y49016D01*
X576761Y43504D02*
Y44260D01*
Y43504D02*
X588178D01*
X576761Y48260D02*
Y49016D01*
X588178Y48260D02*
Y49016D01*
X576761D02*
X588178D01*
X127656Y23391D02*
Y34809D01*
X126900Y23391D02*
X127656D01*
X126900Y34809D02*
X127656D01*
X122144Y23391D02*
Y34809D01*
X122900D01*
X122144Y29100D02*
X127656D01*
X122144Y23391D02*
X122900D01*
X72944Y22791D02*
X73700D01*
X72944Y28500D02*
X78456D01*
X72944Y34209D02*
X73700D01*
X72944Y22791D02*
Y34209D01*
X77700D02*
X78456D01*
X77700Y22791D02*
X78456D01*
Y34209D01*
X89200D02*
X89956D01*
X84444Y28500D02*
X89956D01*
X89200Y22791D02*
X89956D01*
Y34209D01*
X84444Y22791D02*
X85200D01*
X84444Y34209D02*
X85200D01*
X84444Y22791D02*
Y34209D01*
X102456Y22791D02*
Y34209D01*
X101700Y22791D02*
X102456D01*
X101700Y34209D02*
X102456D01*
X96944Y22791D02*
Y34209D01*
X97700D01*
X96944Y28500D02*
X102456D01*
X96944Y22791D02*
X97700D01*
X108944Y29193D02*
X114456D01*
X113275Y35098D02*
X114456D01*
Y23287D02*
Y35098D01*
X113275Y23287D02*
X114456D01*
X108944Y35098D02*
X110125D01*
X108944Y23287D02*
X110125D01*
X108944D02*
Y35098D01*
X58144Y19545D02*
Y31356D01*
Y19545D02*
X59325D01*
X58144Y31356D02*
X59325D01*
X62475Y19545D02*
X63656D01*
Y31356D01*
X62475D02*
X63656D01*
X58144Y25450D02*
X63656D01*
X124000Y63059D02*
X124756D01*
X119244Y57350D02*
X124756D01*
X124000Y51642D02*
X124756D01*
Y63059D01*
X119244Y51642D02*
X120000D01*
X119244Y63059D02*
X120000D01*
X119244Y51642D02*
Y63059D01*
X100744Y52291D02*
X101500D01*
X100744Y58000D02*
X106256D01*
X100744Y63709D02*
X101500D01*
X100744Y52291D02*
Y63709D01*
X105500D02*
X106256D01*
X105500Y52291D02*
X106256D01*
Y63709D01*
X16744Y60291D02*
X17500D01*
X16744Y66000D02*
X22256D01*
X16744Y71709D02*
X17500D01*
X16744Y60291D02*
Y71709D01*
X21500D02*
X22256D01*
X21500Y60291D02*
X22256D01*
Y71709D01*
X56444Y61791D02*
Y73209D01*
X57200D01*
X56444Y61791D02*
X57200D01*
X61956D02*
Y73209D01*
X61200Y61791D02*
X61956D01*
X56444Y67500D02*
X61956D01*
X61200Y73209D02*
X61956D01*
X133955Y23138D02*
Y34555D01*
X134711D01*
X133955Y23138D02*
X134711D01*
X139467D02*
Y34555D01*
X138711Y23138D02*
X139467D01*
X133955Y28846D02*
X139467D01*
X138711Y34555D02*
X139467D01*
X56350Y48044D02*
Y53556D01*
X50445Y52375D02*
Y53556D01*
X62256D01*
Y52375D02*
Y53556D01*
X50445Y48044D02*
Y49225D01*
X62256Y48044D02*
Y49225D01*
X50445Y48044D02*
X62256D01*
D15*
X69377Y21319D02*
Y48878D01*
X117605D01*
Y21319D02*
Y48878D01*
X69377Y21319D02*
X117605D01*
D16*
X120095Y15982D02*
Y12047D01*
X122062D01*
X122718Y12703D01*
Y15326D01*
X122062Y15982D01*
X120095D01*
X125998Y12047D02*
X124686D01*
X124030Y12703D01*
Y14015D01*
X124686Y14671D01*
X125998D01*
X126654Y14015D01*
Y13359D01*
X124030D01*
X127966Y12047D02*
X129934D01*
X130590Y12703D01*
X129934Y13359D01*
X128622D01*
X127966Y14015D01*
X128622Y14671D01*
X130590D01*
X131902Y12047D02*
X133214D01*
X132558D01*
Y14671D01*
X131902D01*
X136493Y10735D02*
X137149D01*
X137805Y11391D01*
Y14671D01*
X135837D01*
X135181Y14015D01*
Y12703D01*
X135837Y12047D01*
X137805D01*
X139117D02*
Y14671D01*
X141085D01*
X141741Y14015D01*
Y12047D01*
X147645Y14671D02*
X148957D01*
X149612Y14015D01*
Y12047D01*
X147645D01*
X146989Y12703D01*
X147645Y13359D01*
X149612D01*
X150925Y12047D02*
Y14671D01*
X152892D01*
X153548Y14015D01*
Y12047D01*
X157484Y15982D02*
Y12047D01*
X155516D01*
X154860Y12703D01*
Y14015D01*
X155516Y14671D01*
X157484D01*
X162732Y15982D02*
Y12047D01*
X165356D01*
X167323Y14671D02*
X168635D01*
X169291Y14015D01*
Y12047D01*
X167323D01*
X166667Y12703D01*
X167323Y13359D01*
X169291D01*
X170603Y14671D02*
Y12703D01*
X171259Y12047D01*
X173227D01*
Y11391D01*
X172571Y10735D01*
X171915D01*
X173227Y12047D02*
Y14671D01*
X175195Y12047D02*
X176507D01*
X177163Y12703D01*
Y14015D01*
X176507Y14671D01*
X175195D01*
X174539Y14015D01*
Y12703D01*
X175195Y12047D01*
X178475Y14671D02*
Y12703D01*
X179131Y12047D01*
X181098D01*
Y14671D01*
X183066Y15326D02*
Y14671D01*
X182410D01*
X183722D01*
X183066D01*
Y12703D01*
X183722Y12047D01*
X189626Y15982D02*
Y12047D01*
X191594D01*
X192250Y12703D01*
Y13359D01*
Y14015D01*
X191594Y14671D01*
X189626D01*
X193562D02*
Y12703D01*
X194218Y12047D01*
X196185D01*
Y11391D01*
X195529Y10735D01*
X194873D01*
X196185Y12047D02*
Y14671D01*
X120095Y7548D02*
Y3612D01*
X122718D01*
X124030Y6236D02*
Y4268D01*
X124686Y3612D01*
X126654D01*
Y6236D01*
X127966Y3612D02*
Y7548D01*
Y4924D02*
X129934Y6236D01*
X127966Y4924D02*
X129934Y3612D01*
X133870D02*
X132558D01*
X131902Y4268D01*
Y5580D01*
X132558Y6236D01*
X133870D01*
X134526Y5580D01*
Y4924D01*
X131902D01*
X139773Y7548D02*
Y3612D01*
X141741D01*
X142397Y4268D01*
Y4924D01*
X141741Y5580D01*
X139773D01*
X141741D01*
X142397Y6236D01*
Y6892D01*
X141741Y7548D01*
X139773D01*
X144365Y2956D02*
X145021Y3612D01*
Y4268D01*
X144365D01*
Y3612D01*
X145021D01*
X144365Y2956D01*
X143709Y2300D01*
X151580Y3612D02*
Y7548D01*
X152892Y6236D01*
X154204Y7548D01*
Y3612D01*
X155516D02*
X156828D01*
X156172D01*
Y6236D01*
X155516D01*
X161420D02*
X159452D01*
X158796Y5580D01*
Y4268D01*
X159452Y3612D01*
X161420D01*
X162732Y7548D02*
Y3612D01*
Y5580D01*
X163388Y6236D01*
X164699D01*
X165356Y5580D01*
Y3612D01*
X167323Y6236D02*
X168635D01*
X169291Y5580D01*
Y3612D01*
X167323D01*
X166667Y4268D01*
X167323Y4924D01*
X169291D01*
X172571Y3612D02*
X171259D01*
X170603Y4268D01*
Y5580D01*
X171259Y6236D01*
X172571D01*
X173227Y5580D01*
Y4924D01*
X170603D01*
X174539Y3612D02*
X175851D01*
X175195D01*
Y7548D01*
X174539D01*
X181754D02*
Y6892D01*
X183066Y5580D01*
X184378Y6892D01*
Y7548D01*
X183066Y5580D02*
Y3612D01*
X54000Y16798D02*
X57999D01*
X55999D01*
Y10800D01*
X63997Y15798D02*
X62997Y16798D01*
X60998D01*
X59998Y15798D01*
Y14799D01*
X60998Y13799D01*
X62997D01*
X63997Y12799D01*
Y11800D01*
X62997Y10800D01*
X60998D01*
X59998Y11800D01*
X65996Y10800D02*
Y14799D01*
X67996Y16798D01*
X69995Y14799D01*
Y10800D01*
Y13799D01*
X65996D01*
X71994Y16798D02*
Y10800D01*
X75993D01*
X83990Y16798D02*
Y10800D01*
X86989D01*
X87989Y11800D01*
Y12799D01*
X86989Y13799D01*
X83990D01*
X86989D01*
X87989Y14799D01*
Y15798D01*
X86989Y16798D01*
X83990D01*
X90988Y10800D02*
X92987D01*
X93987Y11800D01*
Y13799D01*
X92987Y14799D01*
X90988D01*
X89988Y13799D01*
Y11800D01*
X90988Y10800D01*
X96986Y14799D02*
X98985D01*
X99985Y13799D01*
Y10800D01*
X96986D01*
X95986Y11800D01*
X96986Y12799D01*
X99985D01*
X101985Y14799D02*
Y10800D01*
Y12799D01*
X102984Y13799D01*
X103984Y14799D01*
X104983D01*
X111981Y16798D02*
Y10800D01*
X108982D01*
X107983Y11800D01*
Y13799D01*
X108982Y14799D01*
X111981D01*
X56300Y4900D02*
Y8049D01*
X57874D01*
X58399Y7524D01*
Y6474D01*
X57874Y5949D01*
X56300D01*
X57349D02*
X58399Y4900D01*
X61023D02*
X59973D01*
X59449Y5425D01*
Y6474D01*
X59973Y6999D01*
X61023D01*
X61548Y6474D01*
Y5949D01*
X59449D01*
X62597Y6999D02*
X63647Y4900D01*
X64696Y6999D01*
X70993Y4900D02*
X68894D01*
X70993Y6999D01*
Y7524D01*
X70469Y8049D01*
X69419D01*
X68894Y7524D01*
X72043Y4900D02*
Y5425D01*
X72568D01*
Y4900D01*
X72043D01*
X74667Y7524D02*
X75191Y8049D01*
X76241D01*
X76766Y7524D01*
Y5425D01*
X76241Y4900D01*
X75191D01*
X74667Y5425D01*
Y7524D01*
X179452Y32268D02*
X182076Y28332D01*
Y32268D02*
X179452Y28332D01*
X186011Y32268D02*
X184699Y31612D01*
X183387Y30300D01*
Y28988D01*
X184043Y28332D01*
X185355D01*
X186011Y28988D01*
Y29644D01*
X185355Y30300D01*
X183387D01*
X180447Y51180D02*
X183071Y47245D01*
Y51180D02*
X180447Y47245D01*
X184383D02*
X185695D01*
X185039D01*
Y51180D01*
X184383Y50524D01*
X46920Y65532D02*
Y69468D01*
X48888D01*
X49544Y68812D01*
Y67500D01*
X48888Y66844D01*
X46920D01*
X48232D02*
X49544Y65532D01*
X52824D02*
Y69468D01*
X50856Y67500D01*
X53480D01*
X55500Y59012D02*
X54844Y59668D01*
X53532D01*
X52876Y59012D01*
Y56388D01*
X53532Y55732D01*
X54844D01*
X55500Y56388D01*
X56812Y55732D02*
X58124D01*
X57468D01*
Y59668D01*
X56812Y59012D01*
X179665Y41181D02*
X182289Y37245D01*
Y41181D02*
X179665Y37245D01*
X186225Y41181D02*
X183601D01*
Y39213D01*
X184913Y39869D01*
X185569D01*
X186225Y39213D01*
Y37901D01*
X185569Y37245D01*
X184257D01*
X183601Y37901D01*
X4820Y31568D02*
X7444Y27632D01*
Y31568D02*
X4820Y27632D01*
X10724D02*
Y31568D01*
X8756Y29600D01*
X11380D01*
X5020Y42068D02*
X7644Y38132D01*
Y42068D02*
X5020Y38132D01*
X8956Y41412D02*
X9612Y42068D01*
X10924D01*
X11580Y41412D01*
Y40756D01*
X10924Y40100D01*
X10268D01*
X10924D01*
X11580Y39444D01*
Y38788D01*
X10924Y38132D01*
X9612D01*
X8956Y38788D01*
X5020Y51368D02*
X7644Y47432D01*
Y51368D02*
X5020Y47432D01*
X11580D02*
X8956D01*
X11580Y50056D01*
Y50712D01*
X10924Y51368D01*
X9612D01*
X8956Y50712D01*
X39876Y53768D02*
Y50488D01*
X40532Y49832D01*
X41844D01*
X42500Y50488D01*
Y53768D01*
X43812Y49832D02*
X45124D01*
X44468D01*
Y53768D01*
X43812Y53112D01*
X101668Y38220D02*
X97732D01*
Y40188D01*
X98388Y40844D01*
X99700D01*
X100356Y40188D01*
Y38220D01*
Y39532D02*
X101668Y40844D01*
X101012Y42156D02*
X101668Y42812D01*
Y44124D01*
X101012Y44780D01*
X98388D01*
X97732Y44124D01*
Y42812D01*
X98388Y42156D01*
X99044D01*
X99700Y42812D01*
Y44780D01*
X138679Y38362D02*
X134743D01*
Y40330D01*
X135399Y40986D01*
X136711D01*
X137367Y40330D01*
Y38362D01*
Y39674D02*
X138679Y40986D01*
X135399Y42298D02*
X134743Y42954D01*
Y44266D01*
X135399Y44921D01*
X136055D01*
X136711Y44266D01*
X137367Y44921D01*
X138023D01*
X138679Y44266D01*
Y42954D01*
X138023Y42298D01*
X137367D01*
X136711Y42954D01*
X136055Y42298D01*
X135399D01*
X136711Y42954D02*
Y44266D01*
X126868Y38419D02*
X122932D01*
Y40387D01*
X123588Y41043D01*
X124900D01*
X125556Y40387D01*
Y38419D01*
Y39731D02*
X126868Y41043D01*
X122932Y42354D02*
Y44978D01*
X123588D01*
X126212Y42354D01*
X126868D01*
X89168Y38220D02*
X85232D01*
Y40188D01*
X85888Y40844D01*
X87200D01*
X87856Y40188D01*
Y38220D01*
Y39532D02*
X89168Y40844D01*
X85232Y44780D02*
X85888Y43468D01*
X87200Y42156D01*
X88512D01*
X89168Y42812D01*
Y44124D01*
X88512Y44780D01*
X87856D01*
X87200Y44124D01*
Y42156D01*
X77668Y38220D02*
X73732D01*
Y40188D01*
X74388Y40844D01*
X75700D01*
X76356Y40188D01*
Y38220D01*
Y39532D02*
X77668Y40844D01*
X73732Y44780D02*
Y42156D01*
X75700D01*
X75044Y43468D01*
Y44124D01*
X75700Y44780D01*
X77012D01*
X77668Y44124D01*
Y42812D01*
X77012Y42156D01*
X6220Y64532D02*
Y68468D01*
X8188D01*
X8844Y67812D01*
Y66500D01*
X8188Y65844D01*
X6220D01*
X7532D02*
X8844Y64532D01*
X10156Y67812D02*
X10812Y68468D01*
X12124D01*
X12780Y67812D01*
Y67156D01*
X12124Y66500D01*
X11468D01*
X12124D01*
X12780Y65844D01*
Y65188D01*
X12124Y64532D01*
X10812D01*
X10156Y65188D01*
X118720Y66532D02*
Y70468D01*
X120688D01*
X121344Y69812D01*
Y68500D01*
X120688Y67844D01*
X118720D01*
X120032D02*
X121344Y66532D01*
X125280D02*
X122656D01*
X125280Y69156D01*
Y69812D01*
X124624Y70468D01*
X123312D01*
X122656Y69812D01*
X100876Y66682D02*
Y70618D01*
X102844D01*
X103500Y69962D01*
Y68650D01*
X102844Y67994D01*
X100876D01*
X102188D02*
X103500Y66682D01*
X104812D02*
X106124D01*
X105468D01*
Y70618D01*
X104812Y69962D01*
X159644Y39988D02*
Y42612D01*
X158988Y43268D01*
X157676D01*
X157020Y42612D01*
Y39988D01*
X157676Y39332D01*
X158988D01*
X158332Y40644D02*
X159644Y39332D01*
X158988D02*
X159644Y39988D01*
X160956Y42612D02*
X161612Y43268D01*
X162924D01*
X163580Y42612D01*
Y41956D01*
X162924Y41300D01*
X162268D01*
X162924D01*
X163580Y40644D01*
Y39988D01*
X162924Y39332D01*
X161612D01*
X160956Y39988D01*
X83344Y67188D02*
Y69812D01*
X82688Y70468D01*
X81376D01*
X80720Y69812D01*
Y67188D01*
X81376Y66532D01*
X82688D01*
X82032Y67844D02*
X83344Y66532D01*
X82688D02*
X83344Y67188D01*
X87280Y66532D02*
X84656D01*
X87280Y69156D01*
Y69812D01*
X86624Y70468D01*
X85312D01*
X84656Y69812D01*
X155163Y63328D02*
Y65952D01*
X154507Y66608D01*
X153195D01*
X152539Y65952D01*
Y63328D01*
X153195Y62672D01*
X154507D01*
X153851Y63984D02*
X155163Y62672D01*
X154507D02*
X155163Y63328D01*
X156475Y62672D02*
X157787D01*
X157131D01*
Y66608D01*
X156475Y65952D01*
X59888Y37145D02*
X59232Y36489D01*
Y35177D01*
X59888Y34521D01*
X62512D01*
X63168Y35177D01*
Y36489D01*
X62512Y37145D01*
X59888Y38457D02*
X59232Y39113D01*
Y40425D01*
X59888Y41080D01*
X60544D01*
X61200Y40425D01*
Y39769D01*
Y40425D01*
X61856Y41080D01*
X62512D01*
X63168Y40425D01*
Y39113D01*
X62512Y38457D01*
X111372Y41332D02*
X110716Y40676D01*
Y39364D01*
X111372Y38708D01*
X113996D01*
X114652Y39364D01*
Y40676D01*
X113996Y41332D01*
X114652Y45268D02*
Y42644D01*
X112028Y45268D01*
X111372D01*
X110716Y44612D01*
Y43300D01*
X111372Y42644D01*
M02*
