G04*
G04 #@! TF.GenerationSoftware,Altium Limited,Altium Designer,23.9.2 (47)*
G04*
G04 Layer_Color=8421504*
%FSLAX25Y25*%
%MOIN*%
G70*
G04*
G04 #@! TF.SameCoordinates,F644929B-0515-4FFE-9EA4-74E11A0DFDDC*
G04*
G04*
G04 #@! TF.FilePolarity,Positive*
G04*
G01*
G75*
%ADD17R,0.05118X0.05118*%
G04:AMPARAMS|DCode=18|XSize=39.37mil|YSize=37.4mil|CornerRadius=4.68mil|HoleSize=0mil|Usage=FLASHONLY|Rotation=270.000|XOffset=0mil|YOffset=0mil|HoleType=Round|Shape=RoundedRectangle|*
%AMROUNDEDRECTD18*
21,1,0.03937,0.02805,0,0,270.0*
21,1,0.03002,0.03740,0,0,270.0*
1,1,0.00935,-0.01403,-0.01501*
1,1,0.00935,-0.01403,0.01501*
1,1,0.00935,0.01403,0.01501*
1,1,0.00935,0.01403,-0.01501*
%
%ADD18ROUNDEDRECTD18*%
%ADD19R,0.03543X0.03150*%
%ADD20O,0.05709X0.02362*%
G04:AMPARAMS|DCode=21|XSize=39.37mil|YSize=37.4mil|CornerRadius=4.68mil|HoleSize=0mil|Usage=FLASHONLY|Rotation=180.000|XOffset=0mil|YOffset=0mil|HoleType=Round|Shape=RoundedRectangle|*
%AMROUNDEDRECTD21*
21,1,0.03937,0.02805,0,0,180.0*
21,1,0.03002,0.03740,0,0,180.0*
1,1,0.00935,-0.01501,0.01403*
1,1,0.00935,0.01501,0.01403*
1,1,0.00935,0.01501,-0.01403*
1,1,0.00935,-0.01501,-0.01403*
%
%ADD21ROUNDEDRECTD21*%
G04:AMPARAMS|DCode=22|XSize=39.37mil|YSize=39.37mil|CornerRadius=4.92mil|HoleSize=0mil|Usage=FLASHONLY|Rotation=180.000|XOffset=0mil|YOffset=0mil|HoleType=Round|Shape=RoundedRectangle|*
%AMROUNDEDRECTD22*
21,1,0.03937,0.02953,0,0,180.0*
21,1,0.02953,0.03937,0,0,180.0*
1,1,0.00984,-0.01476,0.01476*
1,1,0.00984,0.01476,0.01476*
1,1,0.00984,0.01476,-0.01476*
1,1,0.00984,-0.01476,-0.01476*
%
%ADD22ROUNDEDRECTD22*%
%ADD23R,0.03150X0.03543*%
G04:AMPARAMS|DCode=24|XSize=39.37mil|YSize=39.37mil|CornerRadius=4.92mil|HoleSize=0mil|Usage=FLASHONLY|Rotation=270.000|XOffset=0mil|YOffset=0mil|HoleType=Round|Shape=RoundedRectangle|*
%AMROUNDEDRECTD24*
21,1,0.03937,0.02953,0,0,270.0*
21,1,0.02953,0.03937,0,0,270.0*
1,1,0.00984,-0.01476,-0.01476*
1,1,0.00984,-0.01476,0.01476*
1,1,0.00984,0.01476,0.01476*
1,1,0.00984,0.01476,-0.01476*
%
%ADD24ROUNDEDRECTD24*%
D17*
X765219Y47244D02*
D03*
X758920D02*
D03*
X752621D02*
D03*
X765219Y29528D02*
D03*
X758920D02*
D03*
X752621D02*
D03*
X685433Y47244D02*
D03*
X679134D02*
D03*
X672835D02*
D03*
X685433Y29528D02*
D03*
X679134D02*
D03*
X672835D02*
D03*
X605895Y47244D02*
D03*
X599595D02*
D03*
X593296D02*
D03*
X605895Y29528D02*
D03*
X599595D02*
D03*
X593296D02*
D03*
X434055Y30020D02*
D03*
X440354D02*
D03*
X446654D02*
D03*
X434055Y47737D02*
D03*
X440354D02*
D03*
X446654D02*
D03*
X354331Y29662D02*
D03*
X360630D02*
D03*
X366929D02*
D03*
X354331Y47379D02*
D03*
X360630D02*
D03*
X366929D02*
D03*
X286811D02*
D03*
X280512D02*
D03*
X274213D02*
D03*
X286811Y29662D02*
D03*
X280512D02*
D03*
X274213D02*
D03*
D18*
X426181Y40354D02*
D03*
X419882D02*
D03*
X426181Y46458D02*
D03*
X419882D02*
D03*
X259646Y40354D02*
D03*
X265945D02*
D03*
X259646Y46458D02*
D03*
X265945D02*
D03*
X346260Y40354D02*
D03*
X339961D02*
D03*
Y46458D02*
D03*
X346260D02*
D03*
X665354Y46323D02*
D03*
X659055D02*
D03*
X665354Y40220D02*
D03*
X659055D02*
D03*
X738054Y40220D02*
D03*
X744353D02*
D03*
X738054Y46323D02*
D03*
X744353D02*
D03*
X579320Y40156D02*
D03*
X585619D02*
D03*
X579320Y46260D02*
D03*
X585619D02*
D03*
D19*
X150063Y56840D02*
D03*
Y49360D02*
D03*
X157937Y53100D02*
D03*
X162837Y28700D02*
D03*
X154963Y24960D02*
D03*
Y32440D02*
D03*
D20*
X52928Y30300D02*
D03*
Y35300D02*
D03*
Y40300D02*
D03*
Y45300D02*
D03*
X31472Y30300D02*
D03*
Y35300D02*
D03*
Y40300D02*
D03*
Y45300D02*
D03*
D21*
X124900Y25950D02*
D03*
Y32250D02*
D03*
X75700Y31650D02*
D03*
Y25350D02*
D03*
X87200D02*
D03*
Y31650D02*
D03*
X99700Y25350D02*
D03*
Y31650D02*
D03*
X122000Y54201D02*
D03*
Y60500D02*
D03*
X103500Y61150D02*
D03*
Y54850D02*
D03*
X19500Y69150D02*
D03*
Y62850D02*
D03*
X59200Y70650D02*
D03*
Y64350D02*
D03*
X136711Y31996D02*
D03*
Y25697D02*
D03*
D22*
X111700Y32342D02*
D03*
Y26043D02*
D03*
X60900Y22301D02*
D03*
Y28600D02*
D03*
D23*
X84000Y60437D02*
D03*
X87740Y52563D02*
D03*
X80260D02*
D03*
D24*
X53201Y50800D02*
D03*
X59500D02*
D03*
M02*
