G04*
G04 #@! TF.GenerationSoftware,Altium Limited,Altium Designer,23.9.2 (47)*
G04*
G04 Layer_Color=32896*
%FSLAX25Y25*%
%MOIN*%
G70*
G04*
G04 #@! TF.SameCoordinates,F644929B-0515-4FFE-9EA4-74E11A0DFDDC*
G04*
G04*
G04 #@! TF.FilePolarity,Positive*
G04*
G01*
G75*
G36*
X87856Y72901D02*
X89105D01*
Y72693D01*
X89521D01*
Y72485D01*
X89729D01*
Y72277D01*
X90146D01*
Y72069D01*
X90354D01*
Y71861D01*
X90562D01*
Y71444D01*
X90770D01*
Y71236D01*
X90978D01*
Y70820D01*
X91186D01*
Y70404D01*
X91394D01*
Y69779D01*
X91602D01*
Y66658D01*
X91394D01*
Y66033D01*
X91186D01*
Y65617D01*
X90978D01*
Y65201D01*
X90770D01*
Y64785D01*
X90562D01*
Y64577D01*
X90354D01*
Y64368D01*
X90146D01*
Y64160D01*
X89938D01*
Y63952D01*
X89729D01*
Y63744D01*
X89521D01*
Y63536D01*
X89105D01*
Y63328D01*
X88481D01*
Y63120D01*
X87856D01*
Y62912D01*
X86816D01*
Y63120D01*
X86191D01*
Y63328D01*
X85775D01*
Y63536D01*
X85359D01*
Y63744D01*
X85151D01*
Y63952D01*
X84943D01*
Y64160D01*
X84735D01*
Y64368D01*
X84527D01*
Y64785D01*
X84319D01*
Y64993D01*
X84110D01*
Y65409D01*
X83902D01*
Y66033D01*
X83694D01*
Y69363D01*
X83902D01*
Y70196D01*
X84110D01*
Y70612D01*
X84319D01*
Y71028D01*
X84527D01*
Y71236D01*
X84735D01*
Y71653D01*
X84943D01*
Y71861D01*
X85151D01*
Y72069D01*
X85567D01*
Y72277D01*
X85775D01*
Y72485D01*
X86191D01*
Y72693D01*
X86608D01*
Y72901D01*
X87648D01*
Y73109D01*
X87856D01*
Y72901D01*
D02*
G37*
G36*
X78283Y72693D02*
X78908D01*
Y72485D01*
X79116D01*
Y72277D01*
X79532D01*
Y72069D01*
X79740D01*
Y71861D01*
X79948D01*
Y71653D01*
X80156D01*
Y71236D01*
X80364D01*
Y71028D01*
X80572D01*
Y70612D01*
X80781D01*
Y70404D01*
X80989D01*
Y69987D01*
X81197D01*
Y69363D01*
X81405D01*
Y68531D01*
X81613D01*
Y66242D01*
X81405D01*
Y65617D01*
X81197D01*
Y65201D01*
X80989D01*
Y64993D01*
X80781D01*
Y64577D01*
X80572D01*
Y64368D01*
X80364D01*
Y64160D01*
X80156D01*
Y63952D01*
X79948D01*
Y63744D01*
X79532D01*
Y63536D01*
X79116D01*
Y63328D01*
X78491D01*
Y63120D01*
X77867D01*
Y62912D01*
X76410D01*
Y63120D01*
X75994D01*
Y63328D01*
X75370D01*
Y63536D01*
X75161D01*
Y63744D01*
X74953D01*
Y63952D01*
X74537D01*
Y64368D01*
X74329D01*
Y64577D01*
X74121D01*
Y64785D01*
X73913D01*
Y65201D01*
X73705D01*
Y65409D01*
X73497D01*
Y65825D01*
X73288D01*
Y66450D01*
X73080D01*
Y67074D01*
X72872D01*
Y69987D01*
X73080D01*
Y70404D01*
X73288D01*
Y70820D01*
X73497D01*
Y71028D01*
X73705D01*
Y71444D01*
X73913D01*
Y71653D01*
X74121D01*
Y71861D01*
X74329D01*
Y72069D01*
X74745D01*
Y72277D01*
X75161D01*
Y72485D01*
X75370D01*
Y72693D01*
X76202D01*
Y72901D01*
X78283D01*
Y72693D01*
D02*
G37*
G36*
X98262Y68739D02*
X98887D01*
Y68531D01*
X99303D01*
Y68323D01*
X99511D01*
Y68115D01*
X99927D01*
Y67906D01*
X100135D01*
Y67698D01*
X100343D01*
Y67282D01*
X100551D01*
Y67074D01*
X100759D01*
Y66658D01*
X100968D01*
Y66033D01*
X101176D01*
Y64577D01*
X100968D01*
Y63744D01*
X100759D01*
Y63328D01*
X100551D01*
Y62912D01*
X100343D01*
Y62495D01*
X100135D01*
Y62287D01*
X99927D01*
Y61871D01*
X99719D01*
Y61663D01*
X99511D01*
Y61455D01*
X99303D01*
Y61247D01*
X99095D01*
Y61039D01*
X98678D01*
Y60830D01*
X98470D01*
Y60622D01*
X97846D01*
Y60414D01*
X95349D01*
Y60622D01*
X94932D01*
Y60830D01*
X94516D01*
Y61039D01*
X94308D01*
Y61247D01*
X93892D01*
Y61455D01*
X93684D01*
Y61663D01*
X93476D01*
Y61871D01*
X93267D01*
Y62287D01*
X93059D01*
Y62912D01*
X92851D01*
Y63744D01*
X92643D01*
Y64160D01*
X92851D01*
Y65201D01*
X93059D01*
Y65825D01*
X93267D01*
Y66242D01*
X93476D01*
Y66450D01*
X93684D01*
Y66866D01*
X93892D01*
Y67282D01*
X94100D01*
Y67490D01*
X94308D01*
Y67698D01*
X94516D01*
Y67906D01*
X94724D01*
Y68115D01*
X94932D01*
Y68323D01*
X95349D01*
Y68531D01*
X95765D01*
Y68739D01*
X96389D01*
Y68947D01*
X98262D01*
Y68739D01*
D02*
G37*
G36*
X61218Y73942D02*
X62675D01*
Y73734D01*
X63299D01*
Y73526D01*
X63923D01*
Y73317D01*
X64548D01*
Y73109D01*
X64756D01*
Y72901D01*
X65172D01*
Y72693D01*
X65588D01*
Y72485D01*
X65796D01*
Y72277D01*
X66212D01*
Y72069D01*
X66421D01*
Y71861D01*
X66629D01*
Y71653D01*
X66837D01*
Y71444D01*
X67045D01*
Y71236D01*
X67253D01*
Y71028D01*
X67461D01*
Y70820D01*
X67669D01*
Y70612D01*
X67877D01*
Y70404D01*
X68086D01*
Y69987D01*
X68294D01*
Y69779D01*
X68502D01*
Y69363D01*
X68710D01*
Y69155D01*
X68918D01*
Y68739D01*
X69126D01*
Y68115D01*
X69334D01*
Y67698D01*
X69542D01*
Y66866D01*
X69750D01*
Y66033D01*
X69959D01*
Y62912D01*
X69750D01*
Y62079D01*
X69542D01*
Y61455D01*
X69334D01*
Y61039D01*
X69126D01*
Y60622D01*
X68918D01*
Y60206D01*
X68710D01*
Y59790D01*
X68502D01*
Y59582D01*
X68294D01*
Y59166D01*
X68086D01*
Y58957D01*
X67877D01*
Y58749D01*
X67669D01*
Y58541D01*
X67461D01*
Y58333D01*
X67253D01*
Y58125D01*
X67045D01*
Y57917D01*
X66629D01*
Y57709D01*
X66421D01*
Y57501D01*
X66004D01*
Y57293D01*
X65588D01*
Y57085D01*
X65172D01*
Y56876D01*
X64756D01*
Y56668D01*
X63923D01*
Y56460D01*
X62883D01*
Y56252D01*
X61010D01*
Y56460D01*
X59969D01*
Y56668D01*
X59345D01*
Y56876D01*
X58720D01*
Y57085D01*
X58304D01*
Y57293D01*
X57888D01*
Y57501D01*
X57472D01*
Y57709D01*
X57055D01*
Y57917D01*
X56847D01*
Y58125D01*
X56639D01*
Y58333D01*
X56223D01*
Y58541D01*
X56015D01*
Y58749D01*
X55807D01*
Y58957D01*
X55599D01*
Y59166D01*
X55391D01*
Y59374D01*
X55182D01*
Y59582D01*
X54974D01*
Y59790D01*
X54766D01*
Y60206D01*
X54558D01*
Y60414D01*
X54350D01*
Y60622D01*
X54142D01*
Y61039D01*
X53934D01*
Y61455D01*
X53726D01*
Y61663D01*
Y61871D01*
X53518D01*
Y62287D01*
X53310D01*
Y62912D01*
X53101D01*
Y63536D01*
X52893D01*
Y64785D01*
X52685D01*
Y66866D01*
X52893D01*
Y68115D01*
X53101D01*
Y68739D01*
X53310D01*
Y69155D01*
X53518D01*
Y69779D01*
X53726D01*
Y69987D01*
X53934D01*
Y70404D01*
X54142D01*
Y70820D01*
X54350D01*
Y71028D01*
X54558D01*
Y71236D01*
X54766D01*
Y71444D01*
X54974D01*
Y71653D01*
X55182D01*
Y71861D01*
X55391D01*
Y72069D01*
X55599D01*
Y72277D01*
X55807D01*
Y72485D01*
X56015D01*
Y72693D01*
X56431D01*
Y72901D01*
X56847D01*
Y73109D01*
X57055D01*
Y73317D01*
X57680D01*
Y73526D01*
X58096D01*
Y73734D01*
X58720D01*
Y73942D01*
X60177D01*
Y74150D01*
X61218D01*
Y73942D01*
D02*
G37*
G36*
X106170Y62079D02*
X106379D01*
Y61871D01*
X106795D01*
Y61663D01*
X107003D01*
Y61455D01*
X107211D01*
Y61247D01*
X107419D01*
Y61039D01*
X107627D01*
Y60622D01*
X107835D01*
Y60206D01*
X108044D01*
Y57917D01*
X107835D01*
Y57501D01*
X107627D01*
Y56876D01*
X107419D01*
Y56668D01*
X107211D01*
Y56460D01*
X107003D01*
Y56044D01*
X106795D01*
Y55836D01*
X106587D01*
Y55628D01*
X106379D01*
Y55420D01*
X105962D01*
Y55211D01*
X105754D01*
Y55003D01*
X105130D01*
Y54795D01*
X104506D01*
Y54587D01*
X103257D01*
Y54795D01*
X102632D01*
Y55003D01*
X102216D01*
Y55211D01*
X102008D01*
Y55420D01*
X101800D01*
Y55628D01*
X101592D01*
Y55836D01*
X101384D01*
Y56252D01*
X101176D01*
Y56876D01*
X100968D01*
Y58957D01*
X101176D01*
Y59374D01*
X101384D01*
Y59998D01*
X101592D01*
Y60206D01*
X101800D01*
Y60622D01*
X102008D01*
Y60830D01*
X102216D01*
Y61039D01*
X102424D01*
Y61247D01*
X102632D01*
Y61455D01*
X102841D01*
Y61663D01*
X103257D01*
Y61871D01*
X103673D01*
Y62079D01*
X104089D01*
Y62287D01*
X106170D01*
Y62079D01*
D02*
G37*
G36*
X115744Y52714D02*
X116368D01*
Y52506D01*
X116784D01*
Y52298D01*
X117201D01*
Y52090D01*
X117409D01*
Y51882D01*
X117617D01*
Y51465D01*
X117825D01*
Y51257D01*
X118033D01*
Y50425D01*
X118241D01*
Y49801D01*
X118033D01*
Y48760D01*
X117825D01*
Y48552D01*
X117617D01*
Y48344D01*
X117409D01*
Y47927D01*
X116992D01*
Y47719D01*
X116784D01*
Y47511D01*
X116368D01*
Y47303D01*
X115952D01*
Y47095D01*
X113871D01*
Y47303D01*
X113246D01*
Y47511D01*
X112830D01*
Y47719D01*
X112622D01*
Y48136D01*
X112830D01*
Y48552D01*
X113246D01*
Y48760D01*
X113454D01*
Y48552D01*
X115328D01*
Y48760D01*
X115536D01*
Y48968D01*
X115744D01*
Y49592D01*
X112830D01*
Y49801D01*
X112622D01*
Y50009D01*
X112414D01*
Y50633D01*
X112622D01*
Y51465D01*
X112830D01*
Y51674D01*
X113038D01*
Y52090D01*
X113246D01*
Y52298D01*
X113454D01*
Y52506D01*
X113871D01*
Y52714D01*
X114495D01*
Y52922D01*
X115744D01*
Y52714D01*
D02*
G37*
G36*
X130104D02*
X130728D01*
Y52506D01*
X131352D01*
Y52298D01*
X131560D01*
Y52090D01*
X131769D01*
Y51882D01*
X131977D01*
Y51674D01*
X132185D01*
Y51465D01*
X132393D01*
Y50841D01*
X132601D01*
Y48968D01*
X132393D01*
Y48552D01*
X132185D01*
Y48136D01*
X131977D01*
Y47927D01*
X131769D01*
Y47719D01*
X131352D01*
Y47511D01*
X131144D01*
Y47303D01*
X130520D01*
Y47095D01*
X128647D01*
Y47303D01*
X128023D01*
Y47511D01*
X127606D01*
Y47719D01*
X127398D01*
Y47927D01*
X127190D01*
Y48136D01*
X126982D01*
Y48344D01*
X126774D01*
Y48760D01*
X126566D01*
Y49176D01*
X126358D01*
Y50841D01*
X126566D01*
Y51049D01*
Y51257D01*
X126774D01*
Y51674D01*
X126982D01*
Y51882D01*
X127190D01*
Y52090D01*
X127398D01*
Y52298D01*
X127814D01*
Y52506D01*
X128231D01*
Y52714D01*
X128855D01*
Y52922D01*
X130104D01*
Y52714D01*
D02*
G37*
G36*
X121779D02*
X122195D01*
Y52506D01*
X122611D01*
Y52298D01*
X123028D01*
Y52506D01*
X123444D01*
Y52714D01*
X125109D01*
Y52506D01*
X125317D01*
Y47511D01*
X125109D01*
Y47303D01*
X124901D01*
Y47095D01*
X123652D01*
Y47303D01*
X123236D01*
Y47511D01*
X123028D01*
Y51049D01*
X122820D01*
Y51257D01*
X121779D01*
Y50633D01*
X121571D01*
Y47511D01*
X121363D01*
Y47303D01*
X121155D01*
Y47095D01*
X120530D01*
Y47303D01*
X120322D01*
Y47095D01*
X119906D01*
Y47303D01*
X119490D01*
Y47719D01*
X119282D01*
Y50841D01*
X119490D01*
Y51882D01*
X119698D01*
Y52298D01*
X119906D01*
Y52506D01*
X120322D01*
Y52714D01*
X120738D01*
Y52922D01*
X121779D01*
Y52714D01*
D02*
G37*
G36*
X109916D02*
X110541D01*
Y52506D01*
X110957D01*
Y52298D01*
X111165D01*
Y52090D01*
X111373D01*
Y51674D01*
X111581D01*
Y50633D01*
X111373D01*
Y50217D01*
X111165D01*
Y50009D01*
X110957D01*
Y49801D01*
X110749D01*
Y49592D01*
X110333D01*
Y49384D01*
X110125D01*
Y49176D01*
X109916D01*
Y48968D01*
X109708D01*
Y48552D01*
X109916D01*
Y48344D01*
X110749D01*
Y48552D01*
X111373D01*
Y48344D01*
X111581D01*
Y47927D01*
X111790D01*
Y47719D01*
X111581D01*
Y47511D01*
X111373D01*
Y47303D01*
X110749D01*
Y47095D01*
X109084D01*
Y47303D01*
X108460D01*
Y47511D01*
X108044D01*
Y47719D01*
X107835D01*
Y47927D01*
X107627D01*
Y48344D01*
X107419D01*
Y49176D01*
X107627D01*
Y49592D01*
X107835D01*
Y49801D01*
X108044D01*
Y50009D01*
X108252D01*
Y50217D01*
X108460D01*
Y50425D01*
X108668D01*
Y50633D01*
X109084D01*
Y50841D01*
X109292D01*
Y51465D01*
X109084D01*
Y51674D01*
X108460D01*
Y51465D01*
X108252D01*
Y51674D01*
X108044D01*
Y51882D01*
X107835D01*
Y52506D01*
X108252D01*
Y52714D01*
X109084D01*
Y52922D01*
X109916D01*
Y52714D01*
D02*
G37*
G36*
X135931Y54795D02*
X136139D01*
Y54587D01*
X136347D01*
Y47095D01*
X136555D01*
Y46887D01*
X136763D01*
Y46471D01*
X136971D01*
Y45430D01*
X136763D01*
Y45222D01*
X135931D01*
Y45430D01*
X135515D01*
Y45638D01*
X135098D01*
Y45846D01*
X134890D01*
Y46054D01*
X134682D01*
Y46262D01*
X134474D01*
Y46679D01*
X134266D01*
Y47095D01*
X134058D01*
Y48136D01*
X133850D01*
Y51882D01*
X134058D01*
Y52506D01*
X133850D01*
Y53338D01*
X134058D01*
Y53755D01*
X133850D01*
Y54379D01*
X134058D01*
Y54795D01*
X134474D01*
Y55003D01*
X135931D01*
Y54795D01*
D02*
G37*
G36*
X112830Y41060D02*
X113454D01*
Y40852D01*
X113871D01*
Y40643D01*
X114079D01*
Y40435D01*
X114287D01*
Y40227D01*
X114495D01*
Y39811D01*
X114703D01*
Y39603D01*
Y38978D01*
X114495D01*
Y38562D01*
X114287D01*
Y38146D01*
X114079D01*
Y37730D01*
X114287D01*
Y37522D01*
X114495D01*
Y37314D01*
X114703D01*
Y36897D01*
X114911D01*
Y36689D01*
X115119D01*
Y34816D01*
X114911D01*
Y34608D01*
X114703D01*
Y34192D01*
X114495D01*
Y33984D01*
X114287D01*
Y33776D01*
X113871D01*
Y33568D01*
X113454D01*
Y33359D01*
X112830D01*
Y33151D01*
X111790D01*
Y33359D01*
X110957D01*
Y33568D01*
X110541D01*
Y33776D01*
X110125D01*
Y33984D01*
X109500D01*
Y33776D01*
X109292D01*
Y33568D01*
X109084D01*
Y33359D01*
X108460D01*
Y33568D01*
X108252D01*
Y33776D01*
X107835D01*
Y34192D01*
X107627D01*
Y34400D01*
X107835D01*
Y34608D01*
X108044D01*
Y34816D01*
X108252D01*
Y35024D01*
X108460D01*
Y35232D01*
X108668D01*
Y36065D01*
X108460D01*
Y36481D01*
X108252D01*
Y37522D01*
X108460D01*
Y37730D01*
X108252D01*
Y37938D01*
X107835D01*
Y38146D01*
X107627D01*
Y38354D01*
X107419D01*
Y38978D01*
X107835D01*
Y39187D01*
X110125D01*
Y38978D01*
X110749D01*
Y38562D01*
X110957D01*
Y38354D01*
X110749D01*
Y38146D01*
X110541D01*
Y37938D01*
X110125D01*
Y37730D01*
X109916D01*
Y37314D01*
X109708D01*
Y36897D01*
X109916D01*
Y36689D01*
X110333D01*
Y36897D01*
X110541D01*
Y37106D01*
X110749D01*
Y37314D01*
X110957D01*
Y37522D01*
X111165D01*
Y37730D01*
X111373D01*
Y37938D01*
X111581D01*
Y38146D01*
X111790D01*
Y38354D01*
X111998D01*
Y38562D01*
X112206D01*
Y38770D01*
X112414D01*
Y39187D01*
X112622D01*
Y39395D01*
X112414D01*
Y39603D01*
X112206D01*
Y39811D01*
X111790D01*
Y39603D01*
X111373D01*
Y39811D01*
X110957D01*
Y40227D01*
X110749D01*
Y40643D01*
X110957D01*
Y40852D01*
X111373D01*
Y41060D01*
X111998D01*
Y41268D01*
X112830D01*
Y41060D01*
D02*
G37*
G36*
X141758Y40852D02*
X141966D01*
Y40643D01*
X142174D01*
Y33776D01*
X141966D01*
Y33359D01*
X137804D01*
Y33568D01*
X136971D01*
Y33776D01*
X136555D01*
Y33984D01*
X136347D01*
Y34192D01*
X136139D01*
Y34400D01*
X135931D01*
Y34816D01*
X135723D01*
Y35441D01*
X135515D01*
Y36065D01*
X135723D01*
Y36481D01*
X135931D01*
Y36897D01*
X136139D01*
Y37106D01*
X136555D01*
Y37314D01*
X136763D01*
Y37522D01*
X136971D01*
Y37938D01*
X136763D01*
Y38146D01*
X136555D01*
Y38354D01*
X136347D01*
Y38562D01*
X136139D01*
Y40019D01*
X136347D01*
Y40227D01*
X136555D01*
Y40435D01*
X136763D01*
Y40643D01*
X136971D01*
Y40852D01*
X137804D01*
Y41060D01*
X141758D01*
Y40852D01*
D02*
G37*
G36*
X134058D02*
X134266D01*
Y40435D01*
X134474D01*
Y40227D01*
X134266D01*
Y36065D01*
Y35857D01*
Y33568D01*
X134058D01*
Y33359D01*
X130104D01*
Y33568D01*
X129271D01*
Y33776D01*
X128855D01*
Y33984D01*
X128647D01*
Y34192D01*
X128439D01*
Y34400D01*
X128231D01*
Y34608D01*
X128023D01*
Y35232D01*
X127814D01*
Y36065D01*
X128023D01*
Y36689D01*
X128231D01*
Y36897D01*
X128439D01*
Y37106D01*
X128855D01*
Y37314D01*
X129063D01*
Y37522D01*
X129271D01*
Y37938D01*
X129063D01*
Y38146D01*
X128855D01*
Y38354D01*
X128647D01*
Y38562D01*
X128439D01*
Y40019D01*
X128647D01*
Y40227D01*
X128855D01*
Y40435D01*
X129063D01*
Y40643D01*
X129271D01*
Y40852D01*
X130104D01*
Y41060D01*
X134058D01*
Y40852D01*
D02*
G37*
G36*
X123860Y41060D02*
X124693D01*
Y40852D01*
X125109D01*
Y40643D01*
X125317D01*
Y40435D01*
X125733D01*
Y40227D01*
X125941D01*
Y40019D01*
X126149D01*
Y39811D01*
X126358D01*
Y39395D01*
X126566D01*
Y39187D01*
X126774D01*
Y38562D01*
X126982D01*
Y35857D01*
X126774D01*
Y35232D01*
X126566D01*
Y35024D01*
X126358D01*
Y34608D01*
X126149D01*
Y34400D01*
X125941D01*
Y34192D01*
X125733D01*
Y33984D01*
X125525D01*
Y33776D01*
X125109D01*
Y33568D01*
X124485D01*
Y33359D01*
X123652D01*
Y33151D01*
X122403D01*
Y32943D01*
X121987D01*
Y32735D01*
X121571D01*
Y32527D01*
X121155D01*
Y32319D01*
X120738D01*
Y32111D01*
X120322D01*
Y31903D01*
X119906D01*
Y31694D01*
X119282D01*
Y31903D01*
X119074D01*
Y32319D01*
X118866D01*
Y33151D01*
X119490D01*
Y33359D01*
X119906D01*
Y33568D01*
X120530D01*
Y33776D01*
X120738D01*
Y34192D01*
X120530D01*
Y34400D01*
X120322D01*
Y34608D01*
X120114D01*
Y35024D01*
X119906D01*
Y35441D01*
X119698D01*
Y35857D01*
X119490D01*
Y36481D01*
Y36689D01*
Y38562D01*
X119698D01*
Y39187D01*
X119906D01*
Y39395D01*
X120114D01*
Y39811D01*
X120322D01*
Y40019D01*
X120530D01*
Y40227D01*
X120738D01*
Y40435D01*
X120947D01*
Y40643D01*
X121363D01*
Y40852D01*
X121779D01*
Y41060D01*
X122611D01*
Y41268D01*
X123860D01*
Y41060D01*
D02*
G37*
G36*
X129895Y27116D02*
X130312D01*
Y19624D01*
X129895D01*
Y19416D01*
X128439D01*
Y19624D01*
X128023D01*
Y22121D01*
X127814D01*
Y22329D01*
X126149D01*
Y22537D01*
X125941D01*
Y22746D01*
X125733D01*
Y23786D01*
X125941D01*
Y23994D01*
X127814D01*
Y24202D01*
X128023D01*
Y25451D01*
X127814D01*
Y25659D01*
X125941D01*
Y25867D01*
X125733D01*
Y26492D01*
X125525D01*
Y26700D01*
X125733D01*
Y27116D01*
X126149D01*
Y27324D01*
X129895D01*
Y27116D01*
D02*
G37*
G36*
X122403Y25035D02*
X123444D01*
Y24827D01*
X123652D01*
Y24619D01*
X124068D01*
Y24410D01*
X124276D01*
Y24202D01*
X124485D01*
Y23994D01*
X124693D01*
Y23578D01*
X124901D01*
Y22954D01*
X125109D01*
Y21497D01*
X124901D01*
Y21081D01*
X124693D01*
Y20664D01*
X124485D01*
Y20456D01*
X124276D01*
Y20248D01*
X124068D01*
Y20040D01*
X123860D01*
Y19832D01*
X123444D01*
Y19624D01*
X123028D01*
Y19416D01*
X120947D01*
Y19624D01*
X120530D01*
Y19832D01*
X120114D01*
Y20040D01*
X119698D01*
Y20456D01*
X119490D01*
Y20664D01*
X119282D01*
Y20873D01*
X119074D01*
Y21289D01*
X118866D01*
Y23370D01*
X119074D01*
Y23786D01*
X119282D01*
Y23994D01*
X119490D01*
Y24202D01*
X119698D01*
Y24410D01*
X119906D01*
Y24619D01*
X120114D01*
Y24827D01*
X120530D01*
Y25035D01*
X121363D01*
Y25243D01*
X122403D01*
Y25035D01*
D02*
G37*
G36*
X115536D02*
X116368D01*
Y24827D01*
X116784D01*
Y24619D01*
X116992D01*
Y24410D01*
X117409D01*
Y24202D01*
X117617D01*
Y23786D01*
X117825D01*
Y23578D01*
X118033D01*
Y21081D01*
X117825D01*
Y20873D01*
X117617D01*
Y20456D01*
X117409D01*
Y20248D01*
X117201D01*
Y20040D01*
X116784D01*
Y19832D01*
X116576D01*
Y19624D01*
X115952D01*
Y19416D01*
X114079D01*
Y19624D01*
X113454D01*
Y19832D01*
X113246D01*
Y20040D01*
X112830D01*
Y20248D01*
X112622D01*
Y20456D01*
X112414D01*
Y20873D01*
X112206D01*
Y21081D01*
X111998D01*
Y21705D01*
X111790D01*
Y22954D01*
X111998D01*
Y23578D01*
X112206D01*
Y23786D01*
X112414D01*
Y24202D01*
X112622D01*
Y24410D01*
X113038D01*
Y24619D01*
X113246D01*
Y24827D01*
X113663D01*
Y25035D01*
X114287D01*
Y25243D01*
X115536D01*
Y25035D01*
D02*
G37*
G36*
X109292Y26492D02*
X110333D01*
Y26075D01*
X110541D01*
Y25243D01*
X110749D01*
Y25035D01*
X111165D01*
Y24827D01*
X111373D01*
Y24202D01*
X111165D01*
Y23994D01*
X110749D01*
Y23786D01*
X110541D01*
Y21081D01*
Y20873D01*
Y20664D01*
X110333D01*
Y20040D01*
X110125D01*
Y19832D01*
X109916D01*
Y19624D01*
X109500D01*
Y19416D01*
X107419D01*
Y19624D01*
X107003D01*
Y19832D01*
X106795D01*
Y20456D01*
X107003D01*
Y20664D01*
X107835D01*
Y20873D01*
X108044D01*
Y21289D01*
X108252D01*
Y23786D01*
X108044D01*
Y23994D01*
X107003D01*
Y24410D01*
X106795D01*
Y24827D01*
X107003D01*
Y25035D01*
X108044D01*
Y25243D01*
X108252D01*
Y26492D01*
X108668D01*
Y26700D01*
X109292D01*
Y26492D01*
D02*
G37*
G36*
X110541Y11091D02*
X110957D01*
Y10883D01*
X111165D01*
Y10675D01*
X111373D01*
Y10467D01*
X111581D01*
Y10051D01*
X111790D01*
Y9843D01*
X111998D01*
Y7137D01*
X111790D01*
Y6721D01*
X111581D01*
Y6513D01*
X111373D01*
Y6305D01*
X111165D01*
Y6097D01*
X110957D01*
Y5888D01*
X110749D01*
Y5680D01*
X108876D01*
Y5888D01*
X108460D01*
Y6097D01*
X108252D01*
Y5888D01*
X108044D01*
Y5472D01*
X108252D01*
Y4848D01*
X108460D01*
Y4640D01*
X108876D01*
Y4431D01*
X110333D01*
Y4640D01*
X111373D01*
Y4223D01*
X111581D01*
Y3599D01*
X111373D01*
Y3391D01*
X110957D01*
Y3183D01*
X110333D01*
Y2975D01*
X108044D01*
Y3183D01*
X107627D01*
Y3391D01*
X107211D01*
Y3599D01*
X107003D01*
Y3807D01*
X106795D01*
Y4015D01*
X106587D01*
Y4223D01*
X106379D01*
Y4640D01*
X106170D01*
Y4848D01*
X105962D01*
Y5888D01*
X105754D01*
Y10883D01*
X105962D01*
Y11091D01*
X106170D01*
Y11299D01*
X107627D01*
Y11091D01*
X108044D01*
Y10883D01*
X108460D01*
Y11091D01*
X108876D01*
Y11299D01*
X110541D01*
Y11091D01*
D02*
G37*
G36*
X133642D02*
X134058D01*
Y10883D01*
X134474D01*
Y10675D01*
X134682D01*
Y10051D01*
X134474D01*
Y9843D01*
X133642D01*
Y10051D01*
X133017D01*
Y10259D01*
X132601D01*
Y10051D01*
X132185D01*
Y9634D01*
X132601D01*
Y9426D01*
X133433D01*
Y9218D01*
X133850D01*
Y9010D01*
X134474D01*
Y8802D01*
X134682D01*
Y8594D01*
X134890D01*
Y8386D01*
X135098D01*
Y7761D01*
X135307D01*
Y7553D01*
Y6929D01*
X135098D01*
Y6305D01*
X134890D01*
Y6097D01*
X134682D01*
Y5888D01*
X134474D01*
Y5680D01*
X132601D01*
Y5888D01*
X132393D01*
Y6097D01*
X131977D01*
Y5888D01*
X131769D01*
Y5680D01*
X129687D01*
Y6097D01*
X129479D01*
Y6305D01*
X129687D01*
Y9634D01*
X129895D01*
Y10259D01*
X130104D01*
Y10675D01*
X130312D01*
Y10883D01*
X130728D01*
Y11091D01*
X131144D01*
Y11299D01*
X133642D01*
Y11091D01*
D02*
G37*
G36*
X116992D02*
X117409D01*
Y10883D01*
X117825D01*
Y10675D01*
X118033D01*
Y10051D01*
X117825D01*
Y9843D01*
X116992D01*
Y10051D01*
X116368D01*
Y10259D01*
X116160D01*
Y10051D01*
X115536D01*
Y9634D01*
X115952D01*
Y9426D01*
X116784D01*
Y9218D01*
X117201D01*
Y9010D01*
X117825D01*
Y8802D01*
X118033D01*
Y8594D01*
X118241D01*
Y8386D01*
X118449D01*
Y7761D01*
X118657D01*
Y6721D01*
X118449D01*
Y6305D01*
X118241D01*
Y6097D01*
X118033D01*
Y5888D01*
X117825D01*
Y5680D01*
X115952D01*
Y5888D01*
X115744D01*
Y6097D01*
X115328D01*
Y5888D01*
X115119D01*
Y5680D01*
X113038D01*
Y9843D01*
X113246D01*
Y10259D01*
X113454D01*
Y10675D01*
X113663D01*
Y10883D01*
X114079D01*
Y11091D01*
X114495D01*
Y11299D01*
X116992D01*
Y11091D01*
D02*
G37*
G36*
X144880Y13172D02*
X145088D01*
Y5888D01*
X144880D01*
Y5680D01*
X143423D01*
Y5888D01*
X143215D01*
Y9634D01*
X143007D01*
Y9426D01*
X142799D01*
Y9010D01*
X142590D01*
Y8386D01*
X142382D01*
Y7970D01*
X142174D01*
Y7137D01*
X141966D01*
Y6721D01*
X141758D01*
Y6097D01*
X141550D01*
Y5888D01*
X141342D01*
Y5680D01*
X140509D01*
Y6097D01*
X140301D01*
Y6513D01*
X140093D01*
Y7137D01*
X139885D01*
Y7761D01*
X139677D01*
Y8386D01*
X139469D01*
Y9010D01*
X139261D01*
Y9426D01*
X138844D01*
Y5888D01*
X138636D01*
Y5680D01*
X136763D01*
Y5888D01*
X136555D01*
Y13172D01*
X136763D01*
Y13381D01*
X139261D01*
Y12964D01*
X139469D01*
Y12340D01*
X139677D01*
Y11716D01*
X139885D01*
Y11299D01*
X140093D01*
Y10467D01*
X140301D01*
Y9843D01*
X140509D01*
Y9426D01*
X140926D01*
Y9634D01*
X141134D01*
Y10259D01*
X141342D01*
Y10883D01*
X141550D01*
Y11091D01*
Y11507D01*
X141758D01*
Y12132D01*
X141966D01*
Y12756D01*
X142174D01*
Y13172D01*
X142382D01*
Y13381D01*
X144880D01*
Y13172D01*
D02*
G37*
G36*
X103049Y11091D02*
X103465D01*
Y10883D01*
X103673D01*
Y10675D01*
X104089D01*
Y10259D01*
X104297D01*
Y10051D01*
X104506D01*
Y9634D01*
X104714D01*
Y8802D01*
X104922D01*
Y8386D01*
X104714D01*
Y7345D01*
X104506D01*
Y7137D01*
X104297D01*
Y6721D01*
X104089D01*
Y6513D01*
X103881D01*
Y6305D01*
X103673D01*
Y6097D01*
X103257D01*
Y5888D01*
X102841D01*
Y5680D01*
X100135D01*
Y5888D01*
X99511D01*
Y6097D01*
X99303D01*
Y6929D01*
X99511D01*
Y7137D01*
X100759D01*
Y6929D01*
X101592D01*
Y7137D01*
X102008D01*
Y7345D01*
X102216D01*
Y7553D01*
X102424D01*
Y7970D01*
X102216D01*
Y8178D01*
X99303D01*
Y8594D01*
X99095D01*
Y9426D01*
X99303D01*
Y10051D01*
X99511D01*
Y10259D01*
X99719D01*
Y10675D01*
X99927D01*
Y10883D01*
X100135D01*
Y11091D01*
X100551D01*
Y11299D01*
X103049D01*
Y11091D01*
D02*
G37*
G36*
X127398D02*
X127814D01*
Y10883D01*
X128023D01*
Y10675D01*
X128231D01*
Y10259D01*
X128439D01*
Y9218D01*
X128231D01*
Y8802D01*
X128023D01*
Y8594D01*
X127814D01*
Y8386D01*
X127606D01*
Y8178D01*
X127398D01*
Y7970D01*
X126982D01*
Y7761D01*
X126774D01*
Y7553D01*
X126566D01*
Y6929D01*
X127606D01*
Y7137D01*
X128231D01*
Y6929D01*
X128439D01*
Y5888D01*
X128023D01*
Y5680D01*
X125525D01*
Y5888D01*
X125109D01*
Y6097D01*
X124901D01*
Y6305D01*
X124693D01*
Y6513D01*
X124485D01*
Y6929D01*
X124276D01*
Y7761D01*
X124485D01*
Y8178D01*
X124693D01*
Y8386D01*
X124901D01*
Y8594D01*
X125109D01*
Y8802D01*
X125317D01*
Y9010D01*
X125525D01*
Y9218D01*
X125941D01*
Y9426D01*
X126149D01*
Y10051D01*
X124901D01*
Y10259D01*
X124693D01*
Y11091D01*
X125109D01*
Y11299D01*
X127398D01*
Y11091D01*
D02*
G37*
G36*
X122403D02*
X122820D01*
Y10883D01*
X123028D01*
Y10675D01*
X123236D01*
Y10467D01*
X123444D01*
Y9010D01*
X123236D01*
Y8802D01*
X123028D01*
Y8594D01*
X122820D01*
Y8386D01*
X122611D01*
Y8178D01*
X122403D01*
Y7970D01*
X122195D01*
Y7761D01*
X121779D01*
Y7345D01*
X121571D01*
Y7137D01*
X121779D01*
Y6929D01*
X122820D01*
Y7137D01*
X123236D01*
Y6929D01*
X123444D01*
Y6513D01*
X123652D01*
Y6305D01*
X123444D01*
Y5888D01*
X123028D01*
Y5680D01*
X120530D01*
Y5888D01*
X120114D01*
Y6097D01*
X119906D01*
Y6305D01*
X119698D01*
Y6513D01*
X119490D01*
Y6929D01*
X119282D01*
Y7553D01*
X119490D01*
Y8178D01*
X119698D01*
Y8386D01*
X119906D01*
Y8594D01*
X120114D01*
Y8802D01*
X120322D01*
Y9010D01*
X120738D01*
Y9218D01*
X120947D01*
Y9426D01*
X121155D01*
Y10051D01*
X119906D01*
Y10259D01*
X119698D01*
Y11091D01*
X120114D01*
Y11299D01*
X122403D01*
Y11091D01*
D02*
G37*
G36*
X85359Y61455D02*
X86400D01*
Y61247D01*
X88064D01*
Y61039D01*
X88897D01*
Y60830D01*
X89729D01*
Y60622D01*
X90562D01*
Y60414D01*
X91186D01*
Y60206D01*
X91811D01*
Y59998D01*
X92227D01*
Y59790D01*
X92643D01*
Y59582D01*
X93267D01*
Y59374D01*
X93684D01*
Y59166D01*
X94100D01*
Y58957D01*
X94516D01*
Y58749D01*
X94932D01*
Y58541D01*
X95349D01*
Y58333D01*
X95765D01*
Y58125D01*
X96181D01*
Y57917D01*
X96597D01*
Y57709D01*
X96805D01*
Y57501D01*
X97222D01*
Y57293D01*
X97430D01*
Y57085D01*
X97846D01*
Y56876D01*
X98054D01*
Y56668D01*
X98262D01*
Y56460D01*
X98470D01*
Y56252D01*
X98887D01*
Y56044D01*
X99095D01*
Y55836D01*
X99303D01*
Y55628D01*
X99511D01*
Y55420D01*
X99719D01*
Y55211D01*
X99927D01*
Y55003D01*
X100135D01*
Y54795D01*
X100343D01*
Y54587D01*
X100551D01*
Y54379D01*
X100759D01*
Y54171D01*
X100968D01*
Y53963D01*
X101176D01*
Y53547D01*
X101384D01*
Y53338D01*
X101592D01*
Y53130D01*
X101800D01*
Y52714D01*
X102008D01*
Y52506D01*
X102216D01*
Y52090D01*
X102424D01*
Y51882D01*
X102632D01*
Y51257D01*
X102841D01*
Y51049D01*
X103049D01*
Y50425D01*
X103257D01*
Y50009D01*
X103465D01*
Y49592D01*
X103673D01*
Y48760D01*
X103881D01*
Y48344D01*
X104089D01*
Y47719D01*
X104297D01*
Y46887D01*
X104506D01*
Y46054D01*
X104714D01*
Y45014D01*
X104922D01*
Y43973D01*
X105130D01*
Y42725D01*
X105338D01*
Y40852D01*
X105546D01*
Y38146D01*
X105754D01*
Y37730D01*
X105546D01*
Y34816D01*
X105338D01*
Y32111D01*
X105130D01*
Y30446D01*
X104922D01*
Y29197D01*
X104714D01*
Y27948D01*
X104506D01*
Y27116D01*
X104297D01*
Y25867D01*
X104089D01*
Y25035D01*
X103881D01*
Y24202D01*
X103673D01*
Y23162D01*
X103465D01*
Y22537D01*
X103257D01*
Y21913D01*
X103049D01*
Y21081D01*
X102841D01*
Y20456D01*
X102632D01*
Y19624D01*
X102424D01*
Y19208D01*
X102216D01*
Y18583D01*
X102008D01*
Y17751D01*
X101800D01*
Y17335D01*
X101592D01*
Y16918D01*
X101384D01*
Y16294D01*
X101176D01*
Y15878D01*
X100968D01*
Y15254D01*
X100759D01*
Y14837D01*
X100551D01*
Y14421D01*
X100343D01*
Y14005D01*
X100135D01*
Y13589D01*
X99927D01*
Y13172D01*
X99719D01*
Y12756D01*
X99511D01*
Y12340D01*
X99303D01*
Y11924D01*
X99095D01*
Y11716D01*
X98887D01*
Y11299D01*
X98678D01*
Y10883D01*
X98470D01*
Y10675D01*
X98262D01*
Y10259D01*
X98054D01*
Y10051D01*
X97846D01*
Y9843D01*
X97638D01*
Y9426D01*
X97430D01*
Y9218D01*
X97222D01*
Y9010D01*
X97013D01*
Y8802D01*
X96805D01*
Y8386D01*
X96597D01*
Y8178D01*
X96389D01*
Y7970D01*
X96181D01*
Y7761D01*
X95973D01*
Y7553D01*
X95765D01*
Y7345D01*
X95557D01*
Y7137D01*
X95349D01*
Y6929D01*
X95140D01*
Y6721D01*
X94932D01*
Y6513D01*
X94516D01*
Y6305D01*
X94308D01*
Y6097D01*
X94100D01*
Y5888D01*
X93684D01*
Y5680D01*
X93267D01*
Y5472D01*
X93059D01*
Y5264D01*
X92643D01*
Y5056D01*
X92227D01*
Y4848D01*
X91811D01*
Y4640D01*
X90978D01*
Y4431D01*
X90146D01*
Y4223D01*
X89313D01*
Y4015D01*
X87648D01*
Y3807D01*
X84110D01*
Y4015D01*
X82654D01*
Y4223D01*
X82029D01*
Y4431D01*
X81613D01*
Y4640D01*
X80989D01*
Y4848D01*
X80781D01*
Y5056D01*
X80364D01*
Y5264D01*
X80156D01*
Y5472D01*
X79740D01*
Y5680D01*
X79532D01*
Y5888D01*
X79324D01*
Y6097D01*
X79116D01*
Y6305D01*
X78908D01*
Y6721D01*
X78699D01*
Y6929D01*
X78491D01*
Y7345D01*
X78283D01*
Y7761D01*
X78075D01*
Y8178D01*
X77867D01*
Y9218D01*
X77659D01*
Y10675D01*
X77867D01*
Y11716D01*
X78075D01*
Y12340D01*
X78283D01*
Y12964D01*
X78491D01*
Y13381D01*
X78699D01*
Y14005D01*
X78908D01*
Y14421D01*
X79116D01*
Y14837D01*
X79324D01*
Y15254D01*
X79532D01*
Y15670D01*
X79740D01*
Y16086D01*
X79948D01*
Y16502D01*
X80156D01*
Y16710D01*
X80364D01*
Y17127D01*
X80572D01*
Y17543D01*
X80781D01*
Y17751D01*
X80989D01*
Y18167D01*
X81197D01*
Y18583D01*
X81405D01*
Y19000D01*
X81613D01*
Y19416D01*
X81821D01*
Y19624D01*
X82029D01*
Y20040D01*
X82237D01*
Y20456D01*
X82446D01*
Y20664D01*
X82654D01*
Y21081D01*
X82862D01*
Y21497D01*
X83070D01*
Y21913D01*
X83278D01*
Y22329D01*
X83486D01*
Y22746D01*
X83694D01*
Y23162D01*
X83902D01*
Y23578D01*
X84110D01*
Y23994D01*
X84319D01*
Y24619D01*
X84527D01*
Y25243D01*
X84735D01*
Y26075D01*
X84943D01*
Y28989D01*
X84735D01*
Y29822D01*
X84527D01*
Y30446D01*
X84319D01*
Y31070D01*
X84110D01*
Y31486D01*
X83902D01*
Y31903D01*
X83694D01*
Y32111D01*
X83486D01*
Y32319D01*
X83278D01*
Y32735D01*
X83070D01*
Y32943D01*
X82862D01*
Y33151D01*
X82654D01*
Y33359D01*
X82446D01*
Y33568D01*
X82237D01*
Y33776D01*
X82029D01*
Y33984D01*
X81821D01*
Y34192D01*
X81613D01*
Y34400D01*
X81197D01*
Y34608D01*
X80989D01*
Y34816D01*
X80572D01*
Y35024D01*
X80364D01*
Y35232D01*
X79948D01*
Y35441D01*
X79532D01*
Y35649D01*
X79116D01*
Y35857D01*
X78491D01*
Y36065D01*
X77867D01*
Y36273D01*
X77451D01*
Y36481D01*
X76618D01*
Y36689D01*
X75786D01*
Y36897D01*
X74953D01*
Y37106D01*
X73288D01*
Y37314D01*
X72248D01*
Y37522D01*
X71415D01*
Y37730D01*
X70999D01*
Y37938D01*
X70583D01*
Y38146D01*
X70167D01*
Y38354D01*
X69750D01*
Y38562D01*
X69334D01*
Y38770D01*
X69126D01*
Y38978D01*
X68918D01*
Y39187D01*
X68710D01*
Y39395D01*
X68502D01*
Y39603D01*
X68294D01*
Y39811D01*
X68086D01*
Y40019D01*
X67877D01*
Y40227D01*
X67669D01*
Y40435D01*
X67461D01*
Y40852D01*
X67253D01*
Y41268D01*
X67045D01*
Y41684D01*
X66837D01*
Y42308D01*
X66629D01*
Y43141D01*
X66421D01*
Y43765D01*
X66212D01*
Y45222D01*
X66004D01*
Y47511D01*
X66212D01*
Y49384D01*
X66421D01*
Y50009D01*
X66629D01*
Y50841D01*
X66837D01*
Y51465D01*
X67045D01*
Y52090D01*
X67253D01*
Y52714D01*
X67461D01*
Y53130D01*
X67669D01*
Y53547D01*
X67877D01*
Y53963D01*
X68086D01*
Y54379D01*
X68294D01*
Y54587D01*
X68502D01*
Y55003D01*
X68710D01*
Y55211D01*
X68918D01*
Y55628D01*
X69126D01*
Y55836D01*
X69334D01*
Y56252D01*
X69542D01*
Y56460D01*
X69750D01*
Y56668D01*
X69959D01*
Y56876D01*
X70167D01*
Y57085D01*
X70375D01*
Y57293D01*
X70583D01*
Y57501D01*
X70791D01*
Y57709D01*
X70999D01*
Y57917D01*
X71207D01*
Y58125D01*
X71415D01*
Y58333D01*
X71832D01*
Y58541D01*
X72040D01*
Y58749D01*
X72248D01*
Y58957D01*
X72664D01*
Y59166D01*
X73080D01*
Y59374D01*
X73497D01*
Y59582D01*
X73913D01*
Y59790D01*
X74329D01*
Y59998D01*
X74953D01*
Y60206D01*
X75578D01*
Y60414D01*
X75994D01*
Y60622D01*
X76826D01*
Y60830D01*
X77659D01*
Y61039D01*
X78491D01*
Y61247D01*
X79948D01*
Y61455D01*
X81197D01*
Y61663D01*
X85359D01*
Y61455D01*
D02*
G37*
%LPC*%
G36*
X115328Y51882D02*
X114911D01*
Y51674D01*
X114703D01*
Y51465D01*
X114495D01*
Y50841D01*
X114703D01*
Y50633D01*
X115536D01*
Y50841D01*
X115744D01*
Y51049D01*
Y51465D01*
X115536D01*
Y51674D01*
X115328D01*
Y51882D01*
D02*
G37*
G36*
X129895Y51674D02*
X129063D01*
Y51465D01*
X128855D01*
Y50841D01*
X128647D01*
Y48968D01*
X128855D01*
Y48552D01*
X129063D01*
Y48344D01*
X129271D01*
Y48136D01*
X129687D01*
Y48344D01*
X129895D01*
Y48552D01*
X130104D01*
Y48968D01*
X130312D01*
Y51049D01*
X130104D01*
Y51465D01*
X129895D01*
Y51674D01*
D02*
G37*
G36*
X113038Y36689D02*
X112414D01*
Y36481D01*
X112206D01*
Y36273D01*
X111998D01*
Y36065D01*
X111790D01*
Y35857D01*
X111581D01*
Y35649D01*
X111373D01*
Y35441D01*
X111165D01*
Y34816D01*
X112622D01*
Y35024D01*
X113038D01*
Y35441D01*
X113246D01*
Y36481D01*
X113038D01*
Y36689D01*
D02*
G37*
G36*
X139469Y39811D02*
X138844D01*
Y39603D01*
X138428D01*
Y39395D01*
Y39187D01*
X138220D01*
Y38770D01*
X138428D01*
Y38354D01*
X138636D01*
Y38146D01*
X139677D01*
Y39603D01*
X139469D01*
Y39811D01*
D02*
G37*
G36*
Y36689D02*
X138636D01*
Y36481D01*
X138220D01*
Y36273D01*
X138012D01*
Y35441D01*
X138220D01*
Y35024D01*
X138428D01*
Y34816D01*
X139052D01*
Y34608D01*
X139261D01*
Y34816D01*
X139677D01*
Y35441D01*
Y35649D01*
Y36481D01*
X139469D01*
Y36689D01*
D02*
G37*
G36*
X131769Y39811D02*
X131144D01*
Y39603D01*
X130728D01*
Y39187D01*
X130520D01*
Y38562D01*
X130728D01*
Y38354D01*
X130936D01*
Y38146D01*
X131769D01*
Y38354D01*
X131977D01*
Y39603D01*
X131769D01*
Y39811D01*
D02*
G37*
G36*
Y36689D02*
X130728D01*
Y36481D01*
X130520D01*
Y36273D01*
X130312D01*
Y35232D01*
X130520D01*
Y35024D01*
X130728D01*
Y34816D01*
X131769D01*
Y35024D01*
X131977D01*
Y36273D01*
Y36481D01*
X131769D01*
Y36689D01*
D02*
G37*
G36*
X123444Y39603D02*
X123028D01*
Y39395D01*
X122611D01*
Y39187D01*
X122403D01*
Y38978D01*
X122195D01*
Y38562D01*
X121987D01*
Y35857D01*
X122195D01*
Y35441D01*
X122403D01*
Y35232D01*
X122611D01*
Y35024D01*
X123028D01*
Y34816D01*
X123444D01*
Y35024D01*
X123860D01*
Y35232D01*
X124068D01*
Y35441D01*
X124276D01*
Y35857D01*
X124485D01*
Y38770D01*
X124276D01*
Y38978D01*
X124068D01*
Y39187D01*
X123860D01*
Y39395D01*
X123444D01*
Y39603D01*
D02*
G37*
G36*
X122403Y23994D02*
X121571D01*
Y23786D01*
X121363D01*
Y23578D01*
X121155D01*
Y22121D01*
Y21913D01*
Y21289D01*
X121363D01*
Y20664D01*
X121779D01*
Y20456D01*
X122195D01*
Y20664D01*
X122403D01*
Y20873D01*
X122611D01*
Y21497D01*
X122820D01*
Y23162D01*
X122611D01*
Y23578D01*
X122403D01*
Y23994D01*
D02*
G37*
G36*
X115119Y24202D02*
X114911D01*
Y23994D01*
X114495D01*
Y23786D01*
X114287D01*
Y22954D01*
X114079D01*
Y21705D01*
X114287D01*
Y20873D01*
X114495D01*
Y20664D01*
X114911D01*
Y20456D01*
X115119D01*
Y20664D01*
X115536D01*
Y21081D01*
X115744D01*
Y23578D01*
X115536D01*
Y23786D01*
X115328D01*
Y23994D01*
X115119D01*
Y24202D01*
D02*
G37*
G36*
X109292Y10051D02*
X108460D01*
Y9843D01*
X108252D01*
Y9218D01*
X108044D01*
Y7761D01*
X108252D01*
Y7137D01*
X108460D01*
Y6929D01*
X109292D01*
Y7137D01*
X109500D01*
Y7761D01*
X109708D01*
Y9426D01*
X109500D01*
Y9843D01*
X109292D01*
Y10051D01*
D02*
G37*
G36*
X132601Y8386D02*
X131977D01*
Y7553D01*
X132185D01*
Y7137D01*
X132601D01*
Y6929D01*
X132809D01*
Y7137D01*
X133017D01*
Y7345D01*
X133225D01*
Y7761D01*
X133017D01*
Y8178D01*
X132601D01*
Y8386D01*
D02*
G37*
G36*
X115952D02*
X115328D01*
Y7553D01*
X115536D01*
Y7137D01*
X115952D01*
Y6929D01*
X116160D01*
Y7137D01*
X116368D01*
Y7345D01*
X116576D01*
Y7761D01*
X116368D01*
Y7970D01*
X116160D01*
Y8178D01*
X115952D01*
Y8386D01*
D02*
G37*
G36*
X102216Y10259D02*
X101384D01*
Y10051D01*
X101176D01*
Y9634D01*
X100968D01*
Y9426D01*
X101176D01*
Y9218D01*
X102424D01*
Y9843D01*
X102216D01*
Y10051D01*
Y10259D01*
D02*
G37*
G36*
X75578Y56876D02*
X75161D01*
Y56668D01*
X74953D01*
Y56460D01*
X75161D01*
Y56252D01*
X75578D01*
Y55628D01*
X74953D01*
Y56044D01*
X74745D01*
Y56252D01*
X74537D01*
Y56460D01*
X73913D01*
Y56668D01*
X73288D01*
Y56460D01*
X72664D01*
Y56252D01*
X72456D01*
Y55836D01*
X72664D01*
Y55628D01*
X73080D01*
Y55420D01*
X73497D01*
Y55211D01*
X73913D01*
Y54379D01*
X73705D01*
Y54171D01*
X73497D01*
Y53963D01*
X73288D01*
Y53755D01*
X73080D01*
Y53547D01*
X72872D01*
Y53130D01*
X72664D01*
Y52714D01*
X72456D01*
Y52090D01*
X72248D01*
Y51465D01*
X72040D01*
Y51049D01*
X71832D01*
Y50633D01*
X71623D01*
Y50425D01*
X71415D01*
Y50217D01*
X71207D01*
Y50009D01*
X70999D01*
Y49801D01*
X70583D01*
Y49592D01*
X70375D01*
Y48760D01*
X70583D01*
Y48344D01*
X70791D01*
Y48136D01*
X70999D01*
Y47927D01*
X71207D01*
Y47719D01*
X71415D01*
Y47511D01*
X75786D01*
Y47719D01*
X76410D01*
Y47511D01*
X76826D01*
Y47303D01*
X77034D01*
Y47095D01*
X77243D01*
Y46887D01*
X77451D01*
Y46471D01*
X77659D01*
Y41476D01*
X77451D01*
Y39811D01*
X78283D01*
Y40019D01*
X78491D01*
Y40435D01*
X78699D01*
Y40643D01*
X78908D01*
Y40852D01*
X79116D01*
Y42725D01*
X79324D01*
Y43349D01*
X79532D01*
Y43973D01*
X79740D01*
Y44390D01*
X80364D01*
Y44181D01*
X80572D01*
Y43349D01*
X80781D01*
Y42933D01*
X80989D01*
Y42308D01*
X81197D01*
Y40643D01*
X81405D01*
Y39395D01*
X81613D01*
Y39187D01*
X82237D01*
Y39395D01*
X82446D01*
Y40019D01*
X82654D01*
Y40227D01*
X82862D01*
Y40643D01*
X83070D01*
Y40852D01*
X83278D01*
Y42100D01*
X83070D01*
Y43141D01*
X82862D01*
Y44390D01*
X83070D01*
Y45014D01*
X83278D01*
Y45430D01*
X83486D01*
Y45638D01*
X84110D01*
Y45430D01*
X84943D01*
Y45222D01*
X87232D01*
Y45014D01*
X87856D01*
Y45222D01*
X89521D01*
Y45430D01*
X90562D01*
Y45014D01*
X90770D01*
Y42516D01*
X90562D01*
Y41892D01*
X90354D01*
Y41268D01*
X90146D01*
Y40852D01*
X89938D01*
Y39811D01*
X90562D01*
Y40019D01*
X90978D01*
Y40227D01*
X91186D01*
Y40435D01*
X91602D01*
Y40852D01*
X91811D01*
Y41892D01*
X92019D01*
Y42516D01*
X92227D01*
Y42725D01*
X92435D01*
Y43141D01*
X92643D01*
Y43349D01*
X92851D01*
Y43557D01*
X93267D01*
Y42933D01*
X93476D01*
Y41476D01*
X93267D01*
Y40227D01*
X93476D01*
Y39395D01*
X94100D01*
Y39603D01*
X94308D01*
Y39811D01*
X94516D01*
Y40019D01*
X94724D01*
Y40227D01*
X94932D01*
Y40852D01*
X95140D01*
Y42100D01*
X95349D01*
Y42933D01*
X95557D01*
Y43349D01*
X95765D01*
Y43765D01*
X95973D01*
Y43973D01*
X95765D01*
Y44390D01*
X95557D01*
Y44598D01*
X95349D01*
Y44806D01*
X95140D01*
Y45846D01*
X95349D01*
Y46262D01*
X95557D01*
Y46887D01*
X95765D01*
Y47511D01*
X95973D01*
Y47927D01*
X96181D01*
Y48344D01*
X96389D01*
Y48968D01*
X96597D01*
Y50633D01*
X96389D01*
Y51257D01*
X96181D01*
Y52298D01*
X96389D01*
Y52922D01*
X96181D01*
Y52714D01*
X95973D01*
Y52506D01*
X95349D01*
Y52922D01*
X94932D01*
Y53130D01*
X94724D01*
Y53338D01*
X94308D01*
Y53547D01*
X93892D01*
Y53755D01*
X93684D01*
Y53963D01*
X93059D01*
Y54171D01*
X91811D01*
Y54379D01*
X90770D01*
Y54171D01*
X85983D01*
Y53963D01*
X82029D01*
Y53755D01*
X81821D01*
Y53963D01*
X80781D01*
Y54171D01*
X80156D01*
Y54379D01*
X79948D01*
Y54587D01*
X79324D01*
Y54795D01*
X78908D01*
Y55003D01*
X78283D01*
Y55211D01*
X77659D01*
Y55420D01*
X77451D01*
Y55628D01*
X77243D01*
Y55836D01*
X77034D01*
Y56252D01*
X76618D01*
Y56460D01*
X76202D01*
Y56668D01*
X75578D01*
Y56876D01*
D02*
G37*
%LPD*%
M02*
