G04*
G04 #@! TF.GenerationSoftware,Altium Limited,Altium Designer,23.9.2 (47)*
G04*
G04 Layer_Physical_Order=1*
G04 Layer_Color=255*
%FSLAX25Y25*%
%MOIN*%
G70*
G04*
G04 #@! TF.SameCoordinates,F644929B-0515-4FFE-9EA4-74E11A0DFDDC*
G04*
G04*
G04 #@! TF.FilePolarity,Positive*
G04*
G01*
G75*
%ADD12C,0.02362*%
%ADD15C,0.01500*%
%ADD17R,0.05118X0.05118*%
G04:AMPARAMS|DCode=18|XSize=39.37mil|YSize=37.4mil|CornerRadius=4.68mil|HoleSize=0mil|Usage=FLASHONLY|Rotation=270.000|XOffset=0mil|YOffset=0mil|HoleType=Round|Shape=RoundedRectangle|*
%AMROUNDEDRECTD18*
21,1,0.03937,0.02805,0,0,270.0*
21,1,0.03002,0.03740,0,0,270.0*
1,1,0.00935,-0.01403,-0.01501*
1,1,0.00935,-0.01403,0.01501*
1,1,0.00935,0.01403,0.01501*
1,1,0.00935,0.01403,-0.01501*
%
%ADD18ROUNDEDRECTD18*%
%ADD19R,0.03543X0.03150*%
%ADD20O,0.05709X0.02362*%
G04:AMPARAMS|DCode=21|XSize=39.37mil|YSize=37.4mil|CornerRadius=4.68mil|HoleSize=0mil|Usage=FLASHONLY|Rotation=180.000|XOffset=0mil|YOffset=0mil|HoleType=Round|Shape=RoundedRectangle|*
%AMROUNDEDRECTD21*
21,1,0.03937,0.02805,0,0,180.0*
21,1,0.03002,0.03740,0,0,180.0*
1,1,0.00935,-0.01501,0.01403*
1,1,0.00935,0.01501,0.01403*
1,1,0.00935,0.01501,-0.01403*
1,1,0.00935,-0.01501,-0.01403*
%
%ADD21ROUNDEDRECTD21*%
G04:AMPARAMS|DCode=22|XSize=39.37mil|YSize=39.37mil|CornerRadius=4.92mil|HoleSize=0mil|Usage=FLASHONLY|Rotation=180.000|XOffset=0mil|YOffset=0mil|HoleType=Round|Shape=RoundedRectangle|*
%AMROUNDEDRECTD22*
21,1,0.03937,0.02953,0,0,180.0*
21,1,0.02953,0.03937,0,0,180.0*
1,1,0.00984,-0.01476,0.01476*
1,1,0.00984,0.01476,0.01476*
1,1,0.00984,0.01476,-0.01476*
1,1,0.00984,-0.01476,-0.01476*
%
%ADD22ROUNDEDRECTD22*%
%ADD23R,0.03150X0.03543*%
G04:AMPARAMS|DCode=24|XSize=39.37mil|YSize=39.37mil|CornerRadius=4.92mil|HoleSize=0mil|Usage=FLASHONLY|Rotation=270.000|XOffset=0mil|YOffset=0mil|HoleType=Round|Shape=RoundedRectangle|*
%AMROUNDEDRECTD24*
21,1,0.03937,0.02953,0,0,270.0*
21,1,0.02953,0.03937,0,0,270.0*
1,1,0.00984,-0.01476,-0.01476*
1,1,0.00984,-0.01476,0.01476*
1,1,0.00984,0.01476,0.01476*
1,1,0.00984,0.01476,-0.01476*
%
%ADD24ROUNDEDRECTD24*%
%ADD35C,0.01575*%
%ADD36C,0.03937*%
%ADD37C,0.07087*%
%ADD38C,0.03000*%
G36*
X194882Y74000D02*
X195191Y74000D01*
X195796Y73880D01*
X196367Y73644D01*
X196880Y73301D01*
X197316Y72864D01*
X197659Y72351D01*
X197896Y71780D01*
X198016Y71175D01*
X198016Y70866D01*
X198016Y70865D01*
Y66929D01*
X198020Y66909D01*
X198017Y66890D01*
X198036Y66504D01*
X198050Y66446D01*
Y66387D01*
X198201Y65630D01*
X198231Y65557D01*
X198247Y65479D01*
X198542Y64766D01*
X198586Y64700D01*
X198616Y64627D01*
X198819Y64324D01*
Y41891D01*
X175093D01*
X175032Y42039D01*
X174384Y42884D01*
X173539Y43532D01*
X172555Y43939D01*
X171500Y44078D01*
X170445Y43939D01*
X169461Y43532D01*
X168616Y42884D01*
X167968Y42039D01*
X167561Y41056D01*
X167422Y40000D01*
X167561Y38945D01*
X167968Y37961D01*
X168616Y37116D01*
X169461Y36468D01*
X170445Y36061D01*
X171500Y35922D01*
X172555Y36061D01*
X173539Y36468D01*
X174384Y37116D01*
X175032Y37961D01*
X175240Y38463D01*
X198819D01*
Y34821D01*
X176343D01*
X175841Y34721D01*
X175415Y34437D01*
X174088Y33110D01*
X173539Y33532D01*
X172555Y33939D01*
X171500Y34078D01*
X170445Y33939D01*
X169461Y33532D01*
X168616Y32884D01*
X167968Y32039D01*
X167917Y31914D01*
X163534D01*
X162571Y31723D01*
X161755Y31177D01*
X161394Y30816D01*
X160894Y30874D01*
Y37537D01*
X169718Y46362D01*
X170445Y46061D01*
X171500Y45922D01*
X172555Y46061D01*
X173539Y46468D01*
X174384Y47116D01*
X175032Y47961D01*
X175439Y48945D01*
X175578Y50000D01*
X175439Y51056D01*
X175032Y52039D01*
X174384Y52884D01*
X173539Y53532D01*
X172555Y53939D01*
X171500Y54078D01*
X170445Y53939D01*
X169461Y53532D01*
X168616Y52884D01*
X168335Y52517D01*
X162080D01*
X160209Y54388D01*
Y55175D01*
X159275D01*
X158900Y55425D01*
X157937Y55617D01*
X156974Y55425D01*
X156599Y55175D01*
X155665D01*
Y54143D01*
X155612Y54063D01*
X155420Y53100D01*
X155612Y52137D01*
X155665Y52057D01*
Y51025D01*
X156452D01*
X159257Y48220D01*
X160074Y47675D01*
X161037Y47483D01*
X166473D01*
X166665Y47021D01*
X158653Y39009D01*
X158368Y38583D01*
X158268Y38081D01*
Y26789D01*
X158368Y26287D01*
X158653Y25861D01*
X160272Y24241D01*
X160698Y23957D01*
X161201Y23857D01*
X198819D01*
Y10479D01*
X198616Y10176D01*
X198586Y10103D01*
X198542Y10037D01*
X198247Y9324D01*
X198231Y9246D01*
X198201Y9173D01*
X198050Y8416D01*
X198050Y8357D01*
X198036Y8299D01*
X198017Y7913D01*
X198020Y7894D01*
X198016Y7874D01*
X198016Y3937D01*
X198016Y3937D01*
X198016Y3937D01*
X198016Y3628D01*
X197896Y3023D01*
X197660Y2452D01*
X197317Y1939D01*
X196880Y1502D01*
X196367Y1159D01*
X195796Y923D01*
X195191Y803D01*
X194882Y803D01*
X194882Y803D01*
X194882Y803D01*
X3937D01*
X3937Y803D01*
X3937Y803D01*
X3628Y803D01*
X3023Y923D01*
X2452Y1159D01*
X1939Y1502D01*
X1503Y1939D01*
X1159Y2452D01*
X923Y3023D01*
X803Y3628D01*
X803Y3937D01*
Y70866D01*
Y71175D01*
X923Y71780D01*
X1159Y72351D01*
X1503Y72864D01*
X1939Y73301D01*
X2452Y73644D01*
X3023Y73880D01*
X3628Y74000D01*
X3937Y74000D01*
X3937Y74000D01*
X194882Y74000D01*
D02*
G37*
G36*
X198819Y26482D02*
X174335D01*
X174174Y26955D01*
X174384Y27116D01*
X175032Y27961D01*
X175439Y28945D01*
X175578Y30000D01*
X175475Y30784D01*
X176887Y32196D01*
X198819D01*
Y26482D01*
D02*
G37*
%LPC*%
G36*
X60701Y73039D02*
X57699D01*
X57322Y72964D01*
X57002Y72750D01*
X56788Y72430D01*
X56713Y72052D01*
Y70424D01*
X21987D01*
Y70552D01*
X21912Y70930D01*
X21699Y71250D01*
X21378Y71464D01*
X21001Y71539D01*
X17999D01*
X17621Y71464D01*
X17301Y71250D01*
X17088Y70930D01*
X17012Y70552D01*
Y67747D01*
X17088Y67370D01*
X17301Y67049D01*
X17621Y66836D01*
X17999Y66761D01*
X21001D01*
X21378Y66836D01*
X21699Y67049D01*
X21912Y67370D01*
X21987Y67747D01*
Y67875D01*
X63323D01*
X63599Y67599D01*
X63895Y67401D01*
X77973Y53323D01*
X78008Y53150D01*
X78185Y52885D01*
Y50291D01*
X82335D01*
Y54835D01*
X80066D01*
X65500Y69401D01*
X65203Y69599D01*
X64752Y70051D01*
X64338Y70327D01*
X63850Y70424D01*
X61687D01*
Y72052D01*
X61612Y72430D01*
X61399Y72750D01*
X61079Y72964D01*
X60701Y73039D01*
D02*
G37*
G36*
Y66739D02*
X59450D01*
Y64600D01*
X61687D01*
Y65753D01*
X61612Y66131D01*
X61399Y66451D01*
X61079Y66664D01*
X60701Y66739D01*
D02*
G37*
G36*
X58950D02*
X57699D01*
X57322Y66664D01*
X57002Y66451D01*
X56788Y66131D01*
X56713Y65753D01*
Y64600D01*
X58950D01*
Y66739D01*
D02*
G37*
G36*
X105001Y63539D02*
X101999D01*
X101621Y63463D01*
X101302Y63250D01*
X101088Y62930D01*
X101013Y62552D01*
Y62424D01*
X86075D01*
Y62709D01*
X81925D01*
Y58165D01*
X86075D01*
Y59875D01*
X101013D01*
Y59747D01*
X101088Y59369D01*
X101302Y59049D01*
X101621Y58836D01*
X101999Y58761D01*
X105001D01*
X105378Y58836D01*
X105699Y59049D01*
X105912Y59369D01*
X105948Y59550D01*
X119513D01*
Y59097D01*
X119588Y58720D01*
X119801Y58400D01*
X120122Y58186D01*
X120499Y58111D01*
X123501D01*
X123879Y58186D01*
X124198Y58400D01*
X124412Y58720D01*
X124487Y59097D01*
Y59225D01*
X145678D01*
X147791Y57113D01*
Y54765D01*
X152335D01*
Y58915D01*
X149594D01*
X147108Y61401D01*
X146694Y61677D01*
X146206Y61774D01*
X124487D01*
Y61903D01*
X124412Y62280D01*
X124198Y62600D01*
X123879Y62814D01*
X123501Y62889D01*
X120499D01*
X120122Y62814D01*
X119801Y62600D01*
X119588Y62280D01*
X119552Y62099D01*
X105987D01*
Y62552D01*
X105912Y62930D01*
X105699Y63250D01*
X105378Y63463D01*
X105001Y63539D01*
D02*
G37*
G36*
X61687Y64100D02*
X59450D01*
Y61961D01*
X60701D01*
X61079Y62037D01*
X61399Y62250D01*
X61612Y62570D01*
X61687Y62948D01*
Y64100D01*
D02*
G37*
G36*
X58950D02*
X56713D01*
Y62948D01*
X56788Y62570D01*
X57002Y62250D01*
X57322Y62037D01*
X57699Y61961D01*
X58950D01*
Y64100D01*
D02*
G37*
G36*
X123501Y56590D02*
X122250D01*
Y54451D01*
X124487D01*
Y55603D01*
X124412Y55981D01*
X124198Y56301D01*
X123879Y56515D01*
X123501Y56590D01*
D02*
G37*
G36*
X121750D02*
X120499D01*
X120122Y56515D01*
X119801Y56301D01*
X119588Y55981D01*
X119513Y55603D01*
Y54451D01*
X121750D01*
Y56590D01*
D02*
G37*
G36*
X89815Y54835D02*
X87990D01*
Y52813D01*
X89815D01*
Y54835D01*
D02*
G37*
G36*
X87490D02*
X85665D01*
Y52813D01*
X87490D01*
Y54835D01*
D02*
G37*
G36*
X105001Y57239D02*
X101999D01*
X101621Y57164D01*
X101302Y56950D01*
X101088Y56630D01*
X101013Y56253D01*
Y53448D01*
X101088Y53070D01*
X101302Y52750D01*
X101621Y52536D01*
X101999Y52461D01*
X105001D01*
X105378Y52536D01*
X105699Y52750D01*
X105912Y53070D01*
X105921Y53113D01*
X107554D01*
X107858Y52658D01*
X108520Y52216D01*
X109300Y52061D01*
X110080Y52216D01*
X110742Y52658D01*
X111184Y53320D01*
X111339Y54100D01*
X111184Y54880D01*
X110742Y55542D01*
X110080Y55984D01*
X109300Y56139D01*
X108520Y55984D01*
X108037Y55661D01*
X105987D01*
Y56253D01*
X105912Y56630D01*
X105699Y56950D01*
X105378Y57164D01*
X105001Y57239D01*
D02*
G37*
G36*
X124487Y53951D02*
X122250D01*
Y51812D01*
X123501D01*
X123879Y51887D01*
X124198Y52101D01*
X124412Y52421D01*
X124487Y52798D01*
Y53951D01*
D02*
G37*
G36*
X121750D02*
X119513D01*
Y52798D01*
X119588Y52421D01*
X119801Y52101D01*
X120122Y51887D01*
X120499Y51812D01*
X121750D01*
Y53951D01*
D02*
G37*
G36*
X60976Y53288D02*
X59750D01*
Y51050D01*
X61988D01*
Y52276D01*
X61911Y52663D01*
X61692Y52992D01*
X61364Y53211D01*
X60976Y53288D01*
D02*
G37*
G36*
X59250D02*
X58024D01*
X57636Y53211D01*
X57308Y52992D01*
X57089Y52663D01*
X57012Y52276D01*
Y51050D01*
X59250D01*
Y53288D01*
D02*
G37*
G36*
X89815Y52313D02*
X87990D01*
Y50291D01*
X89815D01*
Y52313D01*
D02*
G37*
G36*
X87490D02*
X85665D01*
Y50291D01*
X87490D01*
Y52313D01*
D02*
G37*
G36*
X152335Y51435D02*
X150313D01*
Y49610D01*
X152335D01*
Y51435D01*
D02*
G37*
G36*
X149813D02*
X147791D01*
Y49610D01*
X149813D01*
Y51435D01*
D02*
G37*
G36*
X61988Y50550D02*
X59750D01*
Y48312D01*
X60976D01*
X61364Y48389D01*
X61692Y48608D01*
X61911Y48937D01*
X61988Y49324D01*
Y50550D01*
D02*
G37*
G36*
X59250D02*
X57012D01*
Y49324D01*
X57089Y48937D01*
X57308Y48608D01*
X57636Y48389D01*
X58024Y48312D01*
X59250D01*
Y50550D01*
D02*
G37*
G36*
X152335Y49110D02*
X150313D01*
Y47285D01*
X152335D01*
Y49110D01*
D02*
G37*
G36*
X149813D02*
X147791D01*
Y47285D01*
X149813D01*
Y49110D01*
D02*
G37*
G36*
X33145Y47014D02*
X31722D01*
Y45550D01*
X34809D01*
X34728Y45956D01*
X34357Y46512D01*
X33801Y46884D01*
X33145Y47014D01*
D02*
G37*
G36*
X31222D02*
X29798D01*
X29142Y46884D01*
X28586Y46512D01*
X28215Y45956D01*
X28134Y45550D01*
X31222D01*
Y47014D01*
D02*
G37*
G36*
X34809Y45050D02*
X31722D01*
Y43586D01*
X33145D01*
X33801Y43716D01*
X34357Y44088D01*
X34728Y44644D01*
X34809Y45050D01*
D02*
G37*
G36*
X31222D02*
X28134D01*
X28215Y44644D01*
X28586Y44088D01*
X29142Y43716D01*
X29798Y43586D01*
X31222D01*
Y45050D01*
D02*
G37*
G36*
X101201Y34039D02*
X98199D01*
X97821Y33964D01*
X97501Y33750D01*
X97288Y33430D01*
X97212Y33052D01*
Y32924D01*
X89688D01*
Y33052D01*
X89612Y33430D01*
X89398Y33750D01*
X89078Y33964D01*
X88701Y34039D01*
X85699D01*
X85321Y33964D01*
X85001Y33750D01*
X84788Y33430D01*
X84712Y33052D01*
Y30247D01*
X84788Y29869D01*
X85001Y29550D01*
X85321Y29336D01*
X85699Y29261D01*
X88701D01*
X89078Y29336D01*
X89398Y29550D01*
X89612Y29869D01*
X89688Y30247D01*
Y30375D01*
X97212D01*
Y30247D01*
X97288Y29869D01*
X97501Y29550D01*
X97821Y29336D01*
X98199Y29261D01*
X101201D01*
X101578Y29336D01*
X101899Y29550D01*
X102112Y29869D01*
X102188Y30247D01*
Y33052D01*
X102112Y33430D01*
X101899Y33750D01*
X101578Y33964D01*
X101201Y34039D01*
D02*
G37*
G36*
X21969Y34102D02*
Y31969D01*
X24102D01*
X23969Y32291D01*
X23240Y33240D01*
X22291Y33969D01*
X21969Y34102D01*
D02*
G37*
G36*
X18032D02*
X17709Y33969D01*
X16760Y33240D01*
X16031Y32291D01*
X15898Y31969D01*
X18032D01*
Y34102D01*
D02*
G37*
G36*
X126401Y34639D02*
X123399D01*
X123021Y34563D01*
X122702Y34350D01*
X122488Y34030D01*
X122413Y33652D01*
Y30847D01*
X122488Y30470D01*
X122702Y30149D01*
X123021Y29936D01*
X123399Y29861D01*
X126401D01*
X126778Y29936D01*
X127099Y30149D01*
X127312Y30470D01*
X127383Y30825D01*
X134224D01*
Y30593D01*
X134299Y30216D01*
X134512Y29896D01*
X134833Y29682D01*
X135210Y29607D01*
X138212D01*
X138590Y29682D01*
X138909Y29896D01*
X139123Y30216D01*
X139199Y30593D01*
Y30944D01*
X152691D01*
Y30365D01*
X157235D01*
Y34515D01*
X152691D01*
Y33493D01*
X139180D01*
X139123Y33776D01*
X138909Y34096D01*
X138590Y34310D01*
X138212Y34385D01*
X135210D01*
X134833Y34310D01*
X134512Y34096D01*
X134299Y33776D01*
X134224Y33399D01*
Y33375D01*
X127387D01*
Y33652D01*
X127312Y34030D01*
X127099Y34350D01*
X126778Y34563D01*
X126401Y34639D01*
D02*
G37*
G36*
X21001Y65239D02*
X17999D01*
X17621Y65164D01*
X17301Y64951D01*
X17088Y64631D01*
X17012Y64253D01*
Y61448D01*
X17088Y61070D01*
X17301Y60750D01*
X17621Y60536D01*
X17999Y60461D01*
X18475D01*
Y53745D01*
X17961Y53532D01*
X17116Y52884D01*
X16468Y52039D01*
X16061Y51056D01*
X15922Y50000D01*
X16061Y48945D01*
X16468Y47961D01*
X17116Y47116D01*
X17961Y46468D01*
X18945Y46061D01*
X20000Y45922D01*
X21056Y46061D01*
X21820Y46378D01*
X24077Y44121D01*
Y42030D01*
X23577Y41931D01*
X23532Y42039D01*
X22884Y42884D01*
X22039Y43532D01*
X21056Y43939D01*
X20000Y44078D01*
X18945Y43939D01*
X17961Y43532D01*
X17116Y42884D01*
X16468Y42039D01*
X16061Y41056D01*
X15922Y40000D01*
X16061Y38945D01*
X16468Y37961D01*
X17116Y37116D01*
X17961Y36468D01*
X18945Y36061D01*
X20000Y35922D01*
X21056Y36061D01*
X22039Y36468D01*
X22884Y37116D01*
X23532Y37961D01*
X23577Y38069D01*
X24077Y37970D01*
Y34747D01*
X24174Y34260D01*
X24450Y33846D01*
X28106Y30190D01*
X28215Y29644D01*
X28586Y29088D01*
X29142Y28716D01*
X29798Y28586D01*
X33145D01*
X33801Y28716D01*
X34357Y29088D01*
X34728Y29644D01*
X34859Y30300D01*
X34728Y30956D01*
X34357Y31512D01*
X33801Y31884D01*
X33145Y32014D01*
X29887D01*
X26626Y35275D01*
Y44649D01*
X26529Y45136D01*
X26252Y45550D01*
X23622Y48180D01*
X23939Y48945D01*
X23963Y49125D01*
X50752D01*
X50790Y48937D01*
X51009Y48608D01*
X51337Y48389D01*
X51724Y48312D01*
X51790D01*
Y47014D01*
X51255D01*
X50599Y46884D01*
X50043Y46512D01*
X49672Y45956D01*
X49541Y45300D01*
X49672Y44644D01*
X50043Y44088D01*
X50599Y43716D01*
X51255Y43586D01*
X54602D01*
X55257Y43716D01*
X55720Y44025D01*
X60059D01*
X73212Y30872D01*
Y30247D01*
X73288Y29869D01*
X73501Y29550D01*
X73822Y29336D01*
X74199Y29261D01*
X77201D01*
X77579Y29336D01*
X77899Y29550D01*
X78112Y29869D01*
X78188Y30247D01*
Y33052D01*
X78112Y33430D01*
X77899Y33750D01*
X77579Y33964D01*
X77201Y34039D01*
X74199D01*
X73822Y33964D01*
X73764Y33925D01*
X61488Y46201D01*
X61074Y46477D01*
X60587Y46575D01*
X55720D01*
X55257Y46884D01*
X54602Y47014D01*
X54339D01*
Y48312D01*
X54677D01*
X55064Y48389D01*
X55392Y48608D01*
X55612Y48937D01*
X55689Y49324D01*
Y52276D01*
X55612Y52663D01*
X55392Y52992D01*
X55064Y53211D01*
X54677Y53288D01*
X51724D01*
X51337Y53211D01*
X51009Y52992D01*
X50790Y52663D01*
X50713Y52276D01*
Y51674D01*
X23683D01*
X23532Y52039D01*
X22884Y52884D01*
X22039Y53532D01*
X21056Y53939D01*
X21024Y53943D01*
Y60466D01*
X21378Y60536D01*
X21699Y60750D01*
X21912Y61070D01*
X21987Y61448D01*
Y64253D01*
X21912Y64631D01*
X21699Y64951D01*
X21378Y65164D01*
X21001Y65239D01*
D02*
G37*
G36*
X113176Y28531D02*
X111950D01*
Y26293D01*
X114188D01*
Y27520D01*
X114111Y27907D01*
X113892Y28235D01*
X113564Y28454D01*
X113176Y28531D01*
D02*
G37*
G36*
X138212Y28086D02*
X136961D01*
Y25947D01*
X139199D01*
Y27099D01*
X139123Y27477D01*
X138909Y27797D01*
X138590Y28011D01*
X138212Y28086D01*
D02*
G37*
G36*
X136461D02*
X135210D01*
X134833Y28011D01*
X134512Y27797D01*
X134299Y27477D01*
X134224Y27099D01*
Y25947D01*
X136461D01*
Y28086D01*
D02*
G37*
G36*
X24102Y28032D02*
X21969D01*
Y25898D01*
X22291Y26031D01*
X23240Y26760D01*
X23969Y27709D01*
X24102Y28032D01*
D02*
G37*
G36*
X18032D02*
X15898D01*
X16031Y27709D01*
X16760Y26760D01*
X17709Y26031D01*
X18032Y25898D01*
Y28032D01*
D02*
G37*
G36*
X157235Y27035D02*
X155213D01*
Y25210D01*
X157235D01*
Y27035D01*
D02*
G37*
G36*
X154713D02*
X152691D01*
Y25210D01*
X154713D01*
Y27035D01*
D02*
G37*
G36*
X54602Y42014D02*
X51255D01*
X50599Y41884D01*
X50043Y41512D01*
X49672Y40956D01*
X49541Y40300D01*
X49672Y39644D01*
X50043Y39088D01*
X50599Y38716D01*
X51255Y38586D01*
X54602D01*
X55257Y38716D01*
X55720Y39026D01*
X59724D01*
X73212Y25537D01*
Y24597D01*
X72712Y24390D01*
X67735Y29367D01*
X67653Y29490D01*
X67653Y29490D01*
X60942Y36201D01*
X60528Y36478D01*
X60041Y36575D01*
X55720D01*
X55257Y36884D01*
X54602Y37014D01*
X51344D01*
X47156Y41201D01*
X46743Y41478D01*
X46255Y41574D01*
X34263D01*
X33801Y41884D01*
X33145Y42014D01*
X29798D01*
X29142Y41884D01*
X28586Y41512D01*
X28215Y40956D01*
X28084Y40300D01*
X28215Y39644D01*
X28586Y39088D01*
X29142Y38716D01*
X29798Y38586D01*
X33145D01*
X33801Y38716D01*
X34263Y39026D01*
X45727D01*
X49563Y35190D01*
X49672Y34644D01*
X50043Y34088D01*
X50599Y33716D01*
X51255Y33586D01*
X54602D01*
X55257Y33716D01*
X55720Y34025D01*
X59513D01*
X61950Y31588D01*
X61743Y31088D01*
X60215D01*
X60101Y31201D01*
X59688Y31477D01*
X59200Y31574D01*
X55720D01*
X55257Y31884D01*
X54602Y32014D01*
X51255D01*
X50599Y31884D01*
X50043Y31512D01*
X49672Y30956D01*
X49541Y30300D01*
X49672Y29644D01*
X50043Y29088D01*
X50599Y28716D01*
X51255Y28586D01*
X54602D01*
X55257Y28716D01*
X55720Y29026D01*
X58412D01*
Y27124D01*
X58489Y26737D01*
X58708Y26408D01*
X59036Y26189D01*
X59424Y26112D01*
X62376D01*
X62764Y26189D01*
X63092Y26408D01*
X63311Y26737D01*
X63388Y27124D01*
Y29443D01*
X63888Y29650D01*
X65769Y27770D01*
X65851Y27647D01*
X71267Y22230D01*
X71280Y22211D01*
X72462Y21029D01*
X72481Y21016D01*
X73199Y20299D01*
X73612Y20022D01*
X74100Y19926D01*
X95451D01*
X95939Y20022D01*
X96352Y20299D01*
X99015Y22961D01*
X101201D01*
X101578Y23036D01*
X101899Y23250D01*
X102112Y23570D01*
X102188Y23948D01*
Y24076D01*
X104708D01*
X105196Y24173D01*
X105609Y24449D01*
X108731Y27571D01*
X108747Y27569D01*
X109212Y27345D01*
Y26293D01*
X111450D01*
Y28531D01*
X110398D01*
X110174Y28996D01*
X110172Y29013D01*
X111014Y29855D01*
X113176D01*
X113564Y29932D01*
X113892Y30151D01*
X114111Y30479D01*
X114188Y30866D01*
Y33819D01*
X114111Y34206D01*
X113892Y34534D01*
X113564Y34754D01*
X113176Y34830D01*
X110224D01*
X109836Y34754D01*
X109508Y34534D01*
X109289Y34206D01*
X109212Y33819D01*
Y31657D01*
X104180Y26625D01*
X102188D01*
Y26753D01*
X102112Y27130D01*
X101899Y27450D01*
X101578Y27664D01*
X101201Y27739D01*
X98199D01*
X97821Y27664D01*
X97501Y27450D01*
X97288Y27130D01*
X97212Y26753D01*
Y24764D01*
X94923Y22475D01*
X88816D01*
X88767Y22975D01*
X89078Y23036D01*
X89398Y23250D01*
X89612Y23570D01*
X89688Y23948D01*
Y26753D01*
X89612Y27130D01*
X89398Y27450D01*
X89078Y27664D01*
X88701Y27739D01*
X85699D01*
X85321Y27664D01*
X85001Y27450D01*
X84788Y27130D01*
X84712Y26753D01*
Y26625D01*
X78188D01*
Y26753D01*
X78112Y27130D01*
X77899Y27450D01*
X77579Y27664D01*
X77201Y27739D01*
X74615D01*
X61153Y41201D01*
X60740Y41478D01*
X60252Y41574D01*
X55720D01*
X55257Y41884D01*
X54602Y42014D01*
D02*
G37*
G36*
X114188Y25793D02*
X111950D01*
Y23555D01*
X113176D01*
X113564Y23632D01*
X113892Y23852D01*
X114111Y24180D01*
X114188Y24567D01*
Y25793D01*
D02*
G37*
G36*
X111450D02*
X109212D01*
Y24567D01*
X109289Y24180D01*
X109508Y23852D01*
X109836Y23632D01*
X110224Y23555D01*
X111450D01*
Y25793D01*
D02*
G37*
G36*
X139199Y25447D02*
X136961D01*
Y23308D01*
X138212D01*
X138590Y23383D01*
X138909Y23597D01*
X139123Y23917D01*
X139199Y24294D01*
Y25447D01*
D02*
G37*
G36*
X136461D02*
X134224D01*
Y24294D01*
X134299Y23917D01*
X134512Y23597D01*
X134833Y23383D01*
X135210Y23308D01*
X136461D01*
Y25447D01*
D02*
G37*
G36*
X157235Y24710D02*
X155213D01*
Y22885D01*
X157235D01*
Y24710D01*
D02*
G37*
G36*
X154713D02*
X152691D01*
Y22885D01*
X154713D01*
Y24710D01*
D02*
G37*
G36*
X62376Y24789D02*
X61150D01*
Y22551D01*
X63388D01*
Y23777D01*
X63311Y24164D01*
X63092Y24492D01*
X62764Y24712D01*
X62376Y24789D01*
D02*
G37*
G36*
X60650D02*
X59424D01*
X59036Y24712D01*
X58708Y24492D01*
X58489Y24164D01*
X58412Y23777D01*
Y22551D01*
X60650D01*
Y24789D01*
D02*
G37*
G36*
X63388Y22051D02*
X61150D01*
Y19813D01*
X62376D01*
X62764Y19890D01*
X63092Y20109D01*
X63311Y20437D01*
X63388Y20824D01*
Y22051D01*
D02*
G37*
G36*
X60650D02*
X58412D01*
Y20824D01*
X58489Y20437D01*
X58708Y20109D01*
X59036Y19890D01*
X59424Y19813D01*
X60650D01*
Y22051D01*
D02*
G37*
G36*
X33145Y37014D02*
X29798D01*
X29142Y36884D01*
X28586Y36512D01*
X28215Y35956D01*
X28084Y35300D01*
X28215Y34644D01*
X28586Y34088D01*
X29142Y33716D01*
X29798Y33586D01*
X33057D01*
X52094Y14549D01*
X52507Y14273D01*
X52995Y14175D01*
X114901D01*
X115389Y14273D01*
X115802Y14549D01*
X124815Y23561D01*
X126401D01*
X126778Y23636D01*
X127099Y23850D01*
X127312Y24170D01*
X127387Y24548D01*
Y27353D01*
X127312Y27731D01*
X127099Y28051D01*
X126778Y28264D01*
X126401Y28339D01*
X123399D01*
X123021Y28264D01*
X122702Y28051D01*
X122488Y27731D01*
X122413Y27353D01*
Y24764D01*
X114373Y16725D01*
X53523D01*
X34837Y35410D01*
X34728Y35956D01*
X34357Y36512D01*
X33801Y36884D01*
X33145Y37014D01*
D02*
G37*
%LPD*%
D12*
X659744Y47111D02*
X664996Y52362D01*
X694100D01*
X706243Y40220D01*
X580009Y47047D02*
X585324Y52362D01*
X614733D02*
X626939Y40156D01*
X585324Y52362D02*
X614733D01*
X426475Y53150D02*
X494753D01*
X420571Y47245D02*
X426475Y53150D01*
X494753D02*
X507746Y40156D01*
X346160Y52756D02*
X375208D01*
X387609Y40354D01*
X340650Y47245D02*
X346160Y52756D01*
X265845D02*
X295090D01*
X260335Y47245D02*
X265845Y52756D01*
X295090D02*
X307491Y40354D01*
X340650Y47147D02*
Y47245D01*
X387609Y40354D02*
X419882D01*
X659055Y40220D02*
Y46323D01*
X626939Y40156D02*
X658366D01*
X706243Y40220D02*
X738054D01*
X579320Y40156D02*
Y46260D01*
X658430Y40220D02*
X659055D01*
X339961Y46458D02*
X340650Y47147D01*
X419882Y40354D02*
Y46458D01*
X260335Y47147D02*
Y47245D01*
X339961Y40354D02*
Y46458D01*
X580009Y46949D02*
Y47047D01*
X259469Y40177D02*
X259646Y40354D01*
X171677Y40177D02*
X259469D01*
X171500Y40000D02*
X171677Y40177D01*
X507746Y40156D02*
X579320D01*
X659744Y47012D02*
Y47111D01*
X259646Y46458D02*
X260335Y47147D01*
X307491Y40354D02*
X339961D01*
X259646Y40354D02*
Y46458D01*
X259646Y46458D02*
X259646Y46458D01*
X738054Y40220D02*
Y46323D01*
X419882Y46458D02*
X420571Y47147D01*
X659055Y46323D02*
X659744Y47012D01*
X579320Y46260D02*
X580009Y46949D01*
X658366Y40156D02*
X658430Y40220D01*
X420571Y47147D02*
Y47245D01*
D15*
X437256Y43628D02*
X438545Y44917D01*
Y45928D01*
X440282Y40354D02*
X444844Y44917D01*
Y45928D01*
X438545D02*
X440354Y47737D01*
X444844Y45928D02*
X446654Y47737D01*
X426181Y46359D02*
Y46458D01*
X428912Y43628D02*
X437256D01*
X426181Y46359D02*
X428912Y43628D01*
X426181Y40354D02*
X440282D01*
X278703Y44559D02*
Y45570D01*
X280512Y47379D01*
X280798Y40354D02*
X285002Y44559D01*
Y45570D01*
X286811Y47379D01*
X265945Y40354D02*
X280798D01*
X265945Y46359D02*
Y46458D01*
X277414Y43270D02*
X278703Y44559D01*
X269035Y43270D02*
X277414D01*
X265945Y46359D02*
X269035Y43270D01*
X346260Y40354D02*
X360916D01*
X365120Y44559D01*
Y45570D01*
X346260Y46359D02*
Y46458D01*
X349349Y43270D02*
X357532D01*
X346260Y46359D02*
X349349Y43270D01*
X365120Y45570D02*
X366929Y47379D01*
X358821Y44559D02*
Y45570D01*
X360630Y47379D01*
X357532Y43270D02*
X358821Y44559D01*
X154300Y20600D02*
X155010D01*
X155160Y24960D02*
X157265Y22855D01*
X155010Y20600D02*
X157265Y22855D01*
X154963Y24960D02*
X155160D01*
X744353Y40220D02*
X759206D01*
X763410Y44424D01*
Y45435D01*
X765219Y47244D01*
X744353Y46225D02*
Y46323D01*
Y46225D02*
X747443Y43135D01*
X755822D01*
X757111Y45435D02*
X758920Y47244D01*
X755822Y43135D02*
X757111Y44424D01*
Y45435D01*
X665354Y40220D02*
X679420D01*
X683624Y44424D01*
Y45435D01*
X685433Y47244D01*
X665354Y46225D02*
Y46323D01*
Y46225D02*
X668444Y43135D01*
X676036D01*
X677325Y44424D01*
Y45435D01*
X679134Y47244D01*
X585619Y40156D02*
X599818D01*
X604086Y44424D01*
Y45435D01*
X605895Y47244D01*
X596497Y43135D02*
X597786Y44424D01*
Y45435D01*
X599595Y47244D01*
X585619Y46161D02*
X588645Y43135D01*
X596497D01*
X585619Y46161D02*
Y46260D01*
X111700Y21100D02*
Y26043D01*
Y21100D02*
X111950Y20850D01*
X89200Y47300D02*
X90065Y48165D01*
X89200Y47300D02*
Y47300D01*
X87740Y52366D02*
X90065Y50041D01*
Y48165D02*
Y50041D01*
X87740Y52366D02*
Y52563D01*
X149600Y44400D02*
Y44400D01*
X152410Y47210D01*
X150260Y49360D02*
X152410Y47210D01*
X132202Y25898D02*
X136509D01*
X136711Y31996D02*
X136933Y32218D01*
X154741D01*
X154963Y32440D01*
X149713Y56490D02*
Y56993D01*
X122000Y60500D02*
X146206D01*
X149713Y56993D01*
X150063Y49360D02*
X150260D01*
X123100Y47700D02*
X124718Y49319D01*
Y51581D01*
X122098Y54201D02*
X124718Y51581D01*
X124900Y32250D02*
X125050Y32100D01*
X136607D02*
X136711Y31996D01*
X125050Y32100D02*
X136607D01*
X136509Y25898D02*
X136711Y25697D01*
X51255Y35300D02*
X52928D01*
X31472Y45300D02*
X44300D01*
X46255Y40300D02*
X51255Y35300D01*
X31472Y40300D02*
X46255D01*
X44300Y45300D02*
X44500Y45100D01*
X120800Y8000D02*
X123600Y10800D01*
X120800Y6400D02*
Y8000D01*
X59200Y59100D02*
X71000Y47300D01*
X59200Y59100D02*
Y64350D01*
X87200Y31650D02*
X99700D01*
X79185Y53638D02*
X80260Y52563D01*
X64598Y68500D02*
X79185Y53913D01*
X64500Y68500D02*
X64598D01*
X79185Y53638D02*
Y53913D01*
X59500Y50800D02*
X63600Y46700D01*
Y46600D02*
Y46700D01*
X60587Y45300D02*
X74737Y31150D01*
X75702D01*
X52928Y45300D02*
X60587D01*
X52801Y50400D02*
X53065Y50664D01*
X20000Y50000D02*
X20400Y50400D01*
X53065Y50664D02*
X53201Y50800D01*
X20400Y50400D02*
X52801D01*
X66752Y28548D02*
Y28589D01*
X64499Y22301D02*
X66200Y20600D01*
X60900Y22301D02*
X64499D01*
X52995Y15450D02*
X114901D01*
X124902Y25450D01*
X33145Y35300D02*
X52995Y15450D01*
X122000Y54201D02*
X122098D01*
X72181Y23112D02*
Y23119D01*
X73363Y21930D02*
X73370D01*
X74100Y21200D01*
X95451D01*
X66566Y28775D02*
X66752Y28589D01*
X72181Y23112D02*
X73363Y21930D01*
X60041Y35300D02*
X66566Y28775D01*
X66752Y28548D02*
X72181Y23119D01*
X95451Y21200D02*
X99602Y25350D01*
X149713Y56490D02*
X150063Y56840D01*
X103500Y54850D02*
X103963Y54387D01*
X109013D01*
X109300Y54100D01*
X99602Y25350D02*
X99700D01*
X31472Y35300D02*
X33145D01*
X25351Y34747D02*
X29798Y30300D01*
X25351Y34747D02*
Y44649D01*
X20000Y50000D02*
X25351Y44649D01*
X29798Y30300D02*
X31472D01*
X52928Y35300D02*
X60041D01*
X60252Y40300D02*
X75702Y24850D01*
X75602Y25350D02*
X87200D01*
X59200Y30300D02*
X60900Y28600D01*
X52928Y30300D02*
X59200D01*
X52928Y40300D02*
X60252D01*
X75602Y31650D02*
X75700D01*
X99700Y25350D02*
X104708D01*
X111700Y32342D01*
X53065Y45436D02*
Y50664D01*
X52928Y45300D02*
X53065Y45436D01*
X19750Y50250D02*
X20000Y50000D01*
X19750Y50250D02*
Y62600D01*
X19500Y62850D02*
X19750Y62600D01*
X19500Y69150D02*
X63850D01*
X64500Y68500D01*
X59500Y50800D02*
X59669Y50969D01*
X103500Y61150D02*
X103825Y60825D01*
X121675D01*
X122000Y60500D01*
X84000Y60437D02*
X84713Y61150D01*
X103500D01*
D17*
X765219Y47244D02*
D03*
X758920D02*
D03*
X752621D02*
D03*
X765219Y29528D02*
D03*
X758920D02*
D03*
X752621D02*
D03*
X685433Y47244D02*
D03*
X679134D02*
D03*
X672835D02*
D03*
X685433Y29528D02*
D03*
X679134D02*
D03*
X672835D02*
D03*
X605895Y47244D02*
D03*
X599595D02*
D03*
X593296D02*
D03*
X605895Y29528D02*
D03*
X599595D02*
D03*
X593296D02*
D03*
X434055Y30020D02*
D03*
X440354D02*
D03*
X446654D02*
D03*
X434055Y47737D02*
D03*
X440354D02*
D03*
X446654D02*
D03*
X354331Y29662D02*
D03*
X360630D02*
D03*
X366929D02*
D03*
X354331Y47379D02*
D03*
X360630D02*
D03*
X366929D02*
D03*
X286811D02*
D03*
X280512D02*
D03*
X274213D02*
D03*
X286811Y29662D02*
D03*
X280512D02*
D03*
X274213D02*
D03*
D18*
X426181Y40354D02*
D03*
X419882D02*
D03*
X426181Y46458D02*
D03*
X419882D02*
D03*
X259646Y40354D02*
D03*
X265945D02*
D03*
X259646Y46458D02*
D03*
X265945D02*
D03*
X346260Y40354D02*
D03*
X339961D02*
D03*
Y46458D02*
D03*
X346260D02*
D03*
X665354Y46323D02*
D03*
X659055D02*
D03*
X665354Y40220D02*
D03*
X659055D02*
D03*
X738054Y40220D02*
D03*
X744353D02*
D03*
X738054Y46323D02*
D03*
X744353D02*
D03*
X579320Y40156D02*
D03*
X585619D02*
D03*
X579320Y46260D02*
D03*
X585619D02*
D03*
D19*
X150063Y56840D02*
D03*
Y49360D02*
D03*
X157937Y53100D02*
D03*
X162837Y28700D02*
D03*
X154963Y24960D02*
D03*
Y32440D02*
D03*
D20*
X52928Y30300D02*
D03*
Y35300D02*
D03*
Y40300D02*
D03*
Y45300D02*
D03*
X31472Y30300D02*
D03*
Y35300D02*
D03*
Y40300D02*
D03*
Y45300D02*
D03*
D21*
X124900Y25950D02*
D03*
Y32250D02*
D03*
X75700Y31650D02*
D03*
Y25350D02*
D03*
X87200D02*
D03*
Y31650D02*
D03*
X99700Y25350D02*
D03*
Y31650D02*
D03*
X122000Y54201D02*
D03*
Y60500D02*
D03*
X103500Y61150D02*
D03*
Y54850D02*
D03*
X19500Y69150D02*
D03*
Y62850D02*
D03*
X59200Y70650D02*
D03*
Y64350D02*
D03*
X136711Y31996D02*
D03*
Y25697D02*
D03*
D22*
X111700Y32342D02*
D03*
Y26043D02*
D03*
X60900Y22301D02*
D03*
Y28600D02*
D03*
D23*
X84000Y60437D02*
D03*
X87740Y52563D02*
D03*
X80260D02*
D03*
D24*
X53201Y50800D02*
D03*
X59500D02*
D03*
D35*
X284358Y26570D02*
Y27209D01*
X286811Y29662D01*
X161201Y25169D02*
X282958D01*
X284358Y26570D01*
X159581Y26789D02*
X161201Y25169D01*
X357423Y33509D02*
X358858Y32073D01*
X283719Y33509D02*
X357423D01*
X282965Y32754D02*
X283719Y33509D01*
X280512Y29662D02*
X282965Y32115D01*
Y32754D01*
X685433Y29528D02*
X689280Y25681D01*
X762013D01*
X763448Y27756D02*
X765219Y29528D01*
X602688Y25681D02*
X604123Y27116D01*
X683661Y27756D02*
X685433Y29528D01*
X605895D02*
X609741Y25681D01*
X286811Y29662D02*
X290810Y25663D01*
X365158Y27891D02*
X366929Y29662D01*
X609741Y25681D02*
X682226D01*
X450993D02*
X602688D01*
X446654Y30020D02*
X450993Y25681D01*
X604123Y27116D02*
Y27756D01*
X363570Y25663D02*
X365158Y27251D01*
X683661Y27116D02*
Y27756D01*
X763448Y27116D02*
Y27756D01*
X370417Y26174D02*
X443447D01*
X366929Y29662D02*
X370417Y26174D01*
X444882Y27609D02*
Y28249D01*
X290810Y25663D02*
X363570D01*
X604123Y27756D02*
X605895Y29528D01*
X443447Y26174D02*
X444882Y27609D01*
Y28249D02*
X446654Y30020D01*
X762013Y25681D02*
X763448Y27116D01*
X365158Y27251D02*
Y27891D01*
X159581Y26789D02*
Y38081D01*
X682226Y25681D02*
X683661Y27116D01*
X159581Y38081D02*
X171500Y50000D01*
X681587Y32620D02*
X682341Y33374D01*
X681587Y31980D02*
Y32620D01*
X679134Y29528D02*
X681587Y31980D01*
X682341Y33374D02*
X755713D01*
X176343Y33509D02*
X277305D01*
X171500Y30000D02*
X172834D01*
X277305Y33509D02*
X278740Y32073D01*
X755713Y33374D02*
X757149Y31939D01*
X677362Y31299D02*
Y31939D01*
X599595Y29528D02*
X602048Y31980D01*
Y32620D01*
X602802Y33374D01*
X675927D01*
X677362Y31939D01*
Y31299D02*
X679134Y29528D01*
X597824Y31299D02*
X599595Y29528D01*
X597824Y31299D02*
Y31939D01*
X595896Y33867D02*
X597824Y31939D01*
X443561Y33867D02*
X595896D01*
X442807Y33113D02*
X443561Y33867D01*
X442807Y32473D02*
Y33113D01*
X440354Y30020D02*
X442807Y32473D01*
X438583Y31792D02*
X440354Y30020D01*
X172834Y30000D02*
X176343Y33509D01*
X757149Y31299D02*
Y31939D01*
X363083Y32754D02*
X364195Y33867D01*
X363083Y32115D02*
Y32754D01*
X360630Y29662D02*
X363083Y32115D01*
X364195Y33867D02*
X437147D01*
X358858Y31434D02*
X360630Y29662D01*
X358858Y31434D02*
Y32073D01*
X437147Y33867D02*
X438583Y32432D01*
Y31792D02*
Y32432D01*
X278740Y31434D02*
X280512Y29662D01*
X278740Y31434D02*
Y32073D01*
X757149Y31299D02*
X758920Y29528D01*
D36*
X157937Y53100D02*
X161037Y50000D01*
X171500D01*
X170897Y29397D02*
X171500Y30000D01*
X162837Y28700D02*
X163534Y29397D01*
X170897D01*
D37*
X171500Y50000D02*
D03*
Y40000D02*
D03*
Y30000D02*
D03*
X20000Y50000D02*
D03*
Y40000D02*
D03*
Y30000D02*
D03*
D38*
X193700Y19928D02*
D03*
X111950Y20850D02*
D03*
X89200Y47300D02*
D03*
X149600Y44400D02*
D03*
X132202Y25898D02*
D03*
X154300Y20600D02*
D03*
X123100Y47700D02*
D03*
X37900Y3300D02*
D03*
X44500Y45100D02*
D03*
X43200Y32800D02*
D03*
X81500Y34400D02*
D03*
X94100Y26300D02*
D03*
X171400Y19000D02*
D03*
X124800Y14700D02*
D03*
X30400Y20800D02*
D03*
X20900Y3500D02*
D03*
X87800Y5200D02*
D03*
X193900Y4800D02*
D03*
X180600Y12800D02*
D03*
X144100Y7400D02*
D03*
X120800Y6400D02*
D03*
X71000Y47300D02*
D03*
X43363Y19163D02*
D03*
X10400Y17100D02*
D03*
X63600Y46600D02*
D03*
X66200Y20600D02*
D03*
X109300Y54100D02*
D03*
M02*
