G04*
G04 #@! TF.GenerationSoftware,Altium Limited,Altium Designer,23.9.2 (47)*
G04*
G04 Layer_Color=8388736*
%FSLAX25Y25*%
%MOIN*%
G70*
G04*
G04 #@! TF.SameCoordinates,F644929B-0515-4FFE-9EA4-74E11A0DFDDC*
G04*
G04*
G04 #@! TF.FilePolarity,Negative*
G04*
G01*
G75*
%ADD25R,0.05709X0.05709*%
G04:AMPARAMS|DCode=26|XSize=45.28mil|YSize=43.31mil|CornerRadius=7.63mil|HoleSize=0mil|Usage=FLASHONLY|Rotation=270.000|XOffset=0mil|YOffset=0mil|HoleType=Round|Shape=RoundedRectangle|*
%AMROUNDEDRECTD26*
21,1,0.04528,0.02805,0,0,270.0*
21,1,0.03002,0.04331,0,0,270.0*
1,1,0.01526,-0.01403,-0.01501*
1,1,0.01526,-0.01403,0.01501*
1,1,0.01526,0.01403,0.01501*
1,1,0.01526,0.01403,-0.01501*
%
%ADD26ROUNDEDRECTD26*%
%ADD27R,0.04134X0.03740*%
%ADD28O,0.06299X0.02953*%
G04:AMPARAMS|DCode=29|XSize=45.28mil|YSize=43.31mil|CornerRadius=7.63mil|HoleSize=0mil|Usage=FLASHONLY|Rotation=180.000|XOffset=0mil|YOffset=0mil|HoleType=Round|Shape=RoundedRectangle|*
%AMROUNDEDRECTD29*
21,1,0.04528,0.02805,0,0,180.0*
21,1,0.03002,0.04331,0,0,180.0*
1,1,0.01526,-0.01501,0.01403*
1,1,0.01526,0.01501,0.01403*
1,1,0.01526,0.01501,-0.01403*
1,1,0.01526,-0.01501,-0.01403*
%
%ADD29ROUNDEDRECTD29*%
G04:AMPARAMS|DCode=30|XSize=45.28mil|YSize=45.28mil|CornerRadius=7.87mil|HoleSize=0mil|Usage=FLASHONLY|Rotation=180.000|XOffset=0mil|YOffset=0mil|HoleType=Round|Shape=RoundedRectangle|*
%AMROUNDEDRECTD30*
21,1,0.04528,0.02953,0,0,180.0*
21,1,0.02953,0.04528,0,0,180.0*
1,1,0.01575,-0.01476,0.01476*
1,1,0.01575,0.01476,0.01476*
1,1,0.01575,0.01476,-0.01476*
1,1,0.01575,-0.01476,-0.01476*
%
%ADD30ROUNDEDRECTD30*%
%ADD31R,0.03740X0.04134*%
G04:AMPARAMS|DCode=32|XSize=45.28mil|YSize=45.28mil|CornerRadius=7.87mil|HoleSize=0mil|Usage=FLASHONLY|Rotation=270.000|XOffset=0mil|YOffset=0mil|HoleType=Round|Shape=RoundedRectangle|*
%AMROUNDEDRECTD32*
21,1,0.04528,0.02953,0,0,270.0*
21,1,0.02953,0.04528,0,0,270.0*
1,1,0.01575,-0.01476,-0.01476*
1,1,0.01575,-0.01476,0.01476*
1,1,0.01575,0.01476,0.01476*
1,1,0.01575,0.01476,-0.01476*
%
%ADD32ROUNDEDRECTD32*%
%ADD33C,0.07677*%
%ADD34C,0.03591*%
D25*
X765219Y47244D02*
D03*
X758920D02*
D03*
X752621D02*
D03*
X765219Y29528D02*
D03*
X758920D02*
D03*
X752621D02*
D03*
X685433Y47244D02*
D03*
X679134D02*
D03*
X672835D02*
D03*
X685433Y29528D02*
D03*
X679134D02*
D03*
X672835D02*
D03*
X605895Y47244D02*
D03*
X599595D02*
D03*
X593296D02*
D03*
X605895Y29528D02*
D03*
X599595D02*
D03*
X593296D02*
D03*
X434055Y30020D02*
D03*
X440354D02*
D03*
X446654D02*
D03*
X434055Y47737D02*
D03*
X440354D02*
D03*
X446654D02*
D03*
X354331Y29662D02*
D03*
X360630D02*
D03*
X366929D02*
D03*
X354331Y47379D02*
D03*
X360630D02*
D03*
X366929D02*
D03*
X286811D02*
D03*
X280512D02*
D03*
X274213D02*
D03*
X286811Y29662D02*
D03*
X280512D02*
D03*
X274213D02*
D03*
D26*
X426181Y40354D02*
D03*
X419882D02*
D03*
X426181Y46458D02*
D03*
X419882D02*
D03*
X259646Y40354D02*
D03*
X265945D02*
D03*
X259646Y46458D02*
D03*
X265945D02*
D03*
X346260Y40354D02*
D03*
X339961D02*
D03*
Y46458D02*
D03*
X346260D02*
D03*
X665354Y46323D02*
D03*
X659055D02*
D03*
X665354Y40220D02*
D03*
X659055D02*
D03*
X738054Y40220D02*
D03*
X744353D02*
D03*
X738054Y46323D02*
D03*
X744353D02*
D03*
X579320Y40156D02*
D03*
X585619D02*
D03*
X579320Y46260D02*
D03*
X585619D02*
D03*
D27*
X150063Y56840D02*
D03*
Y49360D02*
D03*
X157937Y53100D02*
D03*
X162837Y28700D02*
D03*
X154963Y24960D02*
D03*
Y32440D02*
D03*
D28*
X52928Y30300D02*
D03*
Y35300D02*
D03*
Y40300D02*
D03*
Y45300D02*
D03*
X31472Y30300D02*
D03*
Y35300D02*
D03*
Y40300D02*
D03*
Y45300D02*
D03*
D29*
X124900Y25950D02*
D03*
Y32250D02*
D03*
X75700Y31650D02*
D03*
Y25350D02*
D03*
X87200D02*
D03*
Y31650D02*
D03*
X99700Y25350D02*
D03*
Y31650D02*
D03*
X122000Y54201D02*
D03*
Y60500D02*
D03*
X103500Y61150D02*
D03*
Y54850D02*
D03*
X19500Y69150D02*
D03*
Y62850D02*
D03*
X59200Y70650D02*
D03*
Y64350D02*
D03*
X136711Y31996D02*
D03*
Y25697D02*
D03*
D30*
X111700Y32342D02*
D03*
Y26043D02*
D03*
X60900Y22301D02*
D03*
Y28600D02*
D03*
D31*
X84000Y60437D02*
D03*
X87740Y52563D02*
D03*
X80260D02*
D03*
D32*
X53201Y50800D02*
D03*
X59500D02*
D03*
D33*
X171500Y50000D02*
D03*
Y40000D02*
D03*
Y30000D02*
D03*
X20000Y50000D02*
D03*
Y40000D02*
D03*
Y30000D02*
D03*
D34*
X193700Y19928D02*
D03*
X111950Y20850D02*
D03*
X89200Y47300D02*
D03*
X149600Y44400D02*
D03*
X132202Y25898D02*
D03*
X154300Y20600D02*
D03*
X123100Y47700D02*
D03*
X37900Y3300D02*
D03*
X44500Y45100D02*
D03*
X43200Y32800D02*
D03*
X81500Y34400D02*
D03*
X94100Y26300D02*
D03*
X171400Y19000D02*
D03*
X124800Y14700D02*
D03*
X30400Y20800D02*
D03*
X20900Y3500D02*
D03*
X87800Y5200D02*
D03*
X193900Y4800D02*
D03*
X180600Y12800D02*
D03*
X144100Y7400D02*
D03*
X120800Y6400D02*
D03*
X71000Y47300D02*
D03*
X43363Y19163D02*
D03*
X10400Y17100D02*
D03*
X63600Y46600D02*
D03*
X66200Y20600D02*
D03*
X109300Y54100D02*
D03*
M02*
