G04*
G04 #@! TF.GenerationSoftware,Altium Limited,Altium Designer,23.8.1 (32)*
G04*
G04 Layer_Color=32768*
%FSLAX25Y25*%
%MOIN*%
G70*
G04*
G04 #@! TF.SameCoordinates,158808DC-336D-4943-AB99-54E3BA125646*
G04*
G04*
G04 #@! TF.FilePolarity,Positive*
G04*
G01*
G75*
%ADD40C,0.00394*%
%ADD41C,0.00197*%
%ADD42C,0.00300*%
D40*
X423032Y38484D02*
Y42224D01*
X421161Y40354D02*
X424902D01*
X423032Y44588D02*
Y48328D01*
X421161Y46458D02*
X424902D01*
X260925Y40354D02*
X264665D01*
X262795Y38484D02*
Y42224D01*
X260925Y46458D02*
X264665D01*
X262795Y44588D02*
Y48328D01*
X343110Y38484D02*
Y42224D01*
X341240Y40354D02*
X344980D01*
X341240Y46458D02*
X344980D01*
X343110Y44588D02*
Y48328D01*
X662205Y44453D02*
Y48193D01*
X660335Y46323D02*
X664075D01*
X662205Y38350D02*
Y42090D01*
X660335Y40220D02*
X664075D01*
X739334Y40220D02*
X743074D01*
X741204Y38350D02*
Y42090D01*
X739334Y46323D02*
X743074D01*
X741204Y44453D02*
Y48193D01*
X580599Y40156D02*
X584340D01*
X582470Y38286D02*
Y42026D01*
X580599Y46260D02*
X584340D01*
X582470Y44390D02*
Y48130D01*
X152032Y53100D02*
X155968D01*
X154000Y51131D02*
Y55068D01*
X42200Y35831D02*
Y39768D01*
X40231Y37800D02*
X44168D01*
X123030Y29100D02*
X126770D01*
X124900Y27230D02*
Y30970D01*
X75700Y26630D02*
Y30370D01*
X73830Y28500D02*
X77570D01*
X87200Y26630D02*
Y30370D01*
X85330Y28500D02*
X89070D01*
X97830D02*
X101570D01*
X99700Y26630D02*
Y30370D01*
X109830Y29193D02*
X113570D01*
X111700Y27323D02*
Y31063D01*
X60900Y23580D02*
Y27321D01*
X59030Y25450D02*
X62770D01*
X158900Y26732D02*
Y30669D01*
X156931Y28700D02*
X160869D01*
X122000Y55480D02*
Y59220D01*
X120130Y57350D02*
X123870D01*
X103500Y56130D02*
Y59870D01*
X101630Y58000D02*
X105370D01*
X19500Y64130D02*
Y67870D01*
X17630Y66000D02*
X21370D01*
X82032Y56500D02*
X85969D01*
X84000Y54532D02*
Y58469D01*
X57330Y67500D02*
X61070D01*
X59200Y65630D02*
Y69370D01*
X134841Y28846D02*
X138581D01*
X136711Y26976D02*
Y30716D01*
X56350Y48930D02*
Y52670D01*
X54480Y50800D02*
X58220D01*
D41*
X748094Y25984D02*
X769747D01*
Y50787D01*
X748094D02*
X769747D01*
X748094Y25984D02*
Y50787D01*
X668307Y25984D02*
X689961D01*
Y50787D01*
X668307D02*
X689961D01*
X668307Y25984D02*
Y50787D01*
X588769Y25984D02*
X610422D01*
Y50787D01*
X588769D02*
X610422D01*
X588769Y25984D02*
Y50787D01*
X429528Y26477D02*
Y51280D01*
X451181D01*
Y26477D02*
Y51280D01*
X429528Y26477D02*
X451181D01*
X349803Y26119D02*
Y50922D01*
X371457D01*
Y26119D02*
Y50922D01*
X349803Y26119D02*
X371457D01*
X269685D02*
X291339D01*
Y50922D01*
X269685D02*
X291339D01*
X269685Y26119D02*
Y50922D01*
X417126Y37402D02*
Y43307D01*
Y37402D02*
X428937D01*
X417126Y43307D02*
X428937D01*
Y37402D02*
Y43307D01*
X417126Y43505D02*
Y49411D01*
Y43505D02*
X428937D01*
X417126Y49411D02*
X428937D01*
Y43505D02*
Y49411D01*
X268701Y37402D02*
Y43307D01*
X256890D02*
X268701D01*
X256890Y37402D02*
X268701D01*
X256890D02*
Y43307D01*
X268701Y43505D02*
Y49410D01*
X256890D02*
X268701D01*
X256890Y43505D02*
X268701D01*
X256890D02*
Y49410D01*
X337205Y37402D02*
Y43307D01*
Y37402D02*
X349016D01*
X337205Y43307D02*
X349016D01*
Y37402D02*
Y43307D01*
Y43505D02*
Y49410D01*
X337205D02*
X349016D01*
X337205Y43505D02*
X349016D01*
X337205D02*
Y49410D01*
X656299Y43370D02*
Y49276D01*
Y43370D02*
X668110D01*
X656299Y49276D02*
X668110D01*
Y43370D02*
Y49276D01*
X656299Y37267D02*
Y43172D01*
Y37267D02*
X668110D01*
X656299Y43172D02*
X668110D01*
Y37267D02*
Y43172D01*
X747109Y37267D02*
Y43172D01*
X735298D02*
X747109D01*
X735298Y37267D02*
X747109D01*
X735298D02*
Y43172D01*
X747109Y43370D02*
Y49276D01*
X735298D02*
X747109D01*
X735298Y43370D02*
X747109D01*
X735298D02*
Y49276D01*
X588375Y37203D02*
Y43109D01*
X576564D02*
X588375D01*
X576564Y37203D02*
X588375D01*
X576564D02*
Y43109D01*
X588375Y43307D02*
Y49212D01*
X576564D02*
X588375D01*
X576564Y43307D02*
X588375D01*
X576564D02*
Y49212D01*
X146421Y46210D02*
Y59990D01*
X161579Y46210D02*
Y59990D01*
X146421D02*
X161579D01*
X146421Y46210D02*
X161579D01*
X27633Y26973D02*
X56767D01*
X27633Y48627D02*
X56767D01*
Y26973D02*
Y48627D01*
X27633Y26973D02*
Y48627D01*
X121947Y35006D02*
X127853D01*
X121947Y23194D02*
Y35006D01*
X127853Y23194D02*
Y35006D01*
X121947Y23194D02*
X127853D01*
X72747Y22594D02*
X78653D01*
Y34405D01*
X72747Y22594D02*
Y34405D01*
X78653D01*
X84247D02*
X90153D01*
X84247Y22594D02*
Y34405D01*
X90153Y22594D02*
Y34405D01*
X84247Y22594D02*
X90153D01*
X96747Y34405D02*
X102653D01*
X96747Y22594D02*
Y34405D01*
X102653Y22594D02*
Y34405D01*
X96747Y22594D02*
X102653D01*
X114653Y23386D02*
Y35000D01*
X108747Y23386D02*
Y35000D01*
X114653D01*
X108747Y23386D02*
X114653D01*
X57947Y19643D02*
X63853D01*
X57947Y31258D02*
X63853D01*
X57947Y19643D02*
Y31258D01*
X63853Y19643D02*
Y31258D01*
X151321Y21810D02*
X166479D01*
X151321Y35590D02*
X166479D01*
Y21810D02*
Y35590D01*
X151321Y21810D02*
Y35590D01*
X119047Y63256D02*
X124953D01*
X119047Y51445D02*
Y63256D01*
X124953Y51445D02*
Y63256D01*
X119047Y51445D02*
X124953D01*
X100547Y52095D02*
X106453D01*
Y63906D01*
X100547Y52095D02*
Y63906D01*
X106453D01*
X16547Y60094D02*
X22453D01*
Y71905D01*
X16547Y60094D02*
Y71905D01*
X22453D01*
X90890Y48921D02*
Y64079D01*
X77110Y48921D02*
Y64079D01*
X90890D01*
X77110Y48921D02*
X90890D01*
X56247Y61594D02*
X62153D01*
Y73405D01*
X56247Y61594D02*
Y73405D01*
X62153D01*
X133758Y22941D02*
X139664D01*
Y34752D01*
X133758Y22941D02*
Y34752D01*
X139664D01*
X50543Y53753D02*
X62157D01*
X50543Y47847D02*
X62157D01*
X50543D02*
Y53753D01*
X62157Y47847D02*
Y53753D01*
D42*
X166500Y55000D02*
X176500D01*
X166500Y45000D02*
Y55000D01*
Y45000D02*
X176500D01*
Y50000D01*
Y55000D01*
X166500Y45000D02*
X176500D01*
X166500Y35000D02*
Y45000D01*
Y35000D02*
X176500D01*
Y40000D01*
Y45000D01*
X166500Y35000D02*
X176500D01*
X166500Y25000D02*
Y35000D01*
Y25000D02*
X176500D01*
Y30000D01*
Y35000D01*
X15000Y55000D02*
X25000D01*
X15000Y45000D02*
Y55000D01*
Y45000D02*
X25000D01*
Y50000D01*
Y55000D01*
X15000Y45000D02*
X25000D01*
X15000Y35000D02*
Y45000D01*
Y35000D02*
X25000D01*
Y40000D01*
Y45000D01*
X15000Y35000D02*
X25000D01*
X15000Y25000D02*
Y35000D01*
Y25000D02*
X25000D01*
Y30000D01*
Y35000D01*
M02*
