G04*
G04 #@! TF.GenerationSoftware,Altium Limited,Altium Designer,23.8.1 (32)*
G04*
G04 Layer_Color=65535*
%FSLAX25Y25*%
%MOIN*%
G70*
G04*
G04 #@! TF.SameCoordinates,158808DC-336D-4943-AB99-54E3BA125646*
G04*
G04*
G04 #@! TF.FilePolarity,Positive*
G04*
G01*
G75*
%ADD10C,0.00787*%
%ADD11C,0.00984*%
%ADD12C,0.02362*%
%ADD13C,0.00500*%
%ADD14C,0.00591*%
%ADD15C,0.01500*%
%ADD16C,0.01000*%
G36*
X46256Y14337D02*
X46293Y14319D01*
X46311Y14301D01*
Y14264D01*
Y14228D01*
Y14191D01*
X46293Y14118D01*
Y14027D01*
Y14009D01*
Y13973D01*
Y13918D01*
X46275Y13827D01*
Y13717D01*
X46256Y13572D01*
X46238Y13408D01*
X46220Y13226D01*
Y13207D01*
X46202Y13135D01*
Y13043D01*
X46183Y12916D01*
X46165Y12752D01*
X46129Y12588D01*
X46074Y12224D01*
X45819Y10165D01*
X43906D01*
X43323Y11896D01*
Y11914D01*
X43305Y11968D01*
X43268Y12060D01*
X43232Y12169D01*
X43123Y12424D01*
X43013Y12715D01*
Y12734D01*
X42995Y12788D01*
X42959Y12861D01*
X42940Y12952D01*
X42867Y13153D01*
X42795Y13353D01*
Y13371D01*
X42776Y13389D01*
X42758Y13481D01*
X42740Y13572D01*
X42722Y13590D01*
Y13572D01*
X42704Y13499D01*
Y13426D01*
Y13353D01*
X42685Y13262D01*
X42667Y13153D01*
X42649Y13007D01*
X42631Y12843D01*
X42612Y12642D01*
X42594Y12424D01*
X42558Y12169D01*
X42521Y11877D01*
Y11859D01*
Y11804D01*
X42503Y11732D01*
X42485Y11622D01*
Y11495D01*
X42467Y11367D01*
X42430Y11057D01*
X42375Y10748D01*
X42339Y10474D01*
X42321Y10365D01*
X42303Y10274D01*
Y10201D01*
X42284Y10165D01*
Y10110D01*
X41647D01*
Y10165D01*
Y10201D01*
X41665Y10292D01*
Y10347D01*
X41683Y10438D01*
Y10547D01*
X41701Y10693D01*
X41720Y10857D01*
X41756Y11057D01*
X41774Y11294D01*
X41811Y11568D01*
X41847Y11877D01*
X41884Y12224D01*
Y12242D01*
X41902Y12315D01*
Y12424D01*
X41920Y12551D01*
X41938Y12697D01*
X41956Y12879D01*
X42011Y13262D01*
X42066Y13645D01*
X42084Y13827D01*
X42102Y13973D01*
X42120Y14118D01*
Y14209D01*
X42139Y14282D01*
Y14301D01*
X42175Y14355D01*
X44106D01*
X44197Y14045D01*
X44216Y13991D01*
X44234Y13900D01*
X44252Y13845D01*
X44270Y13754D01*
Y13736D01*
X44289Y13717D01*
X44307Y13663D01*
X44325Y13590D01*
X44361Y13499D01*
X44398Y13389D01*
X44489Y13116D01*
Y13098D01*
X44507Y13043D01*
X44544Y12970D01*
X44580Y12879D01*
X44653Y12642D01*
X44744Y12387D01*
Y12369D01*
X44762Y12315D01*
X44799Y12242D01*
X44835Y12151D01*
X44908Y11914D01*
X44999Y11659D01*
Y11640D01*
X45017Y11604D01*
X45036Y11549D01*
X45072Y11476D01*
X45127Y11312D01*
X45181Y11148D01*
X45200Y11112D01*
X45218Y11057D01*
X45236Y10984D01*
X45254Y10966D01*
Y10948D01*
X45272Y10966D01*
Y11039D01*
X45291Y11094D01*
Y11167D01*
X45309Y11240D01*
X45327Y11349D01*
X45345Y11495D01*
X45364Y11659D01*
X45382Y11841D01*
X45418Y12078D01*
X45436Y12333D01*
X45473Y12624D01*
Y12642D01*
X45491Y12697D01*
Y12788D01*
X45509Y12879D01*
X45528Y13007D01*
X45546Y13153D01*
X45582Y13462D01*
X45619Y13772D01*
Y13918D01*
X45637Y14045D01*
X45655Y14155D01*
X45673Y14246D01*
Y14301D01*
Y14319D01*
X45710Y14337D01*
X45746D01*
X45801Y14355D01*
X46147D01*
X46256Y14337D01*
D02*
G37*
G36*
X51194Y14301D02*
Y14264D01*
X51176Y14209D01*
Y14155D01*
X51157Y14064D01*
X51139Y13954D01*
X51085Y13663D01*
X48917D01*
X48880Y13608D01*
X48862Y13590D01*
X48825Y13572D01*
X48771Y13517D01*
X48734Y13462D01*
Y13444D01*
Y13389D01*
X48716Y13280D01*
X48698Y13135D01*
X48680Y13043D01*
X48661Y12916D01*
X48643Y12770D01*
X48625Y12624D01*
X48607Y12442D01*
X48570Y12224D01*
Y12205D01*
Y12169D01*
X48552Y12114D01*
Y12041D01*
X48534Y11859D01*
X48497Y11640D01*
X48479Y11422D01*
X48443Y11221D01*
Y11130D01*
X48425Y11076D01*
Y11021D01*
Y11003D01*
Y10984D01*
X48443Y10966D01*
X48479Y10912D01*
X48534Y10857D01*
X48570Y10802D01*
X49099D01*
X49226Y10820D01*
X49281Y10839D01*
X49317Y10857D01*
X49336Y10875D01*
X49372Y10893D01*
X49463Y11003D01*
Y11021D01*
X49481Y11057D01*
X49518Y11112D01*
X49536Y11203D01*
X49572Y11331D01*
X49591Y11495D01*
X49609Y11695D01*
Y11932D01*
X48825D01*
Y11987D01*
Y12023D01*
X48844Y12078D01*
Y12132D01*
X48862Y12224D01*
X48880Y12333D01*
X48917Y12624D01*
X50830D01*
X51012Y12606D01*
X51139D01*
X51176Y12588D01*
X51194D01*
Y12570D01*
Y12515D01*
X51176Y12424D01*
X51157Y12278D01*
X51139Y12187D01*
X51121Y12060D01*
X51103Y11932D01*
X51085Y11768D01*
X51066Y11586D01*
X51030Y11367D01*
Y11349D01*
Y11312D01*
X51012Y11258D01*
Y11185D01*
X50994Y10984D01*
X50957Y10766D01*
X50939Y10529D01*
X50902Y10347D01*
Y10256D01*
X50884Y10201D01*
Y10146D01*
Y10128D01*
X50684D01*
X50593Y10110D01*
X48388D01*
X48078Y10128D01*
X47805D01*
X47696Y10146D01*
X47605D01*
X47532Y10165D01*
X47477D01*
X47441Y10183D01*
X47368Y10219D01*
X47277Y10274D01*
X47204Y10347D01*
X47113Y10456D01*
X47058Y10584D01*
X47003Y10748D01*
Y10766D01*
Y10802D01*
Y10875D01*
Y11003D01*
Y11203D01*
Y11312D01*
X47022Y11458D01*
X47040Y11622D01*
X47058Y11786D01*
X47076Y12005D01*
X47095Y12224D01*
Y12242D01*
Y12278D01*
X47113Y12333D01*
Y12406D01*
X47149Y12588D01*
X47186Y12807D01*
X47204Y13025D01*
X47240Y13226D01*
Y13317D01*
X47258Y13389D01*
Y13426D01*
Y13462D01*
Y13481D01*
X47295Y13535D01*
X47331Y13626D01*
X47368Y13736D01*
X47532Y13973D01*
X47623Y14100D01*
X47750Y14191D01*
X47769Y14209D01*
X47842Y14246D01*
X47933Y14282D01*
X48042Y14301D01*
X48078Y14319D01*
X48188D01*
X48261Y14337D01*
X48588D01*
X48734Y14355D01*
X51194D01*
Y14301D01*
D02*
G37*
G36*
X41045D02*
Y14264D01*
Y14246D01*
X41027Y14191D01*
Y14118D01*
X41009Y14045D01*
Y13936D01*
X40991Y13790D01*
X40954Y13626D01*
X40936Y13426D01*
X40918Y13189D01*
X40881Y12916D01*
X40827Y12588D01*
X40790Y12224D01*
Y12205D01*
X40772Y12132D01*
Y12041D01*
X40754Y11896D01*
X40736Y11750D01*
X40718Y11568D01*
X40681Y11185D01*
X40626Y10802D01*
X40608Y10638D01*
X40590Y10474D01*
X40572Y10329D01*
Y10238D01*
X40554Y10165D01*
Y10128D01*
X40462D01*
X40371Y10110D01*
X39041D01*
Y10165D01*
X39059Y10219D01*
Y10256D01*
Y10292D01*
X39078Y10365D01*
X39096Y10456D01*
X39114Y10584D01*
X39132Y10729D01*
X39151Y10893D01*
X39187Y11094D01*
X39205Y11331D01*
X39242Y11604D01*
X39296Y11914D01*
X39333Y12278D01*
X39570Y14355D01*
X41045D01*
Y14301D01*
D02*
G37*
G36*
X38495D02*
Y14282D01*
Y14264D01*
Y14191D01*
Y14118D01*
X38476Y13918D01*
X38440Y13663D01*
X37183D01*
X37019Y13645D01*
X36873D01*
X36782Y13626D01*
X36746D01*
X36727Y13608D01*
X36709Y13590D01*
X36673Y13572D01*
X36636Y13517D01*
X36618Y13462D01*
Y13444D01*
X36600Y13389D01*
X36582Y13317D01*
X36563Y13153D01*
X36545Y13062D01*
X36527Y12934D01*
X36509Y12807D01*
X36490Y12624D01*
X36454Y12442D01*
X36436Y12224D01*
X36272Y11003D01*
X36327Y10948D01*
Y10930D01*
X36345Y10893D01*
X36381Y10857D01*
X38148D01*
Y10802D01*
Y10784D01*
Y10748D01*
X38130Y10638D01*
X38112Y10547D01*
X38094Y10456D01*
X38057Y10110D01*
X36327D01*
X36053Y10128D01*
X35780D01*
X35525Y10165D01*
X35416D01*
X35324Y10183D01*
X35252Y10201D01*
X35197Y10219D01*
X35179D01*
X35160Y10238D01*
X35051Y10310D01*
Y10329D01*
X35015Y10347D01*
X34978Y10402D01*
X34942Y10456D01*
X34905Y10547D01*
X34851Y10657D01*
X34814Y10766D01*
X34796Y10912D01*
Y10948D01*
X34814Y11021D01*
Y11130D01*
X34832Y11294D01*
X34869Y11513D01*
X34887Y11659D01*
X34905Y11804D01*
X34923Y11987D01*
X34960Y12187D01*
Y12205D01*
Y12242D01*
X34978Y12315D01*
Y12387D01*
X35015Y12606D01*
X35033Y12843D01*
X35069Y13098D01*
X35106Y13317D01*
Y13426D01*
X35124Y13499D01*
X35142Y13572D01*
Y13608D01*
X35160Y13626D01*
X35179Y13699D01*
X35233Y13809D01*
X35306Y13918D01*
X35416Y14045D01*
X35543Y14173D01*
X35707Y14282D01*
X35889Y14355D01*
X38495D01*
Y14301D01*
D02*
G37*
G36*
X33666Y12533D02*
Y12515D01*
X33685Y12460D01*
X33721Y12387D01*
X33757Y12260D01*
X33794Y12132D01*
X33849Y11968D01*
X33885Y11804D01*
X33940Y11604D01*
Y11586D01*
X33958Y11513D01*
X33976Y11422D01*
X34012Y11312D01*
X34085Y11057D01*
X34104Y10930D01*
X34140Y10802D01*
Y10784D01*
X34158Y10748D01*
X34176Y10657D01*
X34195Y10529D01*
X34213Y10493D01*
Y10456D01*
X34304Y10110D01*
X32737D01*
X32591Y10657D01*
Y10675D01*
X32573Y10748D01*
X32555Y10839D01*
X32519Y10930D01*
X32500Y11039D01*
X32464Y11112D01*
X32446Y11185D01*
Y11203D01*
Y11240D01*
X30715D01*
X30423Y10656D01*
X30077Y10110D01*
X29385D01*
Y10128D01*
X29403Y10146D01*
X29421Y10183D01*
X29458Y10256D01*
X29512Y10365D01*
X29585Y10493D01*
X29676Y10675D01*
X29804Y10893D01*
X29950Y11167D01*
X30132Y11495D01*
X30369Y11896D01*
X30496Y12132D01*
X30624Y12369D01*
X30769Y12624D01*
X30933Y12916D01*
X31116Y13207D01*
X31298Y13535D01*
X31480Y13882D01*
X31699Y14246D01*
X31753Y14355D01*
X33229D01*
X33666Y12533D01*
D02*
G37*
G36*
X26925Y14300D02*
X28765D01*
X28783Y14282D01*
X28893Y14228D01*
X29002Y14137D01*
X29093Y14009D01*
Y13991D01*
X29111Y13973D01*
X29130Y13900D01*
Y13809D01*
X29148Y13681D01*
Y13517D01*
X29130Y13298D01*
X29093Y13025D01*
Y12989D01*
Y12916D01*
X29075Y12807D01*
Y12661D01*
X29057Y12533D01*
X29039Y12387D01*
X29020Y12296D01*
X29002Y12224D01*
Y12205D01*
X28966Y12187D01*
X28893Y12096D01*
X28729Y12005D01*
X28638Y11968D01*
X28510Y11932D01*
X28401D01*
Y11914D01*
X28419Y11877D01*
X28437Y11823D01*
X28474Y11713D01*
X28528Y11549D01*
X28565Y11440D01*
X28601Y11331D01*
X28638Y11185D01*
X28692Y11021D01*
Y11003D01*
X28710Y10984D01*
X28747Y10875D01*
X28783Y10729D01*
X28856Y10565D01*
X28911Y10402D01*
X28947Y10256D01*
X28984Y10146D01*
X29002Y10128D01*
Y10110D01*
X27380D01*
X27326Y10219D01*
Y10238D01*
X27308Y10274D01*
X27289Y10329D01*
Y10347D01*
X27271Y10420D01*
X27253Y10529D01*
X27198Y10693D01*
Y10711D01*
X27180Y10729D01*
X27162Y10839D01*
X27144Y10966D01*
X27125Y11094D01*
X26888Y11932D01*
X26469D01*
X26451Y11914D01*
X26433D01*
Y11896D01*
Y11859D01*
X26415Y11786D01*
Y11677D01*
X26397Y11531D01*
X26378Y11294D01*
X26360Y11167D01*
X26342Y11003D01*
Y10966D01*
X26305Y10875D01*
X26287Y10748D01*
X26269Y10584D01*
Y10547D01*
X26251Y10456D01*
X26233Y10347D01*
X26214Y10238D01*
Y10219D01*
Y10183D01*
X26196Y10128D01*
Y10110D01*
X24720D01*
Y10165D01*
Y10201D01*
X24739Y10274D01*
Y10329D01*
X24757Y10420D01*
Y10529D01*
X24775Y10675D01*
X24793Y10839D01*
X24830Y11039D01*
X24848Y11276D01*
X24884Y11549D01*
X24921Y11859D01*
X24957Y12224D01*
Y12242D01*
X24975Y12315D01*
Y12406D01*
X24994Y12533D01*
X25012Y12697D01*
X25048Y12861D01*
X25085Y13244D01*
X25139Y13626D01*
X25176Y13790D01*
X25194Y13954D01*
X25212Y14082D01*
X25231Y14191D01*
X25249Y14264D01*
X25267Y14300D01*
Y14355D01*
X26925Y14300D01*
D02*
G37*
G36*
X24666D02*
Y14264D01*
Y14228D01*
X24647Y14173D01*
Y14100D01*
X24629Y14009D01*
Y13900D01*
X24611Y13754D01*
X24593Y13590D01*
X24575Y13389D01*
X24538Y13153D01*
X24502Y12861D01*
X24465Y12551D01*
X24429Y12187D01*
X24174Y10110D01*
X2492D01*
Y10165D01*
Y10219D01*
X2510Y10292D01*
Y10365D01*
X2528Y10456D01*
Y10565D01*
X2547Y10711D01*
X2565Y10875D01*
X2601Y11076D01*
X2620Y11294D01*
X2656Y11568D01*
X2692Y11877D01*
X2729Y12224D01*
Y12242D01*
X2747Y12315D01*
Y12424D01*
X2765Y12551D01*
X2783Y12697D01*
X2802Y12879D01*
X2856Y13262D01*
X2911Y13645D01*
X2929Y13827D01*
X2947Y13973D01*
X2966Y14118D01*
Y14209D01*
X2984Y14282D01*
Y14300D01*
Y14355D01*
X24720D01*
X24666Y14300D01*
D02*
G37*
G36*
X24083Y9618D02*
Y9582D01*
Y9545D01*
Y9527D01*
Y9490D01*
X24064Y9418D01*
X24046Y9326D01*
Y9308D01*
Y9235D01*
X24028Y9144D01*
Y9035D01*
X23937Y8452D01*
X22753D01*
Y8416D01*
Y8379D01*
X22734Y8306D01*
X22716Y8197D01*
X22698Y8051D01*
X22680Y7851D01*
Y7832D01*
X22661Y7760D01*
Y7668D01*
X22643Y7559D01*
X22625Y7450D01*
Y7340D01*
X22607Y7268D01*
Y7231D01*
X22534D01*
X22443Y7213D01*
X21368D01*
Y7268D01*
Y7286D01*
Y7304D01*
Y7359D01*
X21386Y7432D01*
Y7523D01*
X21404Y7668D01*
X21422Y7851D01*
Y7869D01*
X21441Y7942D01*
X21459Y8033D01*
X21477Y8124D01*
Y8233D01*
X21495Y8343D01*
X21514Y8416D01*
Y8452D01*
X20347D01*
X20238Y7851D01*
Y7832D01*
Y7760D01*
X20220Y7668D01*
Y7559D01*
Y7450D01*
X20202Y7340D01*
Y7268D01*
Y7231D01*
X20129D01*
X20038Y7213D01*
X18963D01*
Y7268D01*
Y7286D01*
Y7304D01*
X18981Y7359D01*
Y7432D01*
X18999Y7523D01*
X19017Y7668D01*
X19036Y7851D01*
Y7869D01*
X19054Y7942D01*
Y8033D01*
X19072Y8124D01*
X19090Y8233D01*
Y8343D01*
X19109Y8416D01*
Y8452D01*
X17924D01*
X17833Y7851D01*
Y7832D01*
Y7760D01*
X17815Y7668D01*
Y7577D01*
X17797Y7468D01*
Y7377D01*
X17778Y7304D01*
Y7268D01*
Y7213D01*
X16558D01*
Y7268D01*
Y7286D01*
Y7322D01*
Y7395D01*
X16576Y7504D01*
X16594Y7650D01*
X16612Y7851D01*
X16649Y8088D01*
X16703Y8397D01*
Y8452D01*
X15519D01*
Y8434D01*
Y8416D01*
X15501Y8361D01*
Y8288D01*
X15483Y8179D01*
X15465Y8033D01*
X15428Y7851D01*
Y7832D01*
Y7778D01*
X15410Y7687D01*
Y7596D01*
X15392Y7395D01*
X15373Y7322D01*
Y7268D01*
Y7213D01*
X14226D01*
X14153Y7231D01*
X14134D01*
Y7249D01*
Y7268D01*
X14153Y7322D01*
Y7395D01*
X14171Y7504D01*
X14189Y7650D01*
X14207Y7851D01*
Y7869D01*
X14226Y7942D01*
X14244Y8033D01*
X14262Y8160D01*
Y8270D01*
X14280Y8361D01*
X14299Y8434D01*
Y8452D01*
X13114D01*
Y8488D01*
Y8507D01*
Y8525D01*
X13132Y8634D01*
X13169Y8780D01*
X13187Y8980D01*
X13224Y9162D01*
X13242Y9363D01*
X13260Y9545D01*
Y9673D01*
X14444D01*
Y9618D01*
Y9582D01*
X14426Y9490D01*
X14408Y9345D01*
X14371Y9181D01*
X14317Y8816D01*
X14299Y8634D01*
Y8488D01*
X14317D01*
X14335Y8470D01*
X14444D01*
X14554Y8452D01*
X15428D01*
X15501Y8470D01*
X15519D01*
Y8488D01*
Y8507D01*
X15538Y8561D01*
Y8634D01*
X15556Y8725D01*
X15574Y8871D01*
X15592Y9071D01*
Y9090D01*
X15610Y9162D01*
Y9254D01*
X15629Y9381D01*
X15647Y9490D01*
Y9582D01*
X15665Y9654D01*
Y9673D01*
X16849D01*
Y9618D01*
Y9600D01*
Y9545D01*
X16831Y9490D01*
Y9399D01*
X16813Y9272D01*
X16795Y9090D01*
Y9071D01*
Y8998D01*
X16776Y8907D01*
Y8798D01*
X16758Y8671D01*
X16740Y8580D01*
X16722Y8507D01*
X16703Y8488D01*
Y8452D01*
X17924D01*
X17979Y9035D01*
Y9053D01*
X17997Y9126D01*
Y9217D01*
X18015Y9326D01*
X18034Y9436D01*
Y9527D01*
X18052Y9600D01*
X18070Y9618D01*
Y9673D01*
X19254D01*
Y9654D01*
Y9600D01*
Y9527D01*
X19236Y9399D01*
X19218Y9235D01*
X19200Y9035D01*
X19163Y8780D01*
X19109Y8488D01*
Y8452D01*
X20293D01*
X20347Y8488D01*
Y8507D01*
Y8543D01*
Y8598D01*
X20366Y8689D01*
Y8780D01*
Y8926D01*
X20384Y9090D01*
Y9108D01*
X20402Y9181D01*
Y9254D01*
X20420Y9363D01*
Y9472D01*
X20439Y9563D01*
Y9636D01*
Y9673D01*
X21678D01*
Y9636D01*
X21659Y9600D01*
Y9527D01*
X21641Y9418D01*
X21623Y9272D01*
X21587Y9071D01*
Y9053D01*
X21568Y8980D01*
Y8889D01*
X21550Y8780D01*
X21532Y8671D01*
Y8580D01*
X21514Y8507D01*
Y8470D01*
X21587D01*
X21659Y8452D01*
X22698D01*
X22753Y8488D01*
Y8507D01*
Y8525D01*
Y8561D01*
X22771Y8634D01*
Y8743D01*
X22789Y8889D01*
X22807Y9090D01*
X22898Y9673D01*
X24083D01*
Y9618D01*
D02*
G37*
G36*
X12021D02*
Y9600D01*
Y9582D01*
X12003Y9527D01*
Y9454D01*
X11985Y9290D01*
X11948Y9090D01*
X11930Y8889D01*
X11893Y8707D01*
X11875Y8561D01*
Y8525D01*
Y8488D01*
X11893D01*
X11912Y8470D01*
X12039D01*
X12149Y8452D01*
X13114D01*
Y8434D01*
Y8397D01*
X13096Y8343D01*
Y8270D01*
X13078Y8160D01*
X13041Y7996D01*
X13005Y7796D01*
X12968Y7213D01*
X11821D01*
X11748Y7231D01*
X11729D01*
Y7249D01*
Y7268D01*
X11748Y7322D01*
Y7395D01*
X11766Y7504D01*
X11784Y7650D01*
X11802Y7832D01*
Y7851D01*
X11821Y7924D01*
Y8015D01*
X11839Y8124D01*
X11857Y8215D01*
Y8324D01*
X11875Y8379D01*
Y8416D01*
X11839Y8434D01*
X11729D01*
X11638Y8452D01*
X10691D01*
Y8397D01*
Y8361D01*
X10673Y8324D01*
Y8252D01*
X10655Y8142D01*
X10636Y7996D01*
X10600Y7796D01*
X10545Y7213D01*
X9324D01*
Y7268D01*
Y7286D01*
Y7304D01*
X9343Y7413D01*
X9379Y7559D01*
X9397Y7741D01*
X9434Y7942D01*
X9452Y8142D01*
X9470Y8306D01*
Y8452D01*
X8468D01*
X8377Y8434D01*
X8304D01*
X8286Y8416D01*
Y8397D01*
Y8379D01*
Y8343D01*
X8268Y8270D01*
X8249Y8160D01*
X8231Y8015D01*
X8213Y7832D01*
Y7814D01*
X8195Y7741D01*
Y7650D01*
X8177Y7541D01*
X8158Y7432D01*
Y7340D01*
X8140Y7268D01*
Y7231D01*
X8067D01*
X7994Y7213D01*
X7011D01*
X6938Y7231D01*
X6919D01*
Y7249D01*
Y7268D01*
X6938Y7322D01*
Y7395D01*
X6956Y7504D01*
X6974Y7650D01*
X6992Y7851D01*
Y7869D01*
X7011Y7942D01*
Y8033D01*
X7029Y8160D01*
X7047Y8270D01*
Y8361D01*
X7065Y8434D01*
Y8452D01*
X5881D01*
Y8416D01*
X5863Y8379D01*
Y8306D01*
X5844Y8197D01*
X5808Y8051D01*
X5771Y7851D01*
X5735Y7213D01*
X4605D01*
X4533Y7231D01*
X4496D01*
Y7249D01*
Y7268D01*
X4514Y7322D01*
Y7395D01*
X4533Y7504D01*
X4551Y7650D01*
X4569Y7832D01*
Y7851D01*
X4587Y7924D01*
Y8015D01*
X4605Y8124D01*
X4624Y8215D01*
Y8324D01*
X4642Y8379D01*
Y8416D01*
X4605Y8434D01*
X4496D01*
X4405Y8452D01*
X3476D01*
Y8488D01*
Y8507D01*
Y8543D01*
Y8580D01*
X3494Y8652D01*
Y8762D01*
Y8907D01*
X3512Y9090D01*
X3622Y9673D01*
X4842D01*
X4788Y9618D01*
Y9582D01*
X4769Y9490D01*
X4751Y9345D01*
Y9162D01*
X4733Y8980D01*
X4715Y8780D01*
X4696Y8616D01*
Y8488D01*
X4715D01*
X4733Y8470D01*
X4842D01*
X4952Y8452D01*
X5790D01*
X5863Y8470D01*
X5881D01*
Y8488D01*
Y8507D01*
X5899Y8561D01*
Y8634D01*
X5917Y8725D01*
X5935Y8871D01*
X5954Y9071D01*
Y9090D01*
X5972Y9162D01*
Y9254D01*
X5990Y9381D01*
X6008Y9490D01*
Y9582D01*
X6027Y9654D01*
Y9673D01*
X7247D01*
X7211Y9618D01*
Y9582D01*
Y9545D01*
X7193Y9472D01*
Y9381D01*
X7175Y9235D01*
X7156Y9035D01*
X7102Y8452D01*
X7703Y8488D01*
X8286D01*
X8341Y9090D01*
Y9108D01*
X8359Y9181D01*
X8377Y9272D01*
X8395Y9381D01*
Y9490D01*
X8413Y9582D01*
X8432Y9654D01*
Y9673D01*
X9434D01*
X9525Y9654D01*
X9598D01*
X9616Y9636D01*
Y9618D01*
Y9600D01*
Y9563D01*
X9598Y9490D01*
X9579Y9381D01*
X9561Y9235D01*
X9543Y9053D01*
Y9035D01*
X9525Y8962D01*
Y8871D01*
X9507Y8762D01*
X9488Y8671D01*
Y8561D01*
X9470Y8507D01*
Y8470D01*
X9543D01*
X9616Y8452D01*
X10691D01*
Y8488D01*
Y8507D01*
Y8525D01*
Y8561D01*
X10709Y8634D01*
Y8743D01*
X10727Y8889D01*
X10746Y9090D01*
X10855Y9673D01*
X12021D01*
Y9618D01*
D02*
G37*
G36*
X45473Y9654D02*
X49190D01*
X49591Y9636D01*
X50647D01*
X50757Y9618D01*
X50793D01*
Y9582D01*
Y9509D01*
Y9436D01*
X50775Y9345D01*
Y9235D01*
X50757Y9108D01*
X50739Y8962D01*
X50720Y8780D01*
X50702Y8598D01*
X50666Y8379D01*
X50629Y8142D01*
X50593Y7869D01*
X50556Y7577D01*
X50502Y7268D01*
Y7213D01*
X24374Y7213D01*
Y7268D01*
Y7286D01*
Y7377D01*
X24392Y7432D01*
Y7523D01*
Y7632D01*
X24411Y7741D01*
X24429Y7887D01*
X24447Y8051D01*
X24465Y8252D01*
X24502Y8470D01*
X24538Y8707D01*
X24575Y8980D01*
X24611Y9290D01*
X24666Y9618D01*
Y9673D01*
X44252Y9673D01*
X45473Y9654D01*
D02*
G37*
G36*
X3476Y8434D02*
Y8379D01*
X3458Y8306D01*
X3439Y8215D01*
X3403Y8015D01*
X3367Y7796D01*
X3312Y7213D01*
X2091D01*
Y7304D01*
Y7322D01*
Y7340D01*
X2109Y7377D01*
Y7395D01*
X2128Y7450D01*
X2146Y7523D01*
X2164Y7632D01*
Y7668D01*
X2182Y7723D01*
Y7814D01*
Y7905D01*
X2237Y8452D01*
X3476D01*
Y8434D01*
D02*
G37*
G36*
X39697Y6411D02*
X45127D01*
X45291Y6393D01*
X45673D01*
X45655Y6375D01*
X45619Y6357D01*
X45546Y6320D01*
X45418Y6266D01*
X45345Y6211D01*
X45236Y6174D01*
X45109Y6120D01*
X44981Y6047D01*
X44817Y5974D01*
X44635Y5883D01*
X43615Y5391D01*
X22807Y5883D01*
X22570D01*
X22443Y5901D01*
X21696D01*
X21441Y5919D01*
X21167D01*
X20894Y5938D01*
X20256D01*
X19564Y5956D01*
X18799Y5974D01*
X17979Y5992D01*
X17123Y6010D01*
X16230Y6047D01*
X15301Y6065D01*
X14353Y6083D01*
X12404Y6138D01*
X10472Y6174D01*
X9507Y6193D01*
X8577Y6229D01*
X7685Y6247D01*
X6828Y6266D01*
X6008Y6284D01*
X5243Y6302D01*
X4551Y6320D01*
X4223Y6338D01*
X3640D01*
X3367Y6357D01*
X3111D01*
X2893Y6375D01*
X2364D01*
X2237Y6393D01*
X2674D01*
X2893Y6411D01*
X8177D01*
X8614Y6430D01*
X38768Y6430D01*
X39697Y6411D01*
D02*
G37*
G36*
X47951D02*
X48024D01*
X48042Y6393D01*
X48024Y6375D01*
X47987Y6357D01*
X47914Y6320D01*
X47769Y6266D01*
X47696Y6211D01*
X47586Y6174D01*
X47459Y6120D01*
X47313Y6047D01*
X47149Y5974D01*
X46949Y5883D01*
X45874Y5336D01*
X45272D01*
X45200Y5354D01*
X45127D01*
X45017Y5373D01*
X44926D01*
X44835Y5391D01*
X44744D01*
X44780Y5409D01*
X44817Y5427D01*
X44872Y5446D01*
X44945Y5482D01*
X45036Y5537D01*
X45054D01*
X45090Y5555D01*
X45145Y5591D01*
X45236Y5628D01*
X45345Y5683D01*
X45473Y5737D01*
X45619Y5810D01*
X45783Y5883D01*
X46858Y6430D01*
X47860D01*
X47951Y6411D01*
D02*
G37*
G36*
X50301D02*
X50374D01*
X50392Y6393D01*
X50374Y6375D01*
X50338Y6357D01*
X50247Y6320D01*
X50119Y6247D01*
X50028Y6211D01*
X49919Y6156D01*
X49791Y6083D01*
X49627Y6010D01*
X49463Y5919D01*
X49263Y5828D01*
X48078Y5300D01*
X47568D01*
X47477Y5318D01*
X47386D01*
X47186Y5336D01*
X47003D01*
X47022Y5354D01*
X47058Y5373D01*
X47131Y5409D01*
X47258Y5464D01*
X47350Y5519D01*
X47459Y5573D01*
X47586Y5628D01*
X47732Y5701D01*
X47896Y5792D01*
X48078Y5883D01*
X49226Y6430D01*
X50210D01*
X50301Y6411D01*
D02*
G37*
%LPC*%
G36*
X31899Y13371D02*
X31881Y13335D01*
X31844Y13280D01*
X31808Y13226D01*
X31771Y13135D01*
X31699Y13025D01*
Y13007D01*
X31662Y12970D01*
X31626Y12898D01*
X31589Y12807D01*
X31462Y12570D01*
X31334Y12296D01*
Y12278D01*
X31316Y12242D01*
X31261Y12114D01*
X31188Y11987D01*
X31170Y11950D01*
Y11932D01*
X31699D01*
X32245Y11987D01*
Y12005D01*
X32227Y12023D01*
X32209Y12078D01*
Y12096D01*
X32190Y12151D01*
X32172Y12242D01*
X32136Y12351D01*
Y12387D01*
X32118Y12460D01*
X32099Y12570D01*
Y12679D01*
Y12715D01*
X32063Y12788D01*
X32045Y12898D01*
X32008Y13025D01*
X31972Y13153D01*
X31935Y13262D01*
X31917Y13335D01*
X31899Y13371D01*
D02*
G37*
G36*
X27617Y13608D02*
X26633D01*
X26597Y13171D01*
Y13153D01*
Y13098D01*
X26579Y13007D01*
Y12916D01*
X26561Y12825D01*
Y12734D01*
X26542Y12679D01*
Y12642D01*
X26597D01*
X26652Y12624D01*
X27235D01*
X27344Y12642D01*
X27417D01*
X27490Y12661D01*
X27526Y12679D01*
X27544Y12697D01*
Y12715D01*
X27563Y12752D01*
X27581Y12825D01*
X27617Y12898D01*
X27635Y13025D01*
X27672Y13171D01*
Y13189D01*
Y13226D01*
X27690Y13298D01*
Y13371D01*
X27672Y13517D01*
X27654Y13572D01*
X27617Y13608D01*
D02*
G37*
G36*
X23937Y13517D02*
X23445D01*
X23044Y12916D01*
X23026Y12898D01*
X22989Y12843D01*
X22917Y12752D01*
X22862Y12661D01*
X22789Y12551D01*
X22716Y12478D01*
X22680Y12406D01*
X22661Y12387D01*
X22643Y12424D01*
X22625Y12460D01*
X22607Y12515D01*
X22552Y12606D01*
X22498Y12734D01*
X22406Y12916D01*
X22115Y13517D01*
X21022D01*
Y13462D01*
Y13444D01*
X21040Y13408D01*
X21076Y13335D01*
X21113Y13226D01*
X21186Y13080D01*
X21295Y12879D01*
X21422Y12624D01*
X21823Y11841D01*
X21714Y11294D01*
Y11276D01*
Y11221D01*
X21696Y11130D01*
Y11057D01*
Y10966D01*
X21678Y10875D01*
Y10820D01*
Y10802D01*
X22607D01*
X22661Y11294D01*
X22753Y11786D01*
X23299Y12570D01*
Y12588D01*
X23317Y12606D01*
X23372Y12697D01*
X23445Y12825D01*
X23536Y12970D01*
Y12989D01*
X23554Y13007D01*
X23627Y13080D01*
X23682Y13189D01*
X23755Y13280D01*
X23773Y13298D01*
X23791Y13353D01*
X23846Y13389D01*
X23882Y13408D01*
X23937Y13517D01*
D02*
G37*
G36*
X23281Y11312D02*
X23226D01*
X23153Y11294D01*
X23117Y11276D01*
X23062Y11221D01*
X22989Y11148D01*
X22971Y11094D01*
X22953Y11021D01*
Y11003D01*
X22971Y10930D01*
X23008Y10857D01*
X23099Y10802D01*
X23226D01*
X23281Y10820D01*
X23354Y10857D01*
X23390Y10930D01*
X23445Y11003D01*
Y11021D01*
X23463Y11039D01*
Y11112D01*
Y11167D01*
X23445Y11203D01*
X23390Y11258D01*
X23336Y11294D01*
X23317D01*
X23281Y11312D01*
D02*
G37*
G36*
X20092Y13517D02*
X19273D01*
X19182Y13499D01*
X19127D01*
X19109Y13481D01*
Y13462D01*
Y13408D01*
X19090Y13298D01*
Y13226D01*
X19072Y13153D01*
X19054Y13043D01*
Y12898D01*
X19036Y12752D01*
X19017Y12570D01*
X18981Y12369D01*
X18963Y12132D01*
Y12114D01*
Y12078D01*
X18945Y12005D01*
Y11932D01*
X18926Y11713D01*
X18890Y11476D01*
X18872Y11221D01*
X18835Y11003D01*
Y10930D01*
X18817Y10857D01*
Y10820D01*
Y10802D01*
X20876D01*
Y10948D01*
Y10966D01*
X20894Y10984D01*
X20912Y11057D01*
X20931Y11148D01*
Y11203D01*
Y11240D01*
X19801D01*
Y11258D01*
Y11349D01*
X19819Y11495D01*
Y11586D01*
X19837Y11695D01*
X19856Y11841D01*
X19874Y12005D01*
X19892Y12187D01*
X19929Y12387D01*
X19965Y12606D01*
X20001Y12879D01*
X20038Y13153D01*
X20092Y13462D01*
Y13517D01*
D02*
G37*
G36*
X18234D02*
X16977D01*
X16776Y13499D01*
X16594D01*
X16412Y13481D01*
X16285Y13444D01*
X16248Y13426D01*
X16212Y13408D01*
X16193D01*
X16175Y13389D01*
X16084Y13335D01*
X15975Y13207D01*
X15938Y13135D01*
X15920Y13025D01*
Y12989D01*
X15884Y12898D01*
X15865Y12734D01*
X15829Y12533D01*
X15792Y12296D01*
X15756Y12005D01*
X15738Y11695D01*
X15720Y11349D01*
Y11331D01*
Y11312D01*
Y11203D01*
Y11185D01*
X15738Y11167D01*
X15774Y11057D01*
X15847Y10948D01*
X15957Y10857D01*
X15993D01*
X16048Y10839D01*
X16139D01*
X16266Y10820D01*
X16430D01*
X16667Y10802D01*
X17414D01*
X17578Y10820D01*
X17760D01*
X17888Y10839D01*
X17979Y10857D01*
X17997D01*
X18034Y10893D01*
X18070Y10930D01*
X18143Y10984D01*
X18198Y11057D01*
X18270Y11148D01*
X18325Y11258D01*
X18380Y11404D01*
Y11422D01*
Y11458D01*
X18398Y11531D01*
Y11622D01*
X18416Y11750D01*
X18434Y11914D01*
X18471Y12132D01*
Y12151D01*
Y12169D01*
X18489Y12278D01*
Y12442D01*
X18507Y12624D01*
Y12825D01*
Y13007D01*
X18489Y13153D01*
X18471Y13262D01*
X18453Y13280D01*
X18434Y13335D01*
X18361Y13408D01*
X18270Y13462D01*
X18234Y13517D01*
D02*
G37*
G36*
X14645D02*
X13296D01*
X13132Y13499D01*
X13023D01*
X12987Y13481D01*
X12968D01*
Y13462D01*
Y13408D01*
X12950Y13298D01*
X12932Y13226D01*
Y13153D01*
X12914Y13043D01*
X12896Y12898D01*
X12877Y12752D01*
X12841Y12570D01*
X12823Y12369D01*
X12786Y12132D01*
Y12114D01*
Y12078D01*
X12768Y12005D01*
Y11932D01*
X12732Y11713D01*
X12713Y11476D01*
X12677Y11221D01*
X12641Y11003D01*
Y10930D01*
X12622Y10857D01*
Y10820D01*
Y10802D01*
X13552D01*
Y10857D01*
Y10875D01*
Y10930D01*
X13570Y10984D01*
Y11057D01*
X13588Y11167D01*
X13606Y11294D01*
Y11312D01*
Y11367D01*
X13624Y11440D01*
Y11513D01*
X13643Y11695D01*
Y11750D01*
Y11786D01*
X14954D01*
X14991Y11804D01*
X15100Y11877D01*
X15228Y12005D01*
X15282Y12078D01*
X15319Y12187D01*
X15337Y12205D01*
Y12242D01*
X15355Y12296D01*
X15373Y12369D01*
X15392Y12497D01*
X15410Y12661D01*
X15428Y12879D01*
Y12898D01*
Y12934D01*
X15446Y13043D01*
Y13171D01*
Y13226D01*
X15428Y13262D01*
X15410Y13280D01*
X15355Y13335D01*
X15246Y13408D01*
X15118Y13462D01*
X15100Y13481D01*
X15045D01*
X14973Y13499D01*
X14845D01*
X14645Y13517D01*
D02*
G37*
G36*
X10308D02*
X9379D01*
X9179Y12187D01*
Y12169D01*
Y12132D01*
X9161Y12060D01*
Y11987D01*
X9142Y11768D01*
X9106Y11513D01*
X9088Y11258D01*
X9051Y11039D01*
Y10948D01*
X9033Y10875D01*
Y10820D01*
Y10802D01*
X11092D01*
X11146Y10948D01*
Y10966D01*
Y10984D01*
Y11094D01*
Y11112D01*
Y11148D01*
Y11185D01*
Y11203D01*
Y11240D01*
X10017D01*
Y11276D01*
Y11349D01*
X10035Y11495D01*
Y11604D01*
X10053Y11732D01*
X10071Y11859D01*
X10090Y12023D01*
X10108Y12205D01*
X10144Y12406D01*
X10181Y12642D01*
X10217Y12879D01*
X10254Y13171D01*
X10308Y13462D01*
Y13517D01*
D02*
G37*
G36*
X8049D02*
X7102D01*
Y13462D01*
X7083Y13426D01*
X7047Y13371D01*
X6992Y13280D01*
X6956Y13207D01*
X6901Y13116D01*
X6828Y13007D01*
X6755Y12879D01*
X6664Y12734D01*
X6573Y12551D01*
X6446Y12351D01*
X6318Y12132D01*
Y12114D01*
X6282Y12078D01*
X6245Y12005D01*
X6209Y11932D01*
X6081Y11713D01*
X5954Y11476D01*
X5826Y11221D01*
X5699Y11003D01*
X5662Y10930D01*
X5626Y10857D01*
X5589Y10820D01*
Y10802D01*
X6027D01*
X6227Y11148D01*
X6427Y11549D01*
X7557D01*
X7648Y11148D01*
X7739Y10802D01*
X8778D01*
Y10820D01*
X8760Y10875D01*
X8741Y10966D01*
X8705Y11039D01*
X8687Y11130D01*
X8669Y11240D01*
X8632Y11367D01*
X8577Y11531D01*
X8541Y11713D01*
X8486Y11914D01*
X8413Y12151D01*
Y12169D01*
X8395Y12205D01*
X8377Y12278D01*
X8359Y12369D01*
X8304Y12588D01*
X8231Y12843D01*
X8158Y13080D01*
X8104Y13298D01*
X8085Y13389D01*
X8067Y13462D01*
X8049Y13499D01*
Y13517D01*
D02*
G37*
G36*
X5225D02*
X4278D01*
X4113Y13499D01*
X3968D01*
X3858Y13481D01*
X3822D01*
X3804Y13462D01*
X3767Y13444D01*
X3694Y13408D01*
X3603Y13317D01*
X3512Y13171D01*
X3494Y13135D01*
X3476Y13080D01*
X3458Y12989D01*
X3421Y12861D01*
X3385Y12697D01*
X3348Y12478D01*
X3312Y12187D01*
Y12169D01*
Y12151D01*
X3294Y12041D01*
X3275Y11877D01*
X3257Y11695D01*
X3239Y11513D01*
Y11331D01*
Y11185D01*
X3257Y11130D01*
X3275Y11094D01*
X3294Y11057D01*
X3330Y10984D01*
X3421Y10893D01*
X3476Y10839D01*
X3567Y10802D01*
X5280D01*
Y10820D01*
Y10893D01*
X5298Y10930D01*
Y11003D01*
Y11021D01*
Y11039D01*
X5316Y11112D01*
X5334Y11185D01*
Y11240D01*
X4259D01*
X4205Y11294D01*
Y11312D01*
X4186Y11331D01*
X4168Y11349D01*
X4150D01*
Y11367D01*
Y11404D01*
X4168Y11476D01*
Y11586D01*
X4186Y11732D01*
X4205Y11932D01*
X4241Y12187D01*
Y12205D01*
Y12224D01*
X4259Y12315D01*
X4278Y12442D01*
X4296Y12588D01*
X4314Y12715D01*
X4332Y12843D01*
X4350Y12934D01*
Y12970D01*
Y12989D01*
Y13007D01*
X4369Y13025D01*
X4405Y13062D01*
X5444D01*
X5516Y13080D01*
X5535D01*
Y13116D01*
Y13189D01*
X5553Y13280D01*
Y13317D01*
X5571Y13371D01*
X5589Y13444D01*
Y13481D01*
X5571D01*
X5553Y13499D01*
X5371D01*
X5225Y13517D01*
D02*
G37*
%LPD*%
G36*
X23281Y11258D02*
X23299D01*
X23317Y11240D01*
X23354Y11185D01*
X23372Y11167D01*
X23390Y11094D01*
Y11076D01*
Y11039D01*
X23372Y11003D01*
X23336Y10948D01*
X23317Y10930D01*
X23281Y10912D01*
X23208Y10875D01*
X23099D01*
X23062Y10912D01*
X23008Y10966D01*
X22989Y11057D01*
Y11076D01*
X23008Y11130D01*
X23080Y11203D01*
X23117Y11221D01*
X23190Y11240D01*
X23208D01*
X23226Y11258D01*
X23245Y11276D01*
X23281Y11258D01*
D02*
G37*
%LPC*%
G36*
Y11203D02*
X23208D01*
X23190Y11185D01*
X23153Y11148D01*
X23117Y11076D01*
Y11057D01*
Y11021D01*
Y10966D01*
Y10948D01*
X23135Y10966D01*
X23153Y11003D01*
Y11057D01*
Y11076D01*
X23172Y11094D01*
X23190D01*
Y11057D01*
X23208Y11021D01*
Y11003D01*
X23226Y10984D01*
X23245Y10966D01*
X23263Y10948D01*
X23281D01*
X23299Y10966D01*
Y11003D01*
Y11057D01*
X23317Y11094D01*
Y11112D01*
Y11130D01*
Y11167D01*
X23299Y11185D01*
X23281Y11203D01*
D02*
G37*
%LPD*%
G36*
X23245Y11130D02*
Y11112D01*
Y11094D01*
X23190D01*
Y11130D01*
Y11148D01*
X23226D01*
X23245Y11130D01*
D02*
G37*
G36*
X17615Y13043D02*
X17633Y13007D01*
Y12970D01*
Y12952D01*
Y12916D01*
X17615Y12843D01*
Y12734D01*
X17596Y12588D01*
X17560Y12387D01*
X17523Y12132D01*
Y12096D01*
X17505Y12005D01*
X17487Y11877D01*
X17469Y11732D01*
X17451Y11586D01*
X17432Y11458D01*
Y11367D01*
X17414Y11312D01*
X17396Y11294D01*
X17359Y11258D01*
X17305D01*
X17268Y11240D01*
X16703D01*
X16685Y11258D01*
X16667Y11294D01*
Y11367D01*
X16649Y11476D01*
X16667Y11640D01*
Y11859D01*
X16685Y11987D01*
X16703Y12132D01*
Y12151D01*
Y12169D01*
X16722Y12260D01*
X16740Y12387D01*
X16758Y12533D01*
Y12679D01*
X16776Y12825D01*
X16795Y12916D01*
Y12970D01*
X16813Y12989D01*
X16831Y13007D01*
X16940Y13062D01*
X17596D01*
X17615Y13043D01*
D02*
G37*
G36*
X14481D02*
Y12989D01*
Y12934D01*
Y12898D01*
Y12843D01*
X14462Y12752D01*
Y12642D01*
Y12624D01*
Y12588D01*
X14444Y12478D01*
X14426Y12369D01*
Y12315D01*
X14408Y12296D01*
Y12278D01*
X14390Y12224D01*
X14335Y12187D01*
X13752D01*
Y12224D01*
Y12242D01*
Y12296D01*
Y12351D01*
Y12424D01*
X13770Y12515D01*
Y12642D01*
Y12661D01*
Y12697D01*
X13788Y12770D01*
Y12843D01*
X13825Y12989D01*
Y13025D01*
X13843Y13062D01*
X14481D01*
Y13043D01*
D02*
G37*
G36*
X7211Y12861D02*
X7229Y12825D01*
Y12770D01*
X7266Y12679D01*
X7284Y12570D01*
X7320Y12424D01*
Y12406D01*
X7339Y12351D01*
X7357Y12278D01*
X7393Y12205D01*
X7430Y12041D01*
X7448Y11987D01*
Y11950D01*
X7284D01*
X7193Y11968D01*
X7065Y11987D01*
X6719D01*
X6956Y12424D01*
X6974Y12442D01*
X6992Y12497D01*
X7029Y12570D01*
X7083Y12661D01*
X7138Y12734D01*
X7175Y12807D01*
X7193Y12861D01*
X7211Y12879D01*
Y12861D01*
D02*
G37*
%LPC*%
G36*
X45528Y9235D02*
X45509D01*
X45436Y9217D01*
X45364Y9199D01*
X45291Y9126D01*
X45272Y9108D01*
X45254Y9090D01*
X45181Y8980D01*
X45145Y8889D01*
Y8798D01*
Y8707D01*
X45181Y8598D01*
X45200Y8580D01*
X45236Y8561D01*
X45291Y8488D01*
X45382Y8397D01*
X45400Y8379D01*
X45455Y8306D01*
X45509Y8233D01*
X45528Y8142D01*
Y8106D01*
X45509Y8051D01*
X45473Y7996D01*
X45382Y7960D01*
X45345Y7942D01*
X45309Y7924D01*
X45272Y7942D01*
Y7960D01*
X45254Y7978D01*
X45236Y8033D01*
Y8106D01*
Y8142D01*
X45036D01*
Y8124D01*
Y8106D01*
X45054Y8051D01*
Y8033D01*
X45072Y7996D01*
X45090Y7905D01*
X45109Y7887D01*
X45127Y7851D01*
X45236Y7741D01*
X45309Y7723D01*
X45400Y7705D01*
X45509Y7760D01*
X45619Y7851D01*
X45637Y7869D01*
X45692Y7942D01*
X45728Y8051D01*
X45746Y8124D01*
X45728Y8197D01*
Y8215D01*
X45710Y8288D01*
X45655Y8397D01*
X45546Y8543D01*
Y8561D01*
X45528Y8580D01*
X45473Y8652D01*
X45400Y8743D01*
X45382Y8835D01*
Y8853D01*
Y8871D01*
X45400Y8944D01*
X45418Y8998D01*
X45436Y9035D01*
X45546D01*
X45601Y8998D01*
X45619Y8962D01*
Y8889D01*
X45764D01*
X45801Y8907D01*
X45819Y8944D01*
Y8962D01*
Y8998D01*
X45783Y9126D01*
Y9144D01*
X45746Y9162D01*
X45673Y9199D01*
X45655D01*
X45637Y9217D01*
X45528Y9235D01*
D02*
G37*
G36*
X37620D02*
X37547D01*
X37474Y9217D01*
X37401Y9199D01*
X37310Y9126D01*
X37292Y9108D01*
X37274Y9090D01*
X37219Y8980D01*
X37201Y8889D01*
X37183Y8798D01*
X37201Y8707D01*
X37256Y8598D01*
X37274Y8580D01*
X37292Y8561D01*
X37347Y8488D01*
X37420Y8397D01*
X37438Y8379D01*
X37492Y8306D01*
X37547Y8233D01*
X37565Y8142D01*
Y8106D01*
X37547Y8051D01*
X37529Y7996D01*
X37456Y7960D01*
X37438D01*
X37401Y7942D01*
X37365Y7924D01*
X37329Y7942D01*
Y7960D01*
X37310Y7978D01*
X37292Y8033D01*
X37256Y8106D01*
Y8142D01*
X37073D01*
Y8124D01*
Y8106D01*
X37092Y8051D01*
Y8033D01*
X37110Y7996D01*
Y7905D01*
X37128Y7887D01*
X37146Y7851D01*
X37201Y7796D01*
X37274Y7741D01*
X37365Y7723D01*
X37456Y7705D01*
X37547Y7760D01*
X37657Y7851D01*
X37675Y7869D01*
X37729Y7942D01*
X37784Y8051D01*
X37802Y8197D01*
X37784Y8215D01*
X37748Y8288D01*
X37693Y8397D01*
X37584Y8543D01*
Y8561D01*
X37565Y8580D01*
X37511Y8652D01*
X37438Y8743D01*
X37420Y8835D01*
Y8853D01*
Y8871D01*
X37438Y8944D01*
X37456Y8998D01*
X37474Y9035D01*
X37584D01*
X37638Y8998D01*
X37657Y8962D01*
Y8889D01*
X37857D01*
X37893Y8907D01*
X37912Y8944D01*
Y8962D01*
X37893Y8998D01*
X37875Y9053D01*
X37802Y9126D01*
Y9144D01*
X37766Y9162D01*
X37693Y9199D01*
X37657Y9217D01*
X37620Y9235D01*
D02*
G37*
G36*
X26105Y9235D02*
X25978D01*
X25941Y9217D01*
X25905Y9181D01*
X25886D01*
X25868Y9162D01*
X25777Y9090D01*
X25686Y8980D01*
X25668Y8889D01*
X25649Y8780D01*
Y8762D01*
X25686Y8671D01*
X25759Y8561D01*
X25813Y8488D01*
X25905Y8397D01*
X25923Y8379D01*
X25959Y8343D01*
X26014Y8288D01*
X26050Y8252D01*
Y8233D01*
X26069Y8179D01*
Y8124D01*
X26050Y8051D01*
X26032Y8033D01*
X26014Y8015D01*
X25959Y7978D01*
X25905Y7960D01*
X25886D01*
X25832Y7978D01*
X25777Y8015D01*
X25759Y8106D01*
X25741Y8124D01*
X25704Y8142D01*
X25558D01*
Y8051D01*
Y8015D01*
X25577Y7942D01*
X25649Y7851D01*
X25686Y7796D01*
X25759Y7760D01*
X25959D01*
X26050Y7796D01*
X26123Y7832D01*
X26178Y7887D01*
X26214Y7960D01*
X26251Y8051D01*
Y8069D01*
Y8088D01*
X26233Y8197D01*
X26214Y8270D01*
X26178Y8361D01*
X26123Y8452D01*
X26050Y8543D01*
X26032Y8561D01*
X25978Y8634D01*
X25923Y8707D01*
X25905Y8780D01*
Y8798D01*
Y8816D01*
Y8907D01*
X25941Y8998D01*
X25996Y9017D01*
X26050Y9035D01*
X26069D01*
X26105Y9017D01*
X26123Y8998D01*
X26142Y8944D01*
Y8889D01*
X26342D01*
Y8944D01*
Y8980D01*
X26324Y9035D01*
X26305Y9126D01*
X26251Y9181D01*
X26233Y9199D01*
X26178Y9217D01*
X26105Y9235D01*
D02*
G37*
G36*
X30132D02*
X29931D01*
Y9217D01*
X29913Y9144D01*
X29895Y9017D01*
Y8889D01*
X29858Y8561D01*
X29840Y8397D01*
Y8252D01*
X29822Y8270D01*
X29804Y8306D01*
X29785Y8379D01*
X29767Y8452D01*
X29749Y8580D01*
X29731Y8743D01*
X29640Y9235D01*
X29476D01*
X29403Y9217D01*
X29385Y9199D01*
Y9181D01*
Y9162D01*
X29366Y9108D01*
Y9035D01*
X29348Y8907D01*
X29330Y8762D01*
X29294Y8543D01*
Y8525D01*
Y8434D01*
X29275Y8343D01*
Y8215D01*
X29257Y8088D01*
Y7960D01*
X29239Y7869D01*
Y7796D01*
Y7760D01*
X29403D01*
X29421Y7778D01*
X29439Y7796D01*
Y7814D01*
Y7832D01*
Y7869D01*
X29458Y7924D01*
Y8015D01*
X29476Y8124D01*
X29494Y8252D01*
Y8270D01*
X29512Y8324D01*
Y8397D01*
X29530Y8470D01*
Y8543D01*
X29549Y8616D01*
Y8671D01*
X29567Y8634D01*
Y8580D01*
X29585Y8507D01*
X29603Y8397D01*
X29640Y8252D01*
X29731Y7760D01*
X29968D01*
X29986Y7778D01*
Y7796D01*
Y7814D01*
X30004Y7869D01*
Y7960D01*
X30022Y8088D01*
X30041Y8252D01*
X30077Y8488D01*
Y8525D01*
X30095Y8598D01*
Y8689D01*
X30114Y8816D01*
Y8944D01*
X30132Y9053D01*
Y9144D01*
Y9181D01*
Y9235D01*
D02*
G37*
G36*
X34705Y9235D02*
X34559D01*
X34523Y9217D01*
X34505Y9199D01*
Y9181D01*
Y9162D01*
Y9126D01*
X34486Y9053D01*
X34468Y8944D01*
X34450Y8798D01*
X34432Y8616D01*
Y8598D01*
X34413Y8525D01*
Y8434D01*
X34395Y8343D01*
X34377Y8233D01*
Y8142D01*
X34359Y8069D01*
Y8051D01*
X34341Y8033D01*
X34322Y8015D01*
X34268Y7978D01*
X34213Y7960D01*
X34176D01*
X34140Y7996D01*
Y8015D01*
Y8033D01*
X34122Y8069D01*
Y8088D01*
Y8106D01*
Y8160D01*
X34140Y8215D01*
Y8324D01*
Y8452D01*
X34158Y8634D01*
Y8652D01*
X34176Y8725D01*
Y8816D01*
X34195Y8907D01*
Y9017D01*
X34213Y9108D01*
Y9162D01*
Y9199D01*
X34195Y9217D01*
X34176Y9235D01*
X34012D01*
Y9217D01*
X33994Y9162D01*
X33976Y9053D01*
Y8926D01*
X33958Y8743D01*
X33940Y8543D01*
X33921Y8306D01*
Y8051D01*
Y8033D01*
Y8015D01*
X33940Y7924D01*
X34012Y7814D01*
X34049Y7778D01*
X34122Y7760D01*
X34140D01*
X34195Y7741D01*
X34268Y7760D01*
X34359Y7796D01*
X34377Y7814D01*
X34432Y7851D01*
X34505Y7905D01*
X34559Y7996D01*
Y8015D01*
Y8051D01*
X34577Y8088D01*
Y8160D01*
X34596Y8270D01*
X34614Y8416D01*
X34650Y8598D01*
Y8616D01*
X34668Y8689D01*
Y8780D01*
X34687Y8889D01*
Y8998D01*
X34705Y9090D01*
Y9162D01*
Y9181D01*
Y9235D01*
D02*
G37*
G36*
X49208Y9199D02*
X49135D01*
X49026Y9181D01*
X48989Y9162D01*
X48917Y9126D01*
X48825Y9053D01*
X48771Y8944D01*
Y8926D01*
Y8907D01*
Y8853D01*
X48752Y8798D01*
Y8707D01*
X48734Y8580D01*
X48716Y8434D01*
Y8416D01*
Y8361D01*
X48698Y8288D01*
Y8215D01*
X48680Y8051D01*
Y7996D01*
Y7960D01*
Y7942D01*
X48698Y7924D01*
X48752Y7833D01*
X48844Y7760D01*
X49044D01*
X49081Y7778D01*
X49135Y7796D01*
X49208Y7851D01*
X49226Y7869D01*
X49244Y7905D01*
X49263Y7960D01*
X49299Y8033D01*
X49317Y8124D01*
X49354Y8252D01*
X49372Y8397D01*
Y8416D01*
X49390Y8488D01*
Y8580D01*
X49408Y8689D01*
X49427Y8798D01*
Y8889D01*
Y8980D01*
X49408Y9035D01*
Y9053D01*
X49390Y9090D01*
X49354Y9144D01*
X49281Y9181D01*
X49263D01*
X49208Y9199D01*
D02*
G37*
G36*
X47441Y9235D02*
X47003D01*
X46949Y8543D01*
Y8507D01*
X46931Y8434D01*
X46912Y8324D01*
Y8197D01*
X46894Y8051D01*
X46876Y7942D01*
X46858Y7851D01*
Y7796D01*
Y7760D01*
X47058D01*
Y7796D01*
X47076Y7833D01*
Y7887D01*
Y7960D01*
X47095Y8051D01*
Y8288D01*
X47240D01*
X47313Y8306D01*
X47404Y8343D01*
X47495Y8416D01*
X47513Y8434D01*
X47550Y8507D01*
X47605Y8616D01*
X47641Y8743D01*
Y8762D01*
Y8835D01*
Y8907D01*
Y8980D01*
Y8998D01*
X47623Y9071D01*
X47550Y9144D01*
X47513Y9199D01*
X47441Y9235D01*
D02*
G37*
G36*
X44052D02*
X43815D01*
Y9217D01*
Y9181D01*
Y9126D01*
X43797Y9035D01*
Y8889D01*
X43778Y8725D01*
X43760Y8488D01*
Y8452D01*
X43742Y8379D01*
X43724Y8270D01*
X43706Y8142D01*
X43687Y8015D01*
X43669Y7905D01*
X43651Y7814D01*
Y7778D01*
X43669D01*
X43687Y7760D01*
X43851D01*
Y7778D01*
Y7814D01*
X43870Y7905D01*
Y7924D01*
X43888Y8015D01*
X43906Y8124D01*
X43924Y8270D01*
Y8288D01*
Y8306D01*
X43942Y8397D01*
X43961Y8543D01*
X43979Y8689D01*
Y8707D01*
Y8725D01*
X43997Y8816D01*
Y8926D01*
Y9035D01*
Y9053D01*
Y9108D01*
Y9162D01*
Y9181D01*
X44052Y9235D01*
D02*
G37*
G36*
X42375D02*
X42048D01*
X41975Y9217D01*
X41956D01*
X41938Y9199D01*
Y9181D01*
Y9162D01*
X41920Y9108D01*
Y9017D01*
X41902Y8889D01*
X41884Y8725D01*
X41847Y8488D01*
Y8452D01*
Y8379D01*
X41829Y8270D01*
Y8142D01*
X41811Y8015D01*
Y7905D01*
X41793Y7814D01*
Y7778D01*
X41829D01*
X41884Y7760D01*
X42120D01*
X42211Y7778D01*
X42284Y7796D01*
X42303D01*
X42339Y7814D01*
X42394Y7851D01*
X42448Y7924D01*
X42467Y7942D01*
X42485Y8015D01*
X42540Y8124D01*
X42576Y8252D01*
Y8270D01*
Y8306D01*
X42558Y8361D01*
X42521Y8397D01*
Y8416D01*
X42503Y8452D01*
X42467Y8470D01*
X42430Y8488D01*
Y8543D01*
X42467D01*
X42485Y8561D01*
X42521Y8598D01*
Y8616D01*
X42558Y8634D01*
X42594Y8762D01*
X42612Y8835D01*
Y8926D01*
X42576Y9017D01*
X42521Y9126D01*
X42503D01*
X42485Y9144D01*
X42430Y9181D01*
X42375Y9235D01*
D02*
G37*
G36*
X36090D02*
X35889D01*
Y9217D01*
Y9181D01*
X35871Y9126D01*
Y9035D01*
X35853Y8889D01*
X35816Y8725D01*
X35780Y8488D01*
Y8452D01*
X35762Y8379D01*
X35743Y8270D01*
Y8142D01*
X35725Y8015D01*
X35707Y7905D01*
X35689Y7814D01*
Y7778D01*
X35707D01*
X35725Y7760D01*
X35889D01*
Y7778D01*
Y7814D01*
X35907Y7905D01*
Y7924D01*
X35926Y8015D01*
X35944Y8124D01*
X35962Y8270D01*
Y8288D01*
Y8306D01*
X35980Y8397D01*
Y8543D01*
X35998Y8689D01*
Y8707D01*
Y8725D01*
X36017Y8816D01*
X36035Y8926D01*
X36053Y9035D01*
Y9053D01*
X36071Y9108D01*
X36090Y9162D01*
Y9181D01*
Y9235D01*
D02*
G37*
G36*
X32537D02*
X32336D01*
Y9217D01*
Y9162D01*
X32318Y9108D01*
Y9017D01*
X32300Y8889D01*
X32282Y8743D01*
X32245Y8543D01*
Y8525D01*
Y8434D01*
X32227Y8343D01*
Y8215D01*
X32209Y8088D01*
Y7960D01*
X32190Y7869D01*
Y7796D01*
X32154Y7760D01*
X32737D01*
Y7851D01*
X32774D01*
X32792Y7869D01*
Y7905D01*
Y7924D01*
Y7942D01*
Y7960D01*
Y7996D01*
X32391D01*
Y8015D01*
Y8051D01*
X32409Y8088D01*
Y8160D01*
X32446Y8270D01*
X32464Y8416D01*
X32500Y8598D01*
Y8616D01*
Y8671D01*
X32519Y8762D01*
Y8853D01*
X32537Y9053D01*
Y9126D01*
Y9181D01*
Y9235D01*
D02*
G37*
G36*
X28018Y9235D02*
X27727D01*
Y9217D01*
Y9181D01*
X27708Y9090D01*
X27672Y8962D01*
X27635Y8780D01*
X27563Y8525D01*
X27508Y8361D01*
X27453Y8197D01*
X27399Y8015D01*
X27326Y7796D01*
X27344Y7778D01*
X27362Y7760D01*
X27526D01*
Y7796D01*
Y7814D01*
Y7851D01*
X27544Y7905D01*
X27581Y7996D01*
X27617Y8106D01*
X27872D01*
Y8051D01*
Y8033D01*
Y7996D01*
Y7924D01*
Y7851D01*
Y7760D01*
X28018D01*
X28055Y7778D01*
X28073Y7796D01*
Y7814D01*
Y7832D01*
Y7869D01*
Y7960D01*
X28055Y8069D01*
Y8215D01*
X28036Y8434D01*
Y8470D01*
Y8543D01*
Y8652D01*
Y8780D01*
X28018Y8907D01*
Y9035D01*
Y9126D01*
Y9181D01*
Y9235D01*
D02*
G37*
G36*
X40554Y9235D02*
X40426D01*
X40317Y9199D01*
X40207Y9126D01*
X40153Y9071D01*
X40116Y8980D01*
Y8962D01*
X40098Y8944D01*
X40080Y8907D01*
X40062Y8853D01*
X40043Y8762D01*
X40025Y8634D01*
X40007Y8488D01*
Y8470D01*
Y8416D01*
X39989Y8343D01*
Y8270D01*
X39970Y8106D01*
Y8033D01*
Y7996D01*
X39989Y7978D01*
X40025Y7905D01*
X40080Y7833D01*
X40171Y7760D01*
X40189D01*
X40225Y7741D01*
X40371D01*
X40444Y7760D01*
X40517Y7796D01*
X40608Y7869D01*
X40663Y7996D01*
Y8015D01*
Y8033D01*
Y8088D01*
X40681Y8142D01*
Y8233D01*
Y8343D01*
X40699Y8488D01*
Y8507D01*
X40718Y8561D01*
Y8634D01*
X40736Y8725D01*
Y8816D01*
X40754Y8889D01*
Y8944D01*
Y8980D01*
Y8998D01*
X40736Y9071D01*
X40663Y9144D01*
X40626Y9199D01*
X40554Y9235D01*
D02*
G37*
%LPD*%
G36*
X49172Y9017D02*
X49208Y8980D01*
X49226Y8889D01*
Y8871D01*
Y8816D01*
X49208Y8762D01*
Y8689D01*
X49190Y8580D01*
X49172Y8452D01*
Y8434D01*
Y8379D01*
X49153Y8306D01*
X49135Y8215D01*
X49117Y8142D01*
X49099Y8069D01*
X49062Y7996D01*
X49044Y7978D01*
X48953D01*
X48880Y7996D01*
Y8015D01*
Y8051D01*
Y8088D01*
Y8160D01*
Y8288D01*
X48898Y8416D01*
Y8580D01*
X48917Y8725D01*
X48935Y8853D01*
X48971Y8944D01*
X48989D01*
X49008Y8962D01*
X49044Y8998D01*
X49062Y9017D01*
X49117Y9035D01*
X49135D01*
X49172Y9017D01*
D02*
G37*
G36*
X47422Y8944D02*
X47441Y8871D01*
Y8743D01*
Y8707D01*
X47404Y8652D01*
X47350Y8580D01*
X47313Y8561D01*
X47258Y8543D01*
X47149D01*
Y8561D01*
Y8580D01*
Y8689D01*
X47167Y8835D01*
X47204Y8980D01*
X47404D01*
X47422Y8944D01*
D02*
G37*
G36*
X42321Y8962D02*
X42339D01*
X42357Y8944D01*
X42375Y8907D01*
Y8835D01*
Y8816D01*
X42357Y8762D01*
X42339Y8689D01*
X42284Y8634D01*
X42248Y8616D01*
X42157Y8598D01*
X42084D01*
Y8616D01*
Y8689D01*
X42102Y8798D01*
X42120Y8889D01*
X42139Y8980D01*
X42266D01*
X42321Y8962D01*
D02*
G37*
G36*
X42211Y8434D02*
X42284Y8416D01*
X42339Y8343D01*
Y8306D01*
Y8233D01*
Y8142D01*
X42284Y8051D01*
X42266D01*
X42211Y8033D01*
X42157Y8015D01*
X42084Y7996D01*
X42029D01*
Y8015D01*
Y8069D01*
Y8197D01*
X42048Y8215D01*
X42066Y8270D01*
X42084Y8343D01*
Y8397D01*
Y8416D01*
Y8434D01*
X42102Y8452D01*
X42157D01*
X42211Y8434D01*
D02*
G37*
G36*
X27854Y8816D02*
Y8762D01*
X27872Y8707D01*
Y8634D01*
Y8543D01*
Y8288D01*
X27672D01*
X27690Y8324D01*
Y8361D01*
X27708Y8416D01*
X27727Y8488D01*
X27745Y8580D01*
Y8598D01*
X27763Y8634D01*
X27781Y8725D01*
X27818Y8834D01*
X27836Y8853D01*
X27854Y8816D01*
D02*
G37*
G36*
X40481Y8998D02*
X40517Y8980D01*
X40535Y8962D01*
Y8944D01*
Y8926D01*
Y8889D01*
Y8835D01*
Y8762D01*
X40517Y8634D01*
X40499Y8488D01*
Y8470D01*
Y8416D01*
X40481Y8343D01*
Y8270D01*
X40462Y8197D01*
X40444Y8124D01*
X40426Y8069D01*
X40408Y8051D01*
Y8033D01*
X40389Y8015D01*
X40371Y7978D01*
X40317Y7960D01*
X40262D01*
X40225Y7978D01*
X40207Y7996D01*
Y8015D01*
Y8033D01*
X40189Y8069D01*
Y8142D01*
Y8215D01*
Y8324D01*
X40207Y8470D01*
Y8488D01*
X40225Y8543D01*
Y8598D01*
X40244Y8689D01*
Y8762D01*
X40262Y8816D01*
Y8871D01*
Y8889D01*
X40280Y8907D01*
X40298Y8944D01*
X40335Y8980D01*
X40389Y8998D01*
X40408D01*
X40426Y9017D01*
X40481Y8998D01*
D02*
G37*
D10*
X751243Y24409D02*
X750456D01*
X751243D01*
X671457D02*
X670669D01*
X671457D01*
X591918D02*
X591131D01*
X591918D01*
X432677Y24902D02*
X431890D01*
X432677D01*
X352953Y24544D02*
X352165D01*
X352953D01*
X272835D02*
X272047D01*
X272835D01*
X152819Y59005D02*
X156756D01*
Y56250D02*
Y59005D01*
X152819Y47194D02*
X156756D01*
Y49950D01*
X35901Y27957D02*
X48499D01*
X35901Y47642D02*
X48499D01*
Y27957D02*
Y47642D01*
X35901Y27957D02*
Y47642D01*
X161656Y22794D02*
Y25550D01*
X157719Y22794D02*
X161656D01*
Y31850D02*
Y34606D01*
X157719D02*
X161656D01*
X87150Y59256D02*
X89906D01*
Y55319D02*
Y59256D01*
X78095D02*
X80850D01*
X78095Y55319D02*
Y59256D01*
X407744Y38780D02*
Y41929D01*
X409318D01*
X409843Y41404D01*
Y40354D01*
X409318Y39830D01*
X407744D01*
X408793D02*
X409843Y38780D01*
X412992D02*
X410893D01*
X412992Y40879D01*
Y41404D01*
X412467Y41929D01*
X411417D01*
X410893Y41404D01*
X414041Y38780D02*
X415091D01*
X414566D01*
Y41929D01*
X414041Y41404D01*
X407219Y44686D02*
Y47834D01*
X408793D01*
X409318Y47309D01*
Y46260D01*
X408793Y45735D01*
X407219D01*
X408269D02*
X409318Y44686D01*
X412467D02*
X410368D01*
X412467Y46785D01*
Y47309D01*
X411942Y47834D01*
X410893D01*
X410368Y47309D01*
X413516D02*
X414041Y47834D01*
X415091D01*
X415615Y47309D01*
Y45210D01*
X415091Y44686D01*
X414041D01*
X413516Y45210D01*
Y47309D01*
X327757Y37796D02*
Y40944D01*
X329331D01*
X329856Y40420D01*
Y39370D01*
X329331Y38845D01*
X327757D01*
X328807D02*
X329856Y37796D01*
X330906D02*
X331955D01*
X331431D01*
Y40944D01*
X330906Y40420D01*
X333530Y38321D02*
X334054Y37796D01*
X335104D01*
X335629Y38321D01*
Y40420D01*
X335104Y40944D01*
X334054D01*
X333530Y40420D01*
Y39895D01*
X334054Y39370D01*
X335629D01*
X327757Y44686D02*
Y47834D01*
X329331D01*
X329856Y47309D01*
Y46260D01*
X329331Y45735D01*
X327757D01*
X328807D02*
X329856Y44686D01*
X330906D02*
X331955D01*
X331431D01*
Y47834D01*
X330906Y47309D01*
X333530D02*
X334054Y47834D01*
X335104D01*
X335629Y47309D01*
Y46785D01*
X335104Y46260D01*
X335629Y45735D01*
Y45210D01*
X335104Y44686D01*
X334054D01*
X333530Y45210D01*
Y45735D01*
X334054Y46260D01*
X333530Y46785D01*
Y47309D01*
X334054Y46260D02*
X335104D01*
X247048Y38780D02*
Y41929D01*
X248623D01*
X249148Y41404D01*
Y40354D01*
X248623Y39830D01*
X247048D01*
X248098D02*
X249148Y38780D01*
X250197D02*
X251247D01*
X250722D01*
Y41929D01*
X250197Y41404D01*
X252821Y41929D02*
X254920D01*
Y41404D01*
X252821Y39305D01*
Y38780D01*
X247048Y44686D02*
Y47834D01*
X248623D01*
X249148Y47309D01*
Y46260D01*
X248623Y45735D01*
X247048D01*
X248098D02*
X249148Y44686D01*
X250197D02*
X251247D01*
X250722D01*
Y47834D01*
X250197Y47309D01*
X254920Y47834D02*
X253871Y47309D01*
X252821Y46260D01*
Y45210D01*
X253346Y44686D01*
X254395D01*
X254920Y45210D01*
Y45735D01*
X254395Y46260D01*
X252821D01*
X725395Y37796D02*
Y40944D01*
X726969D01*
X727494Y40420D01*
Y39370D01*
X726969Y38845D01*
X725395D01*
X726444D02*
X727494Y37796D01*
X728544D02*
X729593D01*
X729068D01*
Y40944D01*
X728544Y40420D01*
X733266Y40944D02*
X731167D01*
Y39370D01*
X732217Y39895D01*
X732742D01*
X733266Y39370D01*
Y38321D01*
X732742Y37796D01*
X731692D01*
X731167Y38321D01*
X725395Y44686D02*
Y47834D01*
X726969D01*
X727494Y47309D01*
Y46260D01*
X726969Y45735D01*
X725395D01*
X726444D02*
X727494Y44686D01*
X728544D02*
X729593D01*
X729068D01*
Y47834D01*
X728544Y47309D01*
X732742Y44686D02*
Y47834D01*
X731167Y46260D01*
X733266D01*
X646655Y38780D02*
Y41929D01*
X648229D01*
X648754Y41404D01*
Y40354D01*
X648229Y39830D01*
X646655D01*
X647704D02*
X648754Y38780D01*
X649803D02*
X650853D01*
X650328D01*
Y41929D01*
X649803Y41404D01*
X652427D02*
X652952Y41929D01*
X654002D01*
X654526Y41404D01*
Y40879D01*
X654002Y40354D01*
X653477D01*
X654002D01*
X654526Y39830D01*
Y39305D01*
X654002Y38780D01*
X652952D01*
X652427Y39305D01*
X566930Y37796D02*
Y40944D01*
X568505D01*
X569030Y40420D01*
Y39370D01*
X568505Y38845D01*
X566930D01*
X567980D02*
X569030Y37796D01*
X570079D02*
X571129D01*
X570604D01*
Y40944D01*
X570079Y40420D01*
X574802Y37796D02*
X572703D01*
X574802Y39895D01*
Y40420D01*
X574277Y40944D01*
X573228D01*
X572703Y40420D01*
X567455Y44686D02*
Y47834D01*
X569030D01*
X569554Y47309D01*
Y46260D01*
X569030Y45735D01*
X567455D01*
X568505D02*
X569554Y44686D01*
X570604D02*
X571653D01*
X571129D01*
Y47834D01*
X570604Y47309D01*
X573228Y44686D02*
X574277D01*
X573752D01*
Y47834D01*
X573228Y47309D01*
X646655Y44686D02*
Y47834D01*
X648229D01*
X648754Y47309D01*
Y46260D01*
X648229Y45735D01*
X646655D01*
X647704D02*
X648754Y44686D01*
X649803D02*
X650853D01*
X650328D01*
Y47834D01*
X649803Y47309D01*
X652427D02*
X652952Y47834D01*
X654002D01*
X654526Y47309D01*
Y45210D01*
X654002Y44686D01*
X652952D01*
X652427Y45210D01*
Y47309D01*
X421917Y31495D02*
Y27560D01*
X423885D01*
X424541Y28216D01*
Y30839D01*
X423885Y31495D01*
X421917D01*
X428477D02*
X427165Y30839D01*
X425853Y29528D01*
Y28216D01*
X426509Y27560D01*
X427821D01*
X428477Y28216D01*
Y28872D01*
X427821Y29528D01*
X425853D01*
X341208Y31495D02*
Y27560D01*
X343176D01*
X343832Y28216D01*
Y30839D01*
X343176Y31495D01*
X341208D01*
X347768D02*
X345144D01*
Y29528D01*
X346456Y30184D01*
X347112D01*
X347768Y29528D01*
Y28216D01*
X347112Y27560D01*
X345800D01*
X345144Y28216D01*
X261484Y31495D02*
Y27560D01*
X263452D01*
X264108Y28216D01*
Y30839D01*
X263452Y31495D01*
X261484D01*
X267388Y27560D02*
Y31495D01*
X265420Y29528D01*
X268044D01*
X740815Y28543D02*
Y24607D01*
X742783D01*
X743438Y25263D01*
Y27887D01*
X742783Y28543D01*
X740815D01*
X744750Y27887D02*
X745406Y28543D01*
X746718D01*
X747374Y27887D01*
Y27231D01*
X746718Y26575D01*
X746062D01*
X746718D01*
X747374Y25919D01*
Y25263D01*
X746718Y24607D01*
X745406D01*
X744750Y25263D01*
X660106Y28543D02*
Y24607D01*
X662074D01*
X662730Y25263D01*
Y27887D01*
X662074Y28543D01*
X660106D01*
X666666Y24607D02*
X664042D01*
X666666Y27231D01*
Y27887D01*
X666010Y28543D01*
X664698D01*
X664042Y27887D01*
X582022Y28543D02*
Y24607D01*
X583990D01*
X584646Y25263D01*
Y27887D01*
X583990Y28543D01*
X582022D01*
X585958Y24607D02*
X587269D01*
X586614D01*
Y28543D01*
X585958Y27887D01*
D11*
X150555Y60580D02*
X149817Y61006D01*
Y60154D01*
X150555Y60580D01*
X31964Y48647D02*
X31226Y49073D01*
Y48220D01*
X31964Y48647D01*
X155455Y36180D02*
X154717Y36606D01*
Y35754D01*
X155455Y36180D01*
X77012Y52563D02*
X76274Y52989D01*
Y52137D01*
X77012Y52563D01*
D12*
X41019Y43705D02*
X40574Y44629D01*
X39575Y44857D01*
X38774Y44218D01*
Y43193D01*
X39575Y42554D01*
X40574Y42782D01*
X41019Y43705D01*
D13*
X769038Y28543D02*
Y48228D01*
X748802Y28543D02*
Y48228D01*
X689252Y28543D02*
Y48228D01*
X669016Y28543D02*
Y48228D01*
X609714Y28543D02*
Y48228D01*
X589477Y28543D02*
Y48228D01*
X430236Y29036D02*
Y48721D01*
X450472Y29036D02*
Y48721D01*
X350512Y28678D02*
Y48363D01*
X370748Y28678D02*
Y48363D01*
X290630Y28678D02*
Y48363D01*
X270394Y28678D02*
Y48363D01*
D14*
X417323Y43110D02*
X428740D01*
Y42354D02*
Y43110D01*
X417323Y42354D02*
Y43110D01*
Y37598D02*
X428740D01*
X417323D02*
Y38354D01*
X423032Y37598D02*
Y43110D01*
X428740Y37598D02*
Y38354D01*
X417323Y49214D02*
X428740D01*
Y48458D02*
Y49214D01*
X417323Y48458D02*
Y49214D01*
Y43702D02*
X428740D01*
X417323D02*
Y44458D01*
X423032Y43702D02*
Y49214D01*
X428740Y43702D02*
Y44458D01*
X268504Y37598D02*
Y38354D01*
X262795Y37598D02*
Y43110D01*
X257087Y37598D02*
Y38354D01*
Y37598D02*
X268504D01*
X257087Y42354D02*
Y43110D01*
X268504Y42354D02*
Y43110D01*
X257087D02*
X268504D01*
X268504Y43702D02*
Y44458D01*
X262795Y43702D02*
Y49214D01*
X257087Y43702D02*
Y44458D01*
Y43702D02*
X268504D01*
X257087Y48458D02*
Y49214D01*
X268504Y48458D02*
Y49214D01*
X257087D02*
X268504D01*
X337402Y43110D02*
X348819D01*
Y42354D02*
Y43110D01*
X337402Y42354D02*
Y43110D01*
Y37598D02*
X348819D01*
X337402D02*
Y38354D01*
X343110Y37598D02*
Y43110D01*
X348819Y37598D02*
Y38354D01*
Y43702D02*
Y44458D01*
X343110Y43702D02*
Y49214D01*
X337402Y43702D02*
Y44458D01*
Y43702D02*
X348819D01*
X337402Y48458D02*
Y49214D01*
X348819Y48458D02*
Y49214D01*
X337402D02*
X348819D01*
X656496Y49079D02*
X667913D01*
Y48323D02*
Y49079D01*
X656496Y48323D02*
Y49079D01*
Y43567D02*
X667913D01*
X656496D02*
Y44323D01*
X662205Y43567D02*
Y49079D01*
X667913Y43567D02*
Y44323D01*
X656496Y42976D02*
X667913D01*
Y42220D02*
Y42976D01*
X656496Y42220D02*
Y42976D01*
Y37464D02*
X667913D01*
X656496D02*
Y38220D01*
X662205Y37464D02*
Y42976D01*
X667913Y37464D02*
Y38220D01*
X746912Y37464D02*
Y38220D01*
X741204Y37464D02*
Y42976D01*
X735495Y37464D02*
Y38220D01*
Y37464D02*
X746912D01*
X735495Y42220D02*
Y42976D01*
X746912Y42220D02*
Y42976D01*
X735495D02*
X746912D01*
Y43567D02*
Y44323D01*
X741204Y43567D02*
Y49079D01*
X735495Y43567D02*
Y44323D01*
Y43567D02*
X746912D01*
X735495Y48323D02*
Y49079D01*
X746912Y48323D02*
Y49079D01*
X735495D02*
X746912D01*
X588178Y37400D02*
Y38156D01*
X582470Y37400D02*
Y42912D01*
X576761Y37400D02*
Y38156D01*
Y37400D02*
X588178D01*
X576761Y42156D02*
Y42912D01*
X588178Y42156D02*
Y42912D01*
X576761D02*
X588178D01*
Y43504D02*
Y44260D01*
X582470Y43504D02*
Y49016D01*
X576761Y43504D02*
Y44260D01*
Y43504D02*
X588178D01*
X576761Y48260D02*
Y49016D01*
X588178Y48260D02*
Y49016D01*
X576761D02*
X588178D01*
X127656Y23391D02*
Y34809D01*
X126900Y23391D02*
X127656D01*
X126900Y34809D02*
X127656D01*
X122144Y23391D02*
Y34809D01*
X122900D01*
X122144Y29100D02*
X127656D01*
X122144Y23391D02*
X122900D01*
X72944Y22791D02*
X73700D01*
X72944Y28500D02*
X78456D01*
X72944Y34209D02*
X73700D01*
X72944Y22791D02*
Y34209D01*
X77700D02*
X78456D01*
X77700Y22791D02*
X78456D01*
Y34209D01*
X89200D02*
X89956D01*
X84444Y28500D02*
X89956D01*
X89200Y22791D02*
X89956D01*
Y34209D01*
X84444Y22791D02*
X85200D01*
X84444Y34209D02*
X85200D01*
X84444Y22791D02*
Y34209D01*
X102456Y22791D02*
Y34209D01*
X101700Y22791D02*
X102456D01*
X101700Y34209D02*
X102456D01*
X96944Y22791D02*
Y34209D01*
X97700D01*
X96944Y28500D02*
X102456D01*
X96944Y22791D02*
X97700D01*
X108944Y29193D02*
X114456D01*
X113275Y35098D02*
X114456D01*
Y23287D02*
Y35098D01*
X113275Y23287D02*
X114456D01*
X108944Y35098D02*
X110125D01*
X108944Y23287D02*
X110125D01*
X108944D02*
Y35098D01*
X58144Y19545D02*
Y31356D01*
Y19545D02*
X59325D01*
X58144Y31356D02*
X59325D01*
X62475Y19545D02*
X63656D01*
Y31356D01*
X62475D02*
X63656D01*
X58144Y25450D02*
X63656D01*
X124000Y63059D02*
X124756D01*
X119244Y57350D02*
X124756D01*
X124000Y51642D02*
X124756D01*
Y63059D01*
X119244Y51642D02*
X120000D01*
X119244Y63059D02*
X120000D01*
X119244Y51642D02*
Y63059D01*
X100744Y52291D02*
X101500D01*
X100744Y58000D02*
X106256D01*
X100744Y63709D02*
X101500D01*
X100744Y52291D02*
Y63709D01*
X105500D02*
X106256D01*
X105500Y52291D02*
X106256D01*
Y63709D01*
X16744Y60291D02*
X17500D01*
X16744Y66000D02*
X22256D01*
X16744Y71709D02*
X17500D01*
X16744Y60291D02*
Y71709D01*
X21500D02*
X22256D01*
X21500Y60291D02*
X22256D01*
Y71709D01*
X56444Y61791D02*
Y73209D01*
X57200D01*
X56444Y61791D02*
X57200D01*
X61956D02*
Y73209D01*
X61200Y61791D02*
X61956D01*
X56444Y67500D02*
X61956D01*
X61200Y73209D02*
X61956D01*
X133955Y23138D02*
Y34555D01*
X134711D01*
X133955Y23138D02*
X134711D01*
X139467D02*
Y34555D01*
X138711Y23138D02*
X139467D01*
X133955Y28846D02*
X139467D01*
X138711Y34555D02*
X139467D01*
X56350Y48044D02*
Y53556D01*
X50445Y52375D02*
Y53556D01*
X62256D01*
Y52375D02*
Y53556D01*
X50445Y48044D02*
Y49225D01*
X62256Y48044D02*
Y49225D01*
X50445Y48044D02*
X62256D01*
D15*
X69377Y21319D02*
Y48878D01*
X117605D01*
Y21319D02*
Y48878D01*
X69377Y21319D02*
X117605D01*
D16*
X120095Y15982D02*
Y12047D01*
X122062D01*
X122718Y12703D01*
Y15326D01*
X122062Y15982D01*
X120095D01*
X125998Y12047D02*
X124686D01*
X124030Y12703D01*
Y14015D01*
X124686Y14671D01*
X125998D01*
X126654Y14015D01*
Y13359D01*
X124030D01*
X127966Y12047D02*
X129934D01*
X130590Y12703D01*
X129934Y13359D01*
X128622D01*
X127966Y14015D01*
X128622Y14671D01*
X130590D01*
X131902Y12047D02*
X133214D01*
X132558D01*
Y14671D01*
X131902D01*
X136493Y10735D02*
X137149D01*
X137805Y11391D01*
Y14671D01*
X135837D01*
X135181Y14015D01*
Y12703D01*
X135837Y12047D01*
X137805D01*
X139117D02*
Y14671D01*
X141085D01*
X141741Y14015D01*
Y12047D01*
X147645Y14671D02*
X148957D01*
X149612Y14015D01*
Y12047D01*
X147645D01*
X146989Y12703D01*
X147645Y13359D01*
X149612D01*
X150925Y12047D02*
Y14671D01*
X152892D01*
X153548Y14015D01*
Y12047D01*
X157484Y15982D02*
Y12047D01*
X155516D01*
X154860Y12703D01*
Y14015D01*
X155516Y14671D01*
X157484D01*
X162732Y15982D02*
Y12047D01*
X165356D01*
X167323Y14671D02*
X168635D01*
X169291Y14015D01*
Y12047D01*
X167323D01*
X166667Y12703D01*
X167323Y13359D01*
X169291D01*
X170603Y14671D02*
Y12703D01*
X171259Y12047D01*
X173227D01*
Y11391D01*
X172571Y10735D01*
X171915D01*
X173227Y12047D02*
Y14671D01*
X175195Y12047D02*
X176507D01*
X177163Y12703D01*
Y14015D01*
X176507Y14671D01*
X175195D01*
X174539Y14015D01*
Y12703D01*
X175195Y12047D01*
X178475Y14671D02*
Y12703D01*
X179131Y12047D01*
X181098D01*
Y14671D01*
X183066Y15326D02*
Y14671D01*
X182410D01*
X183722D01*
X183066D01*
Y12703D01*
X183722Y12047D01*
X189626Y15982D02*
Y12047D01*
X191594D01*
X192250Y12703D01*
Y13359D01*
Y14015D01*
X191594Y14671D01*
X189626D01*
X193562D02*
Y12703D01*
X194218Y12047D01*
X196185D01*
Y11391D01*
X195529Y10735D01*
X194873D01*
X196185Y12047D02*
Y14671D01*
X120095Y7548D02*
Y3612D01*
X122718D01*
X124030Y6236D02*
Y4268D01*
X124686Y3612D01*
X126654D01*
Y6236D01*
X127966Y3612D02*
Y7548D01*
Y4924D02*
X129934Y6236D01*
X127966Y4924D02*
X129934Y3612D01*
X133870D02*
X132558D01*
X131902Y4268D01*
Y5580D01*
X132558Y6236D01*
X133870D01*
X134526Y5580D01*
Y4924D01*
X131902D01*
X139773Y7548D02*
Y3612D01*
X141741D01*
X142397Y4268D01*
Y4924D01*
X141741Y5580D01*
X139773D01*
X141741D01*
X142397Y6236D01*
Y6892D01*
X141741Y7548D01*
X139773D01*
X144365Y2956D02*
X145021Y3612D01*
Y4268D01*
X144365D01*
Y3612D01*
X145021D01*
X144365Y2956D01*
X143709Y2300D01*
X151580Y3612D02*
Y7548D01*
X152892Y6236D01*
X154204Y7548D01*
Y3612D01*
X155516D02*
X156828D01*
X156172D01*
Y6236D01*
X155516D01*
X161420D02*
X159452D01*
X158796Y5580D01*
Y4268D01*
X159452Y3612D01*
X161420D01*
X162732Y7548D02*
Y3612D01*
Y5580D01*
X163388Y6236D01*
X164699D01*
X165356Y5580D01*
Y3612D01*
X167323Y6236D02*
X168635D01*
X169291Y5580D01*
Y3612D01*
X167323D01*
X166667Y4268D01*
X167323Y4924D01*
X169291D01*
X172571Y3612D02*
X171259D01*
X170603Y4268D01*
Y5580D01*
X171259Y6236D01*
X172571D01*
X173227Y5580D01*
Y4924D01*
X170603D01*
X174539Y3612D02*
X175851D01*
X175195D01*
Y7548D01*
X174539D01*
X181754D02*
Y6892D01*
X183066Y5580D01*
X184378Y6892D01*
Y7548D01*
X183066Y5580D02*
Y3612D01*
X54000Y16798D02*
X57999D01*
X55999D01*
Y10800D01*
X63997Y15798D02*
X62997Y16798D01*
X60998D01*
X59998Y15798D01*
Y14799D01*
X60998Y13799D01*
X62997D01*
X63997Y12799D01*
Y11800D01*
X62997Y10800D01*
X60998D01*
X59998Y11800D01*
X65996Y10800D02*
Y14799D01*
X67996Y16798D01*
X69995Y14799D01*
Y10800D01*
Y13799D01*
X65996D01*
X71994Y16798D02*
Y10800D01*
X75993D01*
X83990Y16798D02*
Y10800D01*
X86989D01*
X87989Y11800D01*
Y12799D01*
X86989Y13799D01*
X83990D01*
X86989D01*
X87989Y14799D01*
Y15798D01*
X86989Y16798D01*
X83990D01*
X90988Y10800D02*
X92987D01*
X93987Y11800D01*
Y13799D01*
X92987Y14799D01*
X90988D01*
X89988Y13799D01*
Y11800D01*
X90988Y10800D01*
X96986Y14799D02*
X98985D01*
X99985Y13799D01*
Y10800D01*
X96986D01*
X95986Y11800D01*
X96986Y12799D01*
X99985D01*
X101985Y14799D02*
Y10800D01*
Y12799D01*
X102984Y13799D01*
X103984Y14799D01*
X104983D01*
X111981Y16798D02*
Y10800D01*
X108982D01*
X107983Y11800D01*
Y13799D01*
X108982Y14799D01*
X111981D01*
X56300Y4900D02*
Y8049D01*
X57874D01*
X58399Y7524D01*
Y6474D01*
X57874Y5949D01*
X56300D01*
X57349D02*
X58399Y4900D01*
X61023D02*
X59973D01*
X59449Y5425D01*
Y6474D01*
X59973Y6999D01*
X61023D01*
X61548Y6474D01*
Y5949D01*
X59449D01*
X62597Y6999D02*
X63647Y4900D01*
X64696Y6999D01*
X70993Y4900D02*
X68894D01*
X70993Y6999D01*
Y7524D01*
X70469Y8049D01*
X69419D01*
X68894Y7524D01*
X72043Y4900D02*
Y5425D01*
X72568D01*
Y4900D01*
X72043D01*
X74667Y7524D02*
X75191Y8049D01*
X76241D01*
X76766Y7524D01*
Y5425D01*
X76241Y4900D01*
X75191D01*
X74667Y5425D01*
Y7524D01*
X179452Y32268D02*
X182076Y28332D01*
Y32268D02*
X179452Y28332D01*
X186011Y32268D02*
X184699Y31612D01*
X183387Y30300D01*
Y28988D01*
X184043Y28332D01*
X185355D01*
X186011Y28988D01*
Y29644D01*
X185355Y30300D01*
X183387D01*
X180447Y51180D02*
X183071Y47245D01*
Y51180D02*
X180447Y47245D01*
X184383D02*
X185695D01*
X185039D01*
Y51180D01*
X184383Y50524D01*
X46920Y65532D02*
Y69468D01*
X48888D01*
X49544Y68812D01*
Y67500D01*
X48888Y66844D01*
X46920D01*
X48232D02*
X49544Y65532D01*
X52824D02*
Y69468D01*
X50856Y67500D01*
X53480D01*
X55500Y59012D02*
X54844Y59668D01*
X53532D01*
X52876Y59012D01*
Y56388D01*
X53532Y55732D01*
X54844D01*
X55500Y56388D01*
X56812Y55732D02*
X58124D01*
X57468D01*
Y59668D01*
X56812Y59012D01*
X179665Y41181D02*
X182289Y37245D01*
Y41181D02*
X179665Y37245D01*
X186225Y41181D02*
X183601D01*
Y39213D01*
X184913Y39869D01*
X185569D01*
X186225Y39213D01*
Y37901D01*
X185569Y37245D01*
X184257D01*
X183601Y37901D01*
X4820Y31568D02*
X7444Y27632D01*
Y31568D02*
X4820Y27632D01*
X10724D02*
Y31568D01*
X8756Y29600D01*
X11380D01*
X5020Y42068D02*
X7644Y38132D01*
Y42068D02*
X5020Y38132D01*
X8956Y41412D02*
X9612Y42068D01*
X10924D01*
X11580Y41412D01*
Y40756D01*
X10924Y40100D01*
X10268D01*
X10924D01*
X11580Y39444D01*
Y38788D01*
X10924Y38132D01*
X9612D01*
X8956Y38788D01*
X5020Y51368D02*
X7644Y47432D01*
Y51368D02*
X5020Y47432D01*
X11580D02*
X8956D01*
X11580Y50056D01*
Y50712D01*
X10924Y51368D01*
X9612D01*
X8956Y50712D01*
X39876Y53768D02*
Y50488D01*
X40532Y49832D01*
X41844D01*
X42500Y50488D01*
Y53768D01*
X43812Y49832D02*
X45124D01*
X44468D01*
Y53768D01*
X43812Y53112D01*
X101668Y38220D02*
X97732D01*
Y40188D01*
X98388Y40844D01*
X99700D01*
X100356Y40188D01*
Y38220D01*
Y39532D02*
X101668Y40844D01*
X101012Y42156D02*
X101668Y42812D01*
Y44124D01*
X101012Y44780D01*
X98388D01*
X97732Y44124D01*
Y42812D01*
X98388Y42156D01*
X99044D01*
X99700Y42812D01*
Y44780D01*
X138679Y38362D02*
X134743D01*
Y40330D01*
X135399Y40986D01*
X136711D01*
X137367Y40330D01*
Y38362D01*
Y39674D02*
X138679Y40986D01*
X135399Y42298D02*
X134743Y42954D01*
Y44266D01*
X135399Y44921D01*
X136055D01*
X136711Y44266D01*
X137367Y44921D01*
X138023D01*
X138679Y44266D01*
Y42954D01*
X138023Y42298D01*
X137367D01*
X136711Y42954D01*
X136055Y42298D01*
X135399D01*
X136711Y42954D02*
Y44266D01*
X126868Y38419D02*
X122932D01*
Y40387D01*
X123588Y41043D01*
X124900D01*
X125556Y40387D01*
Y38419D01*
Y39731D02*
X126868Y41043D01*
X122932Y42354D02*
Y44978D01*
X123588D01*
X126212Y42354D01*
X126868D01*
X89168Y38220D02*
X85232D01*
Y40188D01*
X85888Y40844D01*
X87200D01*
X87856Y40188D01*
Y38220D01*
Y39532D02*
X89168Y40844D01*
X85232Y44780D02*
X85888Y43468D01*
X87200Y42156D01*
X88512D01*
X89168Y42812D01*
Y44124D01*
X88512Y44780D01*
X87856D01*
X87200Y44124D01*
Y42156D01*
X77668Y38220D02*
X73732D01*
Y40188D01*
X74388Y40844D01*
X75700D01*
X76356Y40188D01*
Y38220D01*
Y39532D02*
X77668Y40844D01*
X73732Y44780D02*
Y42156D01*
X75700D01*
X75044Y43468D01*
Y44124D01*
X75700Y44780D01*
X77012D01*
X77668Y44124D01*
Y42812D01*
X77012Y42156D01*
X6220Y64532D02*
Y68468D01*
X8188D01*
X8844Y67812D01*
Y66500D01*
X8188Y65844D01*
X6220D01*
X7532D02*
X8844Y64532D01*
X10156Y67812D02*
X10812Y68468D01*
X12124D01*
X12780Y67812D01*
Y67156D01*
X12124Y66500D01*
X11468D01*
X12124D01*
X12780Y65844D01*
Y65188D01*
X12124Y64532D01*
X10812D01*
X10156Y65188D01*
X118720Y66532D02*
Y70468D01*
X120688D01*
X121344Y69812D01*
Y68500D01*
X120688Y67844D01*
X118720D01*
X120032D02*
X121344Y66532D01*
X125280D02*
X122656D01*
X125280Y69156D01*
Y69812D01*
X124624Y70468D01*
X123312D01*
X122656Y69812D01*
X100876Y66682D02*
Y70618D01*
X102844D01*
X103500Y69962D01*
Y68650D01*
X102844Y67994D01*
X100876D01*
X102188D02*
X103500Y66682D01*
X104812D02*
X106124D01*
X105468D01*
Y70618D01*
X104812Y69962D01*
X159644Y39988D02*
Y42612D01*
X158988Y43268D01*
X157676D01*
X157020Y42612D01*
Y39988D01*
X157676Y39332D01*
X158988D01*
X158332Y40644D02*
X159644Y39332D01*
X158988D02*
X159644Y39988D01*
X160956Y42612D02*
X161612Y43268D01*
X162924D01*
X163580Y42612D01*
Y41956D01*
X162924Y41300D01*
X162268D01*
X162924D01*
X163580Y40644D01*
Y39988D01*
X162924Y39332D01*
X161612D01*
X160956Y39988D01*
X83344Y67188D02*
Y69812D01*
X82688Y70468D01*
X81376D01*
X80720Y69812D01*
Y67188D01*
X81376Y66532D01*
X82688D01*
X82032Y67844D02*
X83344Y66532D01*
X82688D02*
X83344Y67188D01*
X87280Y66532D02*
X84656D01*
X87280Y69156D01*
Y69812D01*
X86624Y70468D01*
X85312D01*
X84656Y69812D01*
X155163Y63328D02*
Y65952D01*
X154507Y66608D01*
X153195D01*
X152539Y65952D01*
Y63328D01*
X153195Y62672D01*
X154507D01*
X153851Y63984D02*
X155163Y62672D01*
X154507D02*
X155163Y63328D01*
X156475Y62672D02*
X157787D01*
X157131D01*
Y66608D01*
X156475Y65952D01*
X59888Y37145D02*
X59232Y36489D01*
Y35177D01*
X59888Y34521D01*
X62512D01*
X63168Y35177D01*
Y36489D01*
X62512Y37145D01*
X59888Y38457D02*
X59232Y39113D01*
Y40425D01*
X59888Y41080D01*
X60544D01*
X61200Y40425D01*
Y39769D01*
Y40425D01*
X61856Y41080D01*
X62512D01*
X63168Y40425D01*
Y39113D01*
X62512Y38457D01*
X111372Y41332D02*
X110716Y40676D01*
Y39364D01*
X111372Y38708D01*
X113996D01*
X114652Y39364D01*
Y40676D01*
X113996Y41332D01*
X114652Y45268D02*
Y42644D01*
X112028Y45268D01*
X111372D01*
X110716Y44612D01*
Y43300D01*
X111372Y42644D01*
M02*
