M48
;Layer_Color=9474304
;FILE_FORMAT=2:4
INCH,TZ
;TYPE=PLATED
T01F00S00C0.0150
T02F00S00C0.0400
%
T01
X2090Y350
X3790Y330
X4336Y1916
X4320Y3280
X4450Y4510
X3040Y2080
X1040Y1710
X6620Y2060
X6360Y4660
X7100Y4730
X8920
X8150Y3440
X9410Y2630
X11195Y2085
X12480Y1470
X12080Y640
X14410Y740
X15430Y2060
X17140Y1900
X18060Y1280
X19370Y1993
X19390Y480
X13220Y2590
X12310Y4770
X10930Y5410
X14960Y4440
X8780Y520
T02
X2000Y3000
Y4000
Y5000
X17150
Y4000
Y3000
M30
